<svg xmlns="http://www.w3.org/2000/svg" width="455" height="460" viewBox="0 0 455 460" version="1.1">
	<path d="M 0 230.002 L 0 460.004 227.750 459.752 L 455.500 459.500 455.752 229.750 L 456.004 -0 228.002 -0 L 0 0 0 230.002 M 0.491 230.500 C 0.492 357, 0.608 408.601, 0.750 345.170 C 0.892 281.738, 0.892 178.238, 0.750 115.170 C 0.608 52.101, 0.491 104, 0.491 230.500 M 232.503 17.990 C 231.651 20.676, 233.692 23.187, 236.412 22.798 C 237.999 22.572, 238.500 21.780, 238.500 19.500 C 238.500 16.994, 238.061 16.449, 235.836 16.192 C 233.850 15.962, 233.001 16.420, 232.503 17.990 M 190.500 21.698 C 184.046 22.554, 177 25.075, 177 26.528 C 177 27.497, 178.025 28, 180 28 C 181.650 28, 183.003 28.337, 183.007 28.750 C 183.010 29.163, 183.907 34.675, 185 41 C 187.467 55.278, 187.467 56.065, 185 56.710 C 183.862 57.008, 183 58.074, 183 59.184 C 183 60.647, 183.476 60.984, 184.903 60.531 C 185.950 60.198, 189.438 59.499, 192.653 58.976 C 211.338 55.939, 217.396 50.200, 215.616 37.218 C 214.149 26.512, 208.383 20.902, 199.102 21.150 C 196.021 21.232, 192.150 21.479, 190.500 21.698 M 190.103 25.915 C 188.920 26.664, 189.035 28.858, 190.853 40.262 C 192.034 47.667, 193 54.012, 193 54.363 C 193 55.656, 198.624 54.900, 202.669 53.063 C 207.929 50.675, 209.416 47.936, 209.243 40.955 C 209.085 34.545, 207.739 30.431, 204.759 27.250 C 203.057 25.433, 201.579 25.003, 197.076 25.015 C 194.009 25.024, 190.872 25.429, 190.103 25.915 M 228.667 28.667 C 227.410 29.923, 228.001 30.861, 230.250 31.180 C 232.452 31.493, 232.493 31.738, 232.185 42.680 C 231.895 52.980, 232.026 53.944, 233.853 54.921 C 235.908 56.021, 242 55.326, 242 53.992 C 242 53.575, 241.030 52.980, 239.845 52.670 C 237.746 52.121, 237.706 51.804, 238.343 40.659 C 238.909 30.756, 238.784 29.131, 237.417 28.606 C 235.299 27.794, 229.500 27.834, 228.667 28.667 M 254 30.421 C 254 31.289, 254.648 32, 255.441 32 C 257.895 32, 257.987 33.396, 256.161 42.968 C 254.930 49.424, 253.824 52.656, 252.519 53.609 C 250.210 55.298, 250.327 55.390, 256.484 56.738 C 262.206 57.991, 263.770 57.508, 261.634 55.148 C 260.321 53.697, 260.309 52.596, 261.541 46.134 C 263.142 37.731, 263.972 36.385, 268.110 35.476 C 274.118 34.156, 275.268 38.350, 272.491 51.459 C 271.655 55.406, 271.394 58.794, 271.888 59.288 C 273.273 60.673, 281 61.431, 281 60.181 C 281 59.586, 280.227 58.667, 279.281 58.138 C 277.723 57.266, 277.677 56.512, 278.781 50.069 C 280.656 39.139, 280.420 36.476, 277.365 34.073 C 274.512 31.828, 270.622 31.433, 266.565 32.975 C 264.564 33.736, 264 33.641, 264 32.543 C 264 31.107, 262.989 30.650, 257.250 29.495 C 254.679 28.978, 254 29.171, 254 30.421 M 304.568 31.206 C 303.789 32.319, 303.377 33.818, 303.653 34.537 C 304.734 37.356, 309.296 37.278, 310.391 34.423 C 311.892 30.511, 306.962 27.788, 304.568 31.206 M 132.251 38.114 C 128.716 40.378, 128.778 42.345, 132.356 41.447 C 134.392 40.936, 135.261 42.300, 142.227 56.943 C 150.488 74.308, 151.188 75, 156.375 70.920 C 159.311 68.610, 159.097 66.900, 155.975 67.717 C 154.207 68.179, 152.976 66.205, 146.251 52.123 C 141.244 41.639, 138.017 36.006, 137.025 36.017 C 136.186 36.026, 134.038 36.970, 132.251 38.114 M 296 40.878 C 296 41.361, 296.873 42.373, 297.940 43.128 C 299.832 44.465, 299.784 44.752, 296.051 54.500 C 291.856 65.452, 291.957 66.267, 297.722 67.920 C 301.567 69.023, 302.538 68.252, 300.348 65.832 C 298.796 64.118, 298.923 63.380, 302.346 54.151 C 304.356 48.733, 306 43.827, 306 43.248 C 306 42.087, 300.763 40, 297.851 40 C 296.833 40, 296 40.395, 296 40.878 M 320 49.671 C 320 50.040, 320.720 51.138, 321.600 52.111 C 323.083 53.750, 322.846 54.501, 318.355 62.397 C 314.519 69.142, 312.989 70.976, 311.005 71.211 C 308.654 71.489, 308.766 71.680, 312.826 74.314 C 319.552 78.678, 320.330 78.803, 319.619 75.400 C 319.151 73.163, 319.879 71.015, 322.803 66 C 326.300 60.004, 326.886 59.476, 330.367 59.185 C 338.240 58.529, 338.699 62.608, 332.015 73.858 C 329.807 77.575, 328 81.294, 328 82.123 C 328 83.337, 333.659 87, 335.534 87 C 336.588 87, 335.905 84.132, 334.750 83.707 C 333.840 83.372, 334.143 82.059, 335.866 78.874 C 342.887 65.898, 343.119 65.322, 342.427 62.565 C 341.580 59.190, 336.645 56.009, 332.250 56.004 C 329.779 56.001, 329 55.565, 329 54.185 C 329 53.092, 327.594 51.700, 325.466 50.685 C 321.711 48.894, 320 48.577, 320 49.671 M 111.304 65.250 C 105.595 69.305, 102.805 76.460, 107.183 75.820 C 108.598 75.612, 109.628 74.511, 110.113 72.686 C 111.145 68.806, 112.845 67, 115.467 67 C 117.559 67, 121 69.747, 121 71.416 C 121 71.834, 118.900 74.076, 116.333 76.400 C 112.550 79.826, 111.667 81.258, 111.667 83.971 C 111.667 87.581, 115.601 92.003, 118.806 91.996 C 121.443 91.990, 126.750 88.364, 127.478 86.069 C 127.897 84.748, 128.987 84, 130.491 84 C 133.162 84, 139.301 79.296, 138.442 77.906 C 138.110 77.370, 137.082 77.421, 135.942 78.031 C 134.277 78.922, 133.552 78.409, 130.753 74.356 C 124.245 64.932, 122.098 63, 118.132 63 C 115.942 63, 113.200 63.903, 111.304 65.250 M 211.500 74.078 C 159.968 81.117, 115.601 113.502, 93.530 160.188 C 69.172 211.709, 76.119 273.226, 111.395 318.403 C 124.188 334.786, 144.231 351.259, 162.712 360.579 C 170.278 364.395, 170.788 364.091, 168.726 357 C 167.778 353.737, 166.516 351.950, 164.135 350.500 C 143.554 337.963, 127.982 324.470, 116.660 309.363 C 105.430 294.379, 96.461 274.722, 91.855 255 C 88.993 242.742, 88.240 214.940, 90.411 201.703 C 95.111 173.057, 108.792 146.388, 129.500 125.502 C 157.797 96.962, 191.723 82.856, 231.842 82.948 C 267.245 83.030, 297.264 94.430, 325.258 118.423 C 347.209 137.237, 363.896 166.154, 370.626 197.040 C 373.245 209.057, 373.275 240.881, 370.679 253 C 367.928 265.849, 364.558 275.264, 357.976 288.500 C 338.467 327.731, 301.604 355.731, 257.816 364.578 C 252.838 365.584, 242.882 366.418, 233.014 366.657 L 216.528 367.055 212.745 370.749 C 209.012 374.394, 208.993 374.454, 211.231 375.326 C 215.267 376.898, 245.656 376.446, 256.203 374.657 C 281.404 370.383, 308.225 357.994, 328.019 341.484 C 373.483 303.564, 392.509 244.875, 377.994 187.327 C 370.898 159.192, 357.337 136.194, 335.323 114.966 C 322.871 102.958, 313.107 96.118, 297.500 88.472 C 276.121 77.998, 259.670 74.056, 235 73.496 C 225.925 73.290, 215.350 73.552, 211.500 74.078 M 119.742 77.538 C 118.234 78.937, 117 81.133, 117 82.418 C 117 87.636, 123.396 88.366, 126.028 83.448 C 127.228 81.206, 127.218 80.481, 125.961 78.252 C 123.960 74.702, 122.929 74.584, 119.742 77.538 M 357.500 78.208 C 354.677 79.827, 353.069 82.146, 353.032 84.651 C 353.011 86.031, 351.744 87.543, 349.500 88.867 C 347.575 90.003, 346 91.398, 346 91.966 C 346 92.535, 345.100 93, 344 93 C 341.053 93, 338 96.561, 338 99.997 C 338 103.802, 343.416 109.982, 348.930 112.468 C 352.295 113.986, 353.397 114.078, 355.879 113.050 C 357.501 112.378, 359.355 110.558, 359.998 109.005 C 361.444 105.513, 360.411 103.209, 354.767 97.343 C 349.684 92.062, 350.586 89.963, 356.193 94.025 C 362.130 98.326, 366.799 98.132, 370.941 93.415 C 373.559 90.433, 374.341 90.038, 375.587 91.072 C 376.699 91.995, 377.375 92.025, 378.213 91.187 C 379.050 90.350, 378.073 88.836, 374.421 85.312 C 365.684 76.883, 362.293 75.459, 357.500 78.208 M 359.174 83.314 C 356.520 86.140, 356.391 89.139, 358.829 91.345 C 361.374 93.648, 364.266 93.410, 366.826 90.686 C 369.480 87.860, 369.609 84.861, 367.171 82.655 C 364.626 80.352, 361.734 80.590, 359.174 83.314 M 85.967 86.371 C 85.160 87.010, 83.668 88.509, 82.652 89.703 C 80.381 92.371, 81.254 94.483, 83.936 92.808 C 85.502 91.830, 86.625 92.379, 91.404 96.462 C 97.635 101.786, 99.055 105.025, 96.870 108.931 C 94.538 113.100, 91.381 112.773, 86.122 107.819 C 83.580 105.425, 80.037 102.152, 78.250 100.546 L 75 97.626 72 100.500 C 70.350 102.081, 69 103.965, 69 104.687 C 69 106.278, 71.188 106.412, 72.688 104.912 C 73.472 104.128, 75.777 105.711, 80.936 110.579 C 90.741 119.828, 94.992 119.761, 99.191 110.292 C 100.375 107.622, 101.545 106.272, 102.393 106.597 C 103.701 107.099, 109 101.747, 109 99.923 C 109 98.722, 106.671 98.733, 105.450 99.939 C 104.855 100.527, 101.315 97.954, 95.967 93.044 C 89.021 86.667, 87.161 85.426, 85.967 86.371 M 343.571 98.571 C 341.283 100.860, 341.573 101.808, 345.882 106.118 C 350.101 110.337, 352.006 110.852, 354.429 108.429 C 356.777 106.080, 356.368 104.435, 352.467 100.533 C 348.629 96.696, 346.022 96.121, 343.571 98.571 M 221.242 100.151 C 157.139 104.662, 105.972 159.378, 106.006 223.381 C 106.019 248.443, 112.164 270.656, 124.607 290.619 C 127.763 295.683, 129.551 297.726, 130.079 296.873 C 130.510 296.175, 130.874 284.927, 130.887 271.876 C 130.906 253.912, 131.250 247.340, 132.303 244.824 C 133.651 241.602, 140.370 234.710, 143.024 233.825 C 144.025 233.492, 144.351 229.537, 144.416 216.945 L 144.500 200.500 152 200.500 L 159.500 200.500 159.795 217 L 160.090 233.500 163.813 235.804 C 168.789 238.885, 171.759 243.457, 172.986 249.929 C 173.569 252.999, 174 272.885, 174 296.669 L 174 338.065 179.666 360.032 C 182.782 372.115, 185.647 382, 186.033 382 C 187.564 382, 219.547 350.932, 220.220 348.790 C 220.616 347.531, 221.970 323.600, 223.229 295.610 L 225.517 244.720 222.009 242.469 C 216.748 239.094, 212.373 234.087, 209.801 228.500 C 207.571 223.654, 207.491 222.489, 207.199 190.750 L 206.899 158 210.449 158 L 214 158 214 185.025 L 214 212.050 216.584 213.032 C 218.005 213.572, 219.580 213.760, 220.084 213.448 C 220.603 213.127, 221 200.956, 221 185.378 L 221 157.873 224.250 158.187 L 227.500 158.500 228 186 L 228.500 213.500 231.234 213.815 L 233.968 214.130 234.234 186.315 L 234.500 158.500 237.750 158.187 L 241 157.873 241 185.378 C 241 200.956, 241.397 213.127, 241.916 213.448 C 242.420 213.760, 243.995 213.572, 245.416 213.032 L 248 212.050 248 185.025 L 248 158 251.551 158 L 255.101 158 254.801 190.750 C 254.509 222.489, 254.429 223.654, 252.199 228.500 C 249.626 234.090, 245.251 239.094, 239.982 242.475 L 236.464 244.732 238.669 291.616 C 239.882 317.402, 240.902 340.863, 240.937 343.750 L 241 349 244.750 348.978 C 253.633 348.927, 274.206 342.900, 286.500 336.747 C 293.573 333.208, 306.185 325.223, 307.235 323.621 C 307.639 323.005, 307.976 317.243, 307.985 310.817 C 307.999 299.565, 307.917 299.110, 305.750 298.451 C 301.879 297.276, 296.847 292.877, 295.394 289.400 C 294.412 287.050, 294 281.623, 294 271.032 L 294 256 310 256 L 326 256 326 271.550 C 326 288.060, 325.487 290.361, 320.845 294.683 C 319.555 295.884, 317.262 297.336, 315.750 297.909 L 313 298.950 313 309.194 L 313 319.437 319.082 313.469 C 342.222 290.760, 356.012 258.127, 355.994 226.119 C 355.953 151.701, 295.239 94.945, 221.242 100.151 M 407.513 110.979 C 407.180 111.518, 407.347 112.780, 407.884 113.783 C 408.421 114.787, 408.554 116.064, 408.180 116.622 C 407.298 117.937, 385.523 131, 384.213 131 C 383.663 131, 382.955 130.325, 382.638 129.500 C 381.957 127.724, 379 127.472, 379 129.190 C 379 131.188, 387.266 144.195, 391.090 148.215 C 394.001 151.276, 395.405 152, 398.422 152 C 402.896 152, 408 147.577, 408 143.700 C 408 141.403, 408.273 141.276, 412.261 141.726 C 415.916 142.138, 416.910 141.817, 419.261 139.467 C 423.928 134.799, 422.992 130.300, 414.753 117.812 C 409.616 110.025, 408.660 109.123, 407.513 110.979 M 57.241 120.250 C 51.946 125.901, 50.573 132.573, 54 136 C 56.854 138.854, 59.822 138.491, 66.046 134.526 C 69.046 132.615, 72.279 131.040, 73.231 131.026 C 76.017 130.984, 76.626 135.692, 74.242 138.837 C 72.605 140.997, 71.541 141.445, 68.612 141.207 C 64.394 140.864, 64.086 141.793, 67.387 144.894 L 69.775 147.137 73.276 144.062 C 77.058 140.742, 80 135.488, 80 132.053 C 80 129.404, 75.756 125, 73.202 125 C 72.163 125, 68.554 126.853, 65.182 129.117 C 58.702 133.468, 56 133.655, 56 129.754 C 56 126.053, 58.846 122.745, 61.464 123.402 C 64.755 124.228, 65.317 122.966, 62.835 120.324 C 60.143 117.459, 59.859 117.455, 57.241 120.250 M 406.668 124.996 L 401.944 127.991 403.466 130.935 C 407.622 138.972, 417 138.723, 417 130.576 C 417 127.447, 414.129 122, 412.480 122 C 411.881 122, 409.266 123.348, 406.668 124.996 M 393 133.110 C 390.525 134.729, 388.343 136.515, 388.150 137.077 C 387.517 138.926, 392.950 145.949, 395.509 146.592 C 398.681 147.388, 402.752 144.834, 403.582 141.529 C 404.214 139.012, 400.502 130.888, 398.500 130.406 C 397.950 130.274, 395.475 131.490, 393 133.110 M 38.616 156.045 C 35.042 160.293, 33.352 166.282, 34.819 169.503 C 36.024 172.147, 36.738 172.453, 38.738 171.183 C 39.718 170.561, 39.721 169.721, 38.754 167.160 C 37.739 164.470, 37.795 163.465, 39.083 161.212 C 40.311 159.064, 41.310 158.532, 43.888 158.655 C 45.679 158.741, 47.387 159.054, 47.684 159.351 C 47.982 159.648, 47.499 162.021, 46.612 164.624 C 44.402 171.110, 44.583 173.674, 47.455 176.545 C 49.853 178.944, 53.204 179.626, 56.455 178.379 C 58.690 177.521, 61 172.733, 61 168.960 C 61 167.043, 61.778 165.174, 62.997 164.160 C 65.400 162.162, 66.902 156, 64.985 156 C 64.290 156, 63.221 156.637, 62.610 157.416 C 61.670 158.614, 60.353 158.384, 54.016 155.916 C 44.386 152.164, 41.864 152.185, 38.616 156.045 M 419.380 161.452 C 418.676 163.287, 419.701 165, 421.502 165 C 423.360 165, 426 168.912, 426 171.666 C 426 173.675, 422.736 177, 420.765 177 C 420.330 177, 418.792 174.504, 417.348 171.454 C 414.161 164.723, 410.737 162.498, 406.069 164.126 C 400.484 166.073, 399.208 172.716, 403.450 177.758 C 405.009 179.611, 405.705 181.413, 405.364 182.718 C 404.780 184.951, 407.454 191, 409.026 191 C 409.562 191, 410 189.966, 410 188.703 C 410 186.736, 411.172 185.981, 418.154 183.453 C 428.835 179.585, 430.957 177.033, 429.145 170.238 C 427.231 163.060, 420.936 157.396, 419.380 161.452 M 51.107 162.372 C 48.927 164.997, 48.630 169.934, 50.525 172.027 C 51.507 173.112, 52.883 174, 53.584 174 C 55.910 174, 58 170.902, 58 167.454 C 58 164.711, 57.438 163.761, 55.101 162.552 C 52.711 161.316, 52.009 161.285, 51.107 162.372 M 406.200 170.200 C 404.368 172.032, 404.759 174.608, 407.321 177.587 C 409.355 179.952, 410.005 180.165, 412.571 179.310 C 416.224 178.093, 416.573 176.399, 414.025 172.250 C 411.926 168.832, 408.473 167.927, 406.200 170.200 M 16.851 189.604 C 14.041 195.957, 13.959 205.121, 16.680 208.795 C 19.721 212.900, 24.542 215.763, 30.494 216.999 C 41.213 219.224, 49.549 214.257, 51.952 204.215 C 53.615 197.265, 52.623 190, 50.011 190 C 48.348 190, 48.206 190.596, 48.708 195.464 C 49.793 205.976, 45.542 211.014, 35.615 210.978 C 24.692 210.939, 18 206.286, 18 198.732 C 18 194.664, 21.447 190, 24.455 190 C 25.305 190, 26 189.352, 26 188.559 C 26 186.874, 25.466 186.508, 21.707 185.608 C 19.127 184.991, 18.756 185.296, 16.851 189.604 M 433.666 198.829 C 434.357 201.471, 433.705 201.735, 423.107 203.094 C 416.204 203.979, 413.590 203.990, 412.739 203.139 C 410.551 200.951, 409.882 202.036, 410.513 206.750 C 411.521 214.279, 411.857 214.840, 413.812 212.254 C 415.706 209.748, 425.503 207.410, 429.283 208.561 C 434.242 210.072, 436.974 215.305, 433.500 216.638 C 430.613 217.746, 432.034 219.118, 435.750 218.810 C 439.236 218.522, 439.485 218.288, 439.294 215.500 C 439.156 213.503, 437.999 211.581, 435.831 209.750 C 432.814 207.201, 432.740 207, 434.819 207 C 436.053 207, 437.258 206.438, 437.497 205.750 C 438.313 203.405, 436.448 197.517, 434.789 197.198 C 433.607 196.970, 433.297 197.420, 433.666 198.829 M 73.514 352.168 C 71.998 353.360, 70.136 355.824, 69.375 357.644 C 67.711 361.628, 68.855 365.698, 73.809 373.418 C 76.205 377.152, 76.699 378.658, 75.860 379.668 C 75.252 380.401, 74.326 381, 73.801 381 C 71.838 381, 67 375.082, 67 372.682 C 67 370.511, 66.483 370.155, 62.750 369.761 C 60.413 369.514, 58.163 369.493, 57.750 369.715 C 56.476 370.400, 56.923 377.950, 58.405 380.800 C 63.120 389.863, 75.419 393.884, 81.857 388.467 C 88.034 383.270, 88.077 377.131, 82.003 368 C 78.511 362.751, 78.146 360, 80.943 360 C 83.085 360, 86 363.511, 86 366.092 C 86 367.582, 90.125 368.948, 94.750 368.989 C 96.561 369.005, 96.321 362.478, 94.357 358.340 C 90.702 350.638, 79.627 347.359, 73.514 352.168 M 371.810 354.842 C 367.888 356.841, 355.404 365.537, 354.610 366.822 C 354.087 367.669, 376.448 399.294, 377.928 399.801 C 378.412 399.967, 382.688 397.328, 387.430 393.936 C 397.981 386.389, 401.143 381.698, 401.143 373.592 C 401.143 370.520, 400.402 366.542, 399.460 364.558 C 397.589 360.613, 392.086 355.363, 388.324 353.933 C 384.235 352.378, 375.723 352.847, 371.810 354.842 M 372.732 365.536 C 370.679 366.931, 369 368.622, 369 369.294 C 369 370.725, 379.896 386, 380.917 386 C 382.321 386, 388.494 380.882, 389.693 378.725 C 392.040 374.500, 391.292 370.092, 387.600 366.400 C 383.273 362.073, 378.257 361.782, 372.732 365.536 M 108.408 369.150 C 106.217 372.694, 91 402.926, 91 403.733 C 91 405.117, 98.614 408.357, 99.940 407.537 C 100.553 407.159, 102.903 403.171, 105.163 398.676 C 109.962 389.131, 110.394 389.465, 111.472 403.549 C 111.849 408.472, 112.378 413.292, 112.649 414.261 C 113.125 415.961, 117.804 419, 119.945 419 C 120.519 419, 125.046 410.896, 130.004 400.991 L 139.019 382.982 135.760 380.995 C 133.967 379.902, 131.811 379.006, 130.969 379.004 C 130.058 379.002, 127.926 382.057, 125.703 386.549 C 123.649 390.701, 121.579 393.858, 121.103 393.564 C 120.628 393.270, 119.932 389.086, 119.556 384.265 C 118.655 372.703, 118.495 372.293, 113.967 369.983 C 109.417 367.662, 109.335 367.650, 108.408 369.150 M 332.771 377.550 L 322.041 382.997 323.249 385.748 C 323.914 387.262, 327.058 393.811, 330.237 400.302 C 333.416 406.794, 336.665 413.656, 337.457 415.552 C 338.250 417.449, 339.561 419, 340.372 419 C 343.033 419, 363 409.103, 362.996 407.786 C 362.994 407.079, 362.096 405.030, 361.001 403.233 L 359.009 399.967 353.033 402.983 C 346.259 406.403, 344.473 406.675, 343.607 404.418 C 342.383 401.229, 343.103 400.202, 348.050 398.074 C 353.845 395.581, 354.719 394.150, 352.993 389.982 C 351.548 386.495, 350.064 386.334, 344.141 389.022 C 341.743 390.110, 339.204 391, 338.498 391 C 337.428 391, 336 388.961, 336 387.433 C 336 387.211, 338.813 385.619, 342.250 383.896 C 345.688 382.173, 348.683 380.596, 348.906 380.392 C 349.672 379.693, 345.698 372, 344.598 372.052 C 343.994 372.080, 338.672 374.554, 332.771 377.550 M 305.037 389.110 C 301.634 390.468, 301.699 390.157, 303.513 396.397 C 304.411 399.484, 305 402.750, 304.822 403.654 C 304.611 404.732, 302.263 405.918, 298 407.101 C 290.325 409.230, 289.992 409.009, 288.096 400.538 C 286.747 394.512, 285.960 394.072, 280.149 396.098 C 278.417 396.702, 277 397.834, 277 398.614 C 277 400.990, 286.267 434.005, 287.489 435.982 C 288.100 436.970, 296.275 434.675, 296.702 433.395 C 296.869 432.892, 296.163 429.438, 295.132 425.720 C 294.101 422.001, 293.537 418.791, 293.879 418.585 C 295.202 417.788, 305.451 415, 307.059 415 C 308.321 415, 309.225 416.816, 310.597 422.106 L 312.440 429.211 316.930 428.596 C 319.399 428.258, 321.722 427.648, 322.092 427.240 C 322.668 426.606, 320.296 417.284, 313.441 393.250 C 311.834 387.615, 310.468 386.942, 305.037 389.110 M 159.269 392.328 C 155.539 396.518, 136 423.770, 136 424.782 C 136 425.905, 141.258 428, 144.077 428 C 145.055 428, 146.781 426.823, 147.912 425.385 L 149.969 422.770 156.376 424.504 C 162.611 426.192, 162.799 426.339, 163.388 430.024 C 163.938 433.464, 164.420 433.955, 168.666 435.402 C 171.236 436.278, 173.576 436.757, 173.866 436.468 C 174.522 435.812, 171.507 394.174, 170.749 393.416 C 170.445 393.112, 168.173 392.254, 165.699 391.510 C 161.458 390.233, 161.092 390.280, 159.269 392.328 M 189.712 402.108 C 189.049 407.057, 189.829 407.962, 194.781 407.985 C 196.759 407.994, 198.291 408.594, 198.636 409.494 C 198.951 410.316, 198.451 417.330, 197.525 425.081 C 196.599 432.833, 195.989 439.303, 196.171 439.459 C 196.674 439.894, 205.990 441.166, 206.071 440.811 C 206.110 440.640, 206.900 433.750, 207.826 425.500 L 209.511 410.500 214.676 410.200 L 219.841 409.901 220.520 405.883 C 220.893 403.673, 220.982 401.648, 220.717 401.383 C 220.451 401.118, 216.244 400.482, 211.367 399.970 C 206.490 399.457, 199.754 398.749, 196.398 398.396 L 190.296 397.754 189.712 402.108 M 239.842 402.021 C 225.569 409.561, 224.752 430.496, 238.418 438.505 C 247.532 443.846, 257.586 442.677, 264.828 435.435 C 267.228 433.036, 269.027 430.581, 268.826 429.979 C 268.626 429.378, 266.602 428.054, 264.329 427.036 L 260.196 425.186 257.458 428.044 C 255.951 429.616, 253.479 431.175, 251.963 431.508 C 248.033 432.371, 242.426 429.725, 240.566 426.128 C 237.988 421.142, 238.549 417.251, 242.400 413.400 C 246.701 409.099, 252.288 408.695, 256.673 412.368 L 259.500 414.735 263.313 412.313 C 268.174 409.226, 267.835 407.407, 261.627 403.250 C 257.339 400.378, 256.001 400.005, 250.137 400.044 C 245.575 400.075, 242.356 400.693, 239.842 402.021 M 158.615 410.465 C 156.373 413.886, 156.591 415, 159.500 415 C 161.690 415, 162 414.567, 162 411.500 C 162 407.387, 160.860 407.039, 158.615 410.465" stroke="none" fill="#000000" fill-rule="evenodd"/>
</svg>