<svg xmlns="http://www.w3.org/2000/svg" width="500" height="500" viewBox="0 0 500 500" version="1.1">
	<path d="M 219.106 102.392 C 215.950 105.608, 214.962 107.305, 215.416 108.735 C 216.094 110.871, 201.264 153.032, 197.735 159 C 196.596 160.925, 193.536 165.425, 190.935 169 C 183.076 179.799, 181.406 184.556, 173.096 219.821 C 166.744 246.773, 164.854 253.414, 163.204 254.570 C 155.977 259.632, 155.049 271.181, 161.528 275.427 C 164.229 277.196, 214.035 289, 218.801 289 C 221.356 289, 223.074 288.126, 225.719 285.481 C 229.112 282.088, 229.222 281.746, 228.799 275.902 C 228.558 272.568, 227.821 269.507, 227.161 269.099 C 226.272 268.550, 227.928 260.083, 233.551 236.429 C 237.726 218.868, 241.396 201.285, 241.707 197.356 C 242.073 192.729, 241.643 186.196, 240.485 178.811 L 238.697 167.410 241.507 142.455 C 243.274 126.766, 244.816 116.914, 245.659 115.921 C 247.504 113.749, 247.346 112.286, 244.637 106.467 L 242.293 101.435 234.897 99.705 C 230.829 98.753, 226.581 97.980, 225.458 97.987 C 224.335 97.994, 221.477 99.976, 219.106 102.392 M 226 104.903 C 226 105.296, 228.963 106.326, 232.584 107.192 C 236.205 108.058, 238.792 108.406, 238.334 107.964 C 237.140 106.813, 226 104.049, 226 104.903 M 220.667 116.388 C 219.781 119.199, 219.015 121.950, 218.965 122.500 C 218.916 123.050, 222.906 124.444, 227.832 125.597 L 236.788 127.693 237.383 124.097 C 237.710 122.119, 237.983 119.280, 237.989 117.789 C 238.001 114.924, 237.325 114.597, 226.389 112.183 L 222.279 111.275 220.667 116.388 M 216.070 129.377 C 215.638 130.544, 214.321 134.104, 213.143 137.288 C 210.445 144.575, 210.459 145.784, 213.250 146.180 C 214.725 146.390, 215.500 147.187, 215.500 148.496 C 215.500 150.194, 214.939 150.445, 211.750 150.170 C 209.140 149.945, 207.999 150.250, 207.997 151.173 C 207.991 153.585, 201.457 165.375, 195.774 173.228 C 192.699 177.479, 189.433 182.918, 188.517 185.316 C 187.602 187.713, 183.347 204.486, 179.062 222.587 L 171.271 255.500 174.228 256.143 C 177.942 256.950, 179.290 258.271, 178.819 260.644 C 178.417 262.665, 175.390 262.960, 168.958 261.603 C 165.837 260.944, 165.259 261.147, 164.102 263.309 C 163.380 264.658, 163.091 266.711, 163.459 267.872 C 164.252 270.371, 165.786 270.839, 196.786 278.057 C 218.249 283.054, 219.144 283.180, 221.036 281.468 C 223.255 279.460, 223.628 275.718, 221.750 274.302 C 221.063 273.784, 215.775 272.300, 210 271.004 C 204.225 269.708, 198.713 268.261, 197.750 267.789 C 195.713 266.789, 195.404 263.166, 197.294 262.441 C 198.006 262.168, 203.283 263.054, 209.022 264.410 C 214.762 265.767, 219.569 266.764, 219.706 266.627 C 220.373 265.960, 235.074 202.218, 235.608 197.681 C 235.973 194.568, 235.526 187.952, 234.499 181.280 C 233.539 175.051, 232.945 166.760, 233.157 162.565 L 233.537 155.033 226.192 153.399 C 219.514 151.914, 216.636 150.031, 218.379 148.287 C 218.724 147.943, 222.267 148.363, 226.253 149.221 C 230.998 150.242, 233.718 150.433, 234.131 149.774 C 235.038 148.326, 236.271 132.938, 235.538 132.205 C 235.200 131.867, 230.858 130.614, 225.889 129.422 L 216.854 127.253 216.070 129.377 M 278.184 132.900 C 275.665 135.482, 275.184 136.501, 276.184 137.135 C 276.908 137.594, 277.847 137.976, 278.271 137.985 C 278.696 137.993, 279.555 139.124, 280.181 140.497 L 281.318 142.994 282.427 140.747 C 283.037 139.511, 284.540 138.056, 285.768 137.513 C 288.326 136.382, 288.720 135, 286.485 135 C 285.652 135, 284.190 133.762, 283.235 132.250 L 281.500 129.500 278.184 132.900 M 170.486 137.146 C 169.807 139.455, 168.372 141.104, 165.878 142.439 L 162.256 144.379 165.378 145.939 C 167.095 146.798, 169.232 148.965, 170.126 150.756 L 171.753 154.011 172.977 151.054 C 174.300 147.862, 177.847 145.049, 180.715 144.919 C 182.023 144.859, 181.805 144.526, 179.896 143.669 C 176.030 141.934, 173.997 139.978, 172.665 136.714 L 171.472 133.791 170.486 137.146 M 277.142 165.159 C 273.080 167.169, 267.003 173.903, 266.997 176.400 C 266.996 177.005, 265.322 178.400, 263.278 179.500 C 257.735 182.483, 255 187.180, 255 193.714 C 255 199.785, 255.933 202.117, 260.142 206.570 C 262.613 209.184, 264.360 214.310, 271.905 241.070 C 279.151 266.770, 280.534 272.748, 279.489 273.859 C 278.451 274.963, 278.500 276.274, 279.755 280.859 C 280.604 283.961, 281.852 287.105, 282.528 287.843 C 283.548 288.957, 288.837 287.762, 313.498 280.843 C 329.855 276.255, 343.458 271.935, 343.728 271.244 C 343.998 270.553, 343.428 267.065, 342.461 263.494 C 341.180 258.763, 340.245 257, 339.016 257 C 337.825 257, 336.883 255.397, 335.813 251.552 L 334.297 246.105 341.041 244.056 C 349.734 241.416, 354.001 237.022, 353.997 230.715 C 353.995 226.255, 346.961 199.760, 344.534 195.066 C 341.488 189.175, 335.435 187.389, 326.183 189.654 C 322.709 190.504, 319.657 190.990, 319.400 190.733 C 319.142 190.476, 319.382 188.257, 319.932 185.802 C 322.638 173.729, 312.230 163.192, 299.869 165.492 C 297.752 165.886, 295.119 165.539, 292.782 164.559 C 287.646 162.405, 282.291 162.610, 277.142 165.159 M 278.984 169.863 C 274.221 172.410, 271.532 177.313, 271.514 183.482 C 271.503 187.429, 271.135 188.542, 269.753 188.809 C 268.624 189.026, 267.662 188.242, 267.035 186.592 C 265.838 183.443, 263.541 184.053, 261.463 188.072 C 259.426 192.010, 259.606 198.292, 261.835 201.045 C 263.494 203.093, 263.993 203.198, 267.032 202.139 C 271.477 200.589, 272.133 201.401, 275.005 212 C 276.272 216.675, 277.681 220.920, 278.137 221.433 C 280.269 223.832, 280.025 220.218, 277.428 210.920 C 274.635 200.918, 274.622 200.749, 276.547 199.341 C 277.621 198.554, 280.056 198.044, 281.958 198.205 C 285.146 198.477, 285.499 198.846, 286.488 202.927 C 287.753 208.152, 290.708 210.213, 289.652 205.134 C 289.293 203.410, 288.724 200.677, 288.387 199.061 C 287.790 196.198, 287.926 196.079, 293.637 194.486 C 296.862 193.586, 300.850 192.459, 302.500 191.981 C 304.150 191.503, 307.380 190.628, 309.679 190.037 C 313.182 189.135, 314.043 188.398, 315.006 185.481 C 317.223 178.766, 312.825 171.808, 305.496 170.433 C 301.173 169.622, 295.383 172.358, 293.430 176.135 C 291.823 179.242, 291.279 179.472, 289 178.002 C 287.698 177.163, 287.793 176.517, 289.718 173.125 L 291.935 169.216 289.718 168.622 C 285.814 167.575, 282.559 167.952, 278.984 169.863 M 276.923 173.923 C 275.205 175.641, 274 177.908, 274 179.423 C 274 183.031, 275.709 182.633, 277.379 178.635 C 278.325 176.371, 279.826 174.908, 281.967 174.161 C 283.718 173.551, 284.865 172.590, 284.516 172.026 C 283.336 170.117, 279.861 170.985, 276.923 173.923 M 300.750 173.080 C 297.844 174.772, 298.772 175.995, 302.840 175.835 C 307.413 175.656, 308.818 176.390, 310.037 179.597 C 311.216 182.700, 313 182.695, 313 179.589 C 313 176.691, 307.817 171.986, 304.673 172.030 C 303.478 172.047, 301.712 172.519, 300.750 173.080 M 262.378 190.545 C 260.968 192.698, 260.891 193.694, 261.883 197.003 C 263.192 201.374, 264.644 202.756, 266.245 201.155 C 267.005 200.395, 266.941 199.634, 266.024 198.528 C 265.158 197.486, 264.935 195.491, 265.347 192.486 C 266.041 187.423, 264.909 186.683, 262.378 190.545 M 325.010 194.891 C 321.991 195.823, 320.026 196.898, 320.644 197.280 C 321.262 197.662, 323.957 197.310, 326.634 196.498 C 337.023 193.346, 337.864 194.257, 343.594 214.859 L 348.144 231.217 345.893 233.614 C 344.654 234.932, 341.247 236.766, 338.321 237.688 C 335.394 238.611, 333 239.733, 333 240.183 C 333 241.232, 332.730 241.267, 339.068 239.403 C 344.613 237.772, 347.449 235.899, 349.131 232.756 C 349.808 231.491, 348.771 226.242, 345.472 214.245 C 339.395 192.144, 338.045 190.867, 325.010 194.891 M 303.500 196.761 C 298.550 198.159, 294.329 199.444, 294.119 199.616 C 293.910 199.788, 294.177 201.657, 294.713 203.769 C 295.948 208.635, 294.810 211.741, 291.305 213.074 C 287.242 214.619, 284.345 212.885, 282.894 208.040 C 282.226 205.811, 281.495 204.172, 281.269 204.398 C 281.043 204.624, 281.790 207.938, 282.929 211.762 C 284.068 215.587, 285 219.835, 285 221.203 C 285 227.036, 276.403 229.308, 273.468 224.250 C 272.591 222.738, 272.052 222.175, 272.272 223 C 272.492 223.825, 275.558 234.990, 279.086 247.812 C 285.369 270.647, 285.550 271.114, 287.937 270.665 C 291.228 270.045, 293 270.854, 293 272.977 C 293 274.215, 291.652 275.118, 288.476 276.007 C 284.558 277.104, 284.037 277.557, 284.588 279.387 C 284.938 280.549, 285.546 281.850, 285.939 282.277 C 286.332 282.704, 298.207 279.805, 312.327 275.835 C 336.518 269.033, 338 268.481, 338 266.277 C 338 262.994, 335.980 262.573, 329.406 264.484 C 324.735 265.842, 323.554 265.903, 322.869 264.821 C 321.461 262.597, 322.432 261.560, 327.314 260.074 C 329.891 259.289, 332.009 258.164, 332.020 257.574 C 332.075 254.697, 314.367 194.021, 313.500 194.113 C 312.950 194.171, 308.450 195.363, 303.500 196.761 M 327 201.406 C 323.412 202.388, 322.569 203.030, 322.839 204.569 C 323.904 210.631, 330.914 233.471, 331.800 233.767 C 332.989 234.163, 339.889 232.397, 341.669 231.241 C 343.323 230.167, 334.968 200.572, 332.945 200.340 C 332.150 200.249, 329.475 200.729, 327 201.406 M 195.163 203.528 C 191.420 205.153, 191.378 207.655, 195.101 207.219 C 208.211 205.684, 208.801 205.718, 213.343 208.256 C 218.215 210.979, 221.522 210.539, 219.003 207.503 C 214.771 202.404, 202.472 200.353, 195.163 203.528 M 311.554 205.913 C 310.656 207.366, 313.631 218.154, 315.196 219.122 C 315.949 219.587, 317.036 219.392, 317.769 218.659 C 318.794 217.634, 318.691 216.250, 317.230 211.451 C 315.504 205.781, 313.090 203.427, 311.554 205.913 M 268.079 208.583 C 268.127 209.748, 268.364 209.985, 268.683 209.188 C 268.972 208.466, 268.936 207.603, 268.604 207.271 C 268.272 206.939, 268.036 207.529, 268.079 208.583 M 186.082 211.368 C 183.633 215.329, 183.354 219, 185.500 219 C 186.325 219, 187 218.613, 187 218.140 C 187 217.666, 188.132 215.610, 189.517 213.571 C 190.901 211.531, 191.774 209.443, 191.458 208.931 C 190.311 207.077, 188.120 208.070, 186.082 211.368 M 220.464 214.250 C 222.288 222.826, 222.189 227.709, 220.108 231.789 C 217.179 237.530, 212.821 240.313, 205.987 240.807 C 197.108 241.450, 189.151 236.305, 187.629 228.939 C 187.352 227.598, 186.864 225.262, 186.544 223.750 C 185.967 221.022, 183.109 219.851, 182.882 222.250 C 182.083 230.676, 186.995 238.892, 195.432 243.242 C 205.336 248.348, 218.572 243.521, 224.092 232.790 C 227.583 226.002, 225.756 211, 221.438 211 C 220.084 211, 219.902 211.608, 220.464 214.250 M 269.079 212.583 C 269.127 213.748, 269.364 213.985, 269.683 213.188 C 269.972 212.466, 269.936 211.603, 269.604 211.271 C 269.272 210.939, 269.036 211.529, 269.079 212.583 M 270 216 C 270 216.733, 270.300 217.033, 270.667 216.667 C 271.033 216.300, 271.033 215.700, 270.667 215.333 C 270.300 214.967, 270 215.267, 270 216 M 271.079 219.583 C 271.127 220.748, 271.364 220.985, 271.683 220.188 C 271.972 219.466, 271.936 218.603, 271.604 218.271 C 271.272 217.939, 271.036 218.529, 271.079 219.583 M 316.430 223.321 C 315.993 224.460, 321.565 246.952, 323.679 252.582 C 323.913 253.204, 320.569 254.623, 315.792 255.928 C 306.672 258.420, 304.847 259.437, 305.666 261.573 C 306.422 263.542, 308.088 263.368, 319 260.184 C 327.489 257.707, 328.525 257.151, 328.734 254.956 C 328.862 253.605, 327.037 245.751, 324.678 237.503 C 321.493 226.363, 319.953 222.422, 318.692 222.179 C 317.758 221.999, 316.740 222.513, 316.430 223.321 M 190.535 227.943 C 188.919 230.558, 196.062 237.546, 201.370 238.542 C 205.315 239.282, 212.261 237.595, 214.026 235.469 C 216.046 233.035, 214.293 232.527, 210.648 234.490 C 205.228 237.409, 199.381 236.133, 194.832 231.036 C 192.806 228.767, 190.882 227.382, 190.535 227.943 M 182.634 259.185 C 179.893 260.719, 180.682 263.693, 184.149 264.902 C 191.068 267.314, 196.504 265.075, 192.777 261.349 C 190.776 259.347, 184.671 258.045, 182.634 259.185 M 312.083 264.086 C 304.759 266.195, 303.668 266.971, 304.603 269.407 C 305.322 271.281, 305.838 271.236, 315.813 268.411 C 320.300 267.141, 321.078 266.576, 320.813 264.782 C 320.399 261.972, 319.637 261.912, 312.083 264.086 M 295.441 269.439 C 293.685 270.741, 293.648 271.028, 295.053 272.456 C 297.160 274.597, 303 272.721, 303 269.902 C 303 267.550, 298.372 267.266, 295.441 269.439 M 252.588 280.506 C 251.689 281.878, 250.177 283.030, 249.227 283.068 C 247.788 283.124, 247.844 283.302, 249.560 284.136 C 250.692 284.686, 252.368 286.343, 253.283 287.818 C 254.540 289.844, 254.953 290.068, 254.973 288.735 C 254.988 287.765, 256.462 286.079, 258.250 284.989 C 260.273 283.756, 260.867 283.006, 259.823 283.004 C 258.900 283.002, 257.262 281.878, 256.184 280.506 L 254.222 278.012 252.588 280.506 M 169.975 300.565 C 168.873 303.464, 168.701 308.058, 169.607 310.418 C 170.275 312.158, 175 312.629, 175 310.956 C 175 310.382, 174.213 310.045, 173.250 310.206 C 171.820 310.446, 171.444 309.629, 171.195 305.740 C 170.966 302.164, 171.275 300.832, 172.439 300.385 C 173.291 300.058, 173.740 299.388, 173.435 298.895 C 172.425 297.261, 170.963 297.967, 169.975 300.565 M 182.735 298.622 C 182.209 299.473, 180 310.477, 180 312.243 C 180 312.724, 180.450 312.840, 181 312.500 C 181.550 312.160, 182 311.009, 182 309.941 C 182 308.873, 182.450 308, 183 308 C 183.550 308, 184 308.648, 184 309.441 C 184 310.234, 184.489 311.184, 185.086 311.553 C 185.850 312.025, 185.962 310.484, 185.464 306.362 C 184.720 300.197, 183.644 297.148, 182.735 298.622 M 191.990 300.018 C 190.512 302.780, 191.394 305, 193.969 305 C 195.456 305, 196 305.654, 196 307.441 C 196 310.323, 194.131 311.831, 192.943 309.907 C 192.484 309.165, 191.814 308.852, 191.454 309.212 C 190.386 310.281, 191.971 312, 194.024 312 C 198.175 312, 198.998 304.756, 194.967 303.702 C 193.885 303.419, 193 302.470, 193 301.594 C 193 299.710, 195.584 299.449, 196.399 301.250 C 196.710 301.938, 196.855 301.605, 196.721 300.511 C 196.382 297.749, 193.373 297.435, 191.990 300.018 M 203.202 304.651 C 203.453 310.407, 203.795 311.536, 205.380 311.838 C 206.414 312.035, 207.645 311.590, 208.115 310.848 C 209.312 308.959, 209.216 299, 208 299 C 207.450 299, 207 301.448, 207 304.441 C 207 307.434, 206.550 310.160, 206 310.500 C 205.376 310.886, 205 308.863, 205 305.118 C 205 301.818, 204.529 298.827, 203.952 298.471 C 203.251 298.037, 203.003 300.079, 203.202 304.651 M 216.666 299 C 216.160 300.421, 214 310.589, 214 311.549 C 214 311.797, 214.450 312, 215 312 C 215.550 312, 216 311.100, 216 310 C 216 308.900, 216.450 308, 217 308 C 217.550 308, 218 308.648, 218 309.441 C 218 310.234, 218.500 311.191, 219.111 311.569 C 219.907 312.061, 220.013 310.729, 219.485 306.878 C 218.547 300.042, 217.418 296.888, 216.666 299 M 226.196 304.750 C 226.008 311.690, 226.096 311.995, 228.250 311.884 C 229.873 311.800, 230.024 311.643, 228.794 311.319 C 227.449 310.965, 227.015 309.458, 226.740 304.185 L 226.392 297.500 226.196 304.750 M 244 305 C 244 310.433, 244.323 312, 245.443 312 C 247.444 312, 250 308.074, 250 305 C 250 301.926, 247.444 298, 245.443 298 C 244.323 298, 244 299.567, 244 305 M 255.667 298.667 C 254.590 299.743, 254.897 312, 256 312 C 256.571 312, 257 309, 257 305 C 257 297.961, 256.891 297.443, 255.667 298.667 M 266.910 301.750 L 266.820 305.500 265.881 302.250 C 264.320 296.842, 262.990 298.546, 263.150 305.750 C 263.232 309.462, 263.487 311.262, 263.716 309.750 C 264.189 306.627, 266 305.985, 266 308.941 C 266 310.009, 266.450 311.160, 267 311.500 C 267.631 311.890, 268 309.510, 268 305.059 C 268 297.820, 267.072 295.004, 266.910 301.750 M 282.142 305.250 C 282.260 311.291, 282.395 311.833, 282.952 308.500 L 283.620 304.500 284.421 308.250 C 285.669 314.089, 287 312.670, 287 305.500 C 287 301.833, 286.564 299, 286 299 C 285.450 299, 284.971 299.788, 284.937 300.750 C 284.888 302.091, 284.662 301.974, 283.969 300.250 C 282.444 296.458, 281.994 297.691, 282.142 305.250 M 294.067 299.419 C 293.389 300.236, 293.019 303.098, 293.195 306.169 C 293.456 310.732, 293.788 311.500, 295.500 311.500 C 296.813 311.500, 297.610 310.727, 297.820 309.250 C 298.034 307.737, 297.625 307, 296.570 307 C 295.706 307, 295 307.450, 295 308 C 295 308.550, 295.477 309, 296.059 309 C 296.641 309, 296.835 309.457, 296.490 310.016 C 295.295 311.949, 294 309.867, 294 306.012 C 294 303.884, 294.675 301.468, 295.500 300.643 C 296.325 299.818, 297 298.886, 297 298.571 C 297 297.493, 295.244 298, 294.067 299.419 M 312.458 304.545 C 312.073 308.145, 312.003 311.336, 312.303 311.637 C 312.604 311.937, 313.760 311.894, 314.873 311.540 C 317.170 310.811, 318.521 307.643, 317.340 305.759 C 316.905 305.067, 316.684 303.686, 316.848 302.690 C 317.152 300.844, 315.399 298, 313.957 298 C 313.518 298, 312.844 300.945, 312.458 304.545 M 325.780 298.579 C 325.478 299.086, 324.921 301.525, 324.542 304 C 324.164 306.475, 323.631 309.288, 323.360 310.250 C 323.088 311.212, 323.346 312, 323.933 312 C 324.520 312, 325 311.100, 325 310 C 325 307.335, 326.426 307.462, 327.815 310.250 C 328.723 312.072, 328.820 311.455, 328.324 307 C 327.622 300.696, 326.578 297.241, 325.780 298.579 M 335.667 298.667 C 335.300 299.033, 335.064 302.296, 335.142 305.917 C 335.267 311.712, 335.364 312.021, 335.957 308.500 L 336.631 304.500 337.815 307.315 C 338.467 308.863, 339 310.551, 339 311.065 C 339 311.579, 339.430 312, 339.956 312 C 340.487 312, 340.285 310.225, 339.500 308 C 338.724 305.800, 338.471 304, 338.937 304 C 340.766 304, 341.078 300.530, 339.363 299.276 C 337.391 297.834, 336.626 297.708, 335.667 298.667 M 274 305.500 C 274 309.167, 274.436 312, 275 312 C 275.564 312, 276 309.167, 276 305.500 C 276 301.833, 275.564 299, 275 299 C 274.436 299, 274 301.833, 274 305.500 M 245.683 300.650 C 245.308 301.026, 245 303.605, 245 306.381 C 245 310.958, 245.146 311.283, 246.563 309.866 C 247.422 309.007, 248.166 306.864, 248.216 305.105 C 248.309 301.851, 246.922 299.411, 245.683 300.650 M 314 301.441 C 314 302.298, 314.450 303, 315 303 C 315.550 303, 316 302.577, 316 302.059 C 316 301.541, 315.550 300.840, 315 300.500 C 314.450 300.160, 314 300.584, 314 301.441 M 336 301.969 C 336 303.308, 336.480 303.753, 337.500 303.362 C 338.325 303.045, 339 302.159, 339 301.393 C 339 300.627, 338.325 300, 337.500 300 C 336.675 300, 336 300.885, 336 301.969 M 326 305 C 326 305.733, 326.300 306.033, 326.667 305.667 C 327.033 305.300, 327.033 304.700, 326.667 304.333 C 326.300 303.967, 326 304.267, 326 305 M 183 305.500 C 183 305.775, 183.225 306, 183.500 306 C 183.775 306, 184 305.775, 184 305.500 C 184 305.225, 183.775 305, 183.500 305 C 183.225 305, 183 305.225, 183 305.500 M 217 305.500 C 217 305.775, 217.225 306, 217.500 306 C 217.775 306, 218 305.775, 218 305.500 C 218 305.225, 217.775 305, 217.500 305 C 217.225 305, 217 305.225, 217 305.500 M 314 308 C 314 309.100, 314.450 310, 315 310 C 315.550 310, 316 309.100, 316 308 C 316 306.900, 315.550 306, 315 306 C 314.450 306, 314 306.900, 314 308 M 154.630 317.338 C 154.204 319.037, 153.067 320.196, 151.424 320.609 L 148.878 321.247 151.939 323.109 C 153.623 324.133, 155.018 325.765, 155.040 326.735 C 155.070 328.044, 155.448 327.823, 156.506 325.875 C 157.291 324.432, 158.960 322.947, 160.216 322.574 L 162.500 321.898 160.311 321.004 C 159.106 320.512, 157.484 318.894, 156.706 317.408 L 155.290 314.707 154.630 317.338 M 353.496 318.196 C 352.948 319.427, 351.375 320.742, 350 321.118 C 348.582 321.505, 348.227 321.844, 349.179 321.900 C 351.241 322.023, 354 324.659, 354 326.508 C 354 327.317, 352.677 328.001, 350.750 328.187 C 348.107 328.442, 347.574 328.873, 347.897 330.500 C 348.115 331.600, 348.482 336.887, 348.713 342.250 C 349.080 350.781, 348.928 352, 347.497 352 C 346.372 352, 345.961 352.703, 346.180 354.250 C 346.482 356.376, 346.885 356.482, 353.500 356.167 C 366.268 355.560, 372 350.528, 372 339.929 C 372 334.864, 371.636 333.790, 369.042 331.196 C 365.985 328.139, 360.374 326.429, 356.956 327.514 C 353.415 328.638, 355.438 324.377, 359.500 322.155 C 361.135 321.260, 361.196 321.055, 359.833 321.030 C 358.917 321.014, 357.340 319.865, 356.330 318.478 L 354.493 315.957 353.496 318.196 M 159.619 328.034 C 155.165 329.368, 152 332.884, 152 336.500 C 152 340.589, 155.078 343.399, 161.500 345.174 C 165.748 346.348, 166.547 346.957, 166.811 349.221 C 167.083 351.556, 166.693 351.967, 163.666 352.535 C 159.183 353.376, 156.084 351.668, 155.339 347.946 C 154.457 343.535, 151.340 343.966, 150.802 348.573 C 150.210 353.644, 154.243 357, 160.928 357 C 166.846 357, 171.733 355.368, 173.021 352.961 C 174.465 350.262, 174.210 344.419, 172.590 343.074 C 171.814 342.431, 168.551 340.886, 165.340 339.642 C 160.434 337.742, 159.500 336.990, 159.500 334.940 C 159.500 332.720, 159.900 332.500, 163.936 332.500 C 168.120 332.500, 168.422 332.689, 169.232 335.815 C 170.444 340.492, 173.389 339.816, 173.809 334.763 C 174.082 331.478, 173.731 330.806, 170.809 329.025 C 167.306 326.889, 164.326 326.625, 159.619 328.034 M 196.667 327.667 C 196.300 328.033, 195.981 332.196, 195.958 336.917 L 195.917 345.500 191.708 337 C 187.527 328.555, 187.477 328.502, 184 328.831 C 182.075 329.014, 180.219 329.464, 179.875 329.831 C 179.531 330.199, 178.952 336.462, 178.588 343.750 L 177.926 357 180.926 357 L 183.925 357 184.212 347.750 L 184.500 338.500 188.973 347.250 C 193.196 355.511, 193.626 356, 196.664 356 C 198.434 356, 200.081 355.663, 200.323 355.250 C 200.566 354.837, 201.089 348.313, 201.485 340.750 L 202.205 327 199.769 327 C 198.429 327, 197.033 327.300, 196.667 327.667 M 218.874 327.695 C 216.522 328.066, 215.707 329.500, 211.035 341.505 C 208.167 348.873, 206.113 355.373, 206.469 355.950 C 207.987 358.407, 210.702 356.934, 212.020 352.939 C 213.546 348.317, 215.389 347, 220.334 347 C 223.586 347, 223.910 347.308, 225.597 352 C 226.586 354.750, 227.869 356.994, 228.448 356.986 C 231.068 356.952, 234 355.656, 234 354.532 C 234 351.662, 224.053 327.491, 222.831 327.390 C 222.099 327.330, 220.318 327.467, 218.874 327.695 M 249.585 328.104 C 244.131 328.549, 239.069 329.143, 238.335 329.425 C 237.527 329.735, 237 331.530, 237 333.969 C 237 337.285, 237.342 338, 238.930 338 C 240.171 338, 240.975 337.196, 241.180 335.750 C 241.387 334.293, 242.304 333.386, 243.782 333.176 L 246.065 332.852 245.382 344.926 L 244.700 357 248.202 357 L 251.704 357 252.346 348.750 C 252.699 344.212, 252.991 338.587, 252.994 336.250 C 252.999 332.718, 253.327 332, 254.933 332 C 255.996 332, 257.151 332.900, 257.500 334 C 257.855 335.117, 259.013 336, 260.125 336 C 261.843 336, 262.073 335.429, 261.807 331.828 C 261.638 329.533, 261.050 327.574, 260.500 327.475 C 259.950 327.376, 255.038 327.659, 249.585 328.104 M 273.500 328.412 C 264.071 332.603, 261.265 347.203, 268.569 354.065 C 270.737 356.102, 272.170 356.500, 277.331 356.500 C 285.434 356.500, 288.923 354.177, 288.969 348.750 C 288.994 345.707, 288.638 345, 287.079 345 C 285.750 345, 284.952 345.942, 284.487 348.060 C 283.429 352.876, 277.530 354.530, 274 351 C 271.700 348.700, 271.199 339.852, 273.130 335.615 C 274.504 332.598, 279.060 330.547, 282.481 331.406 C 284.468 331.905, 285 332.667, 285 335.019 C 285 339.317, 288.510 339.201, 289.375 334.875 C 290.294 330.281, 290.258 330.185, 287.050 328.526 C 283.453 326.666, 277.540 326.616, 273.500 328.412 M 313.500 327.994 C 310.672 328.480, 310.471 328.825, 310 334.005 L 309.500 339.500 305.250 339.807 L 301 340.115 301 333.997 L 301 327.879 297.250 328.190 L 293.500 328.500 293.223 342.750 L 292.945 357 296.425 357 L 299.905 357 300.202 350.750 L 300.500 344.500 305.250 344.195 L 310 343.890 310 350.445 L 310 357 313.031 357 C 314.699 357, 316.287 356.416, 316.561 355.702 C 316.835 354.988, 316.933 348.345, 316.780 340.941 L 316.500 327.478 313.500 327.994 M 325.750 328.735 C 321.812 329.046, 321 329.447, 321 331.086 C 321 332.173, 321.563 333.279, 322.250 333.542 C 323.716 334.105, 323.413 350.876, 321.908 352.450 C 321.409 352.973, 321 354.231, 321 355.246 C 321 356.964, 321.706 357.045, 331.250 356.411 C 336.887 356.037, 341.650 355.604, 341.834 355.448 C 342.018 355.292, 342.415 353.328, 342.716 351.083 C 343.203 347.449, 343.037 347, 341.201 347 C 339.824 347, 339.033 347.747, 338.820 349.250 C 338.554 351.120, 337.783 351.552, 334.250 351.807 L 330 352.115 330 348.057 C 330 344.100, 330.085 344, 333.441 344 C 335.334 344, 337.165 344.457, 337.510 345.016 C 338.654 346.867, 340 344.935, 340 341.441 C 340 338.121, 338.779 336.930, 337.500 339 C 337.160 339.550, 335.334 340, 333.441 340 C 330.198 340, 330 339.806, 330 336.617 C 330 333.953, 330.479 333.105, 332.250 332.630 C 336.472 331.499, 338.752 331.943, 339.290 334 C 339.613 335.236, 340.654 336, 342.013 336 C 343.609 336, 344.047 335.565, 343.607 334.418 C 343.273 333.548, 343 331.748, 343 330.418 C 343 328.099, 342.743 328.007, 336.750 328.180 C 333.313 328.279, 328.363 328.529, 325.750 328.735 M 357.250 331.746 C 356.361 332.045, 356 335.063, 356 342.192 L 356 352.217 358.744 351.528 C 362.658 350.546, 363.845 349.289, 365.035 344.869 C 366.180 340.619, 365.463 334.595, 363.645 333.180 C 362.096 331.975, 358.780 331.231, 357.250 331.746 M 217.237 339.184 C 215.811 342.962, 216.107 343.441, 219.368 342.623 C 221.645 342.051, 221.744 341.781, 220.695 339.003 C 219.262 335.207, 218.727 335.235, 217.237 339.184" stroke="none" fill="#0d0d0d" fill-rule="evenodd"/>
</svg>