<svg xmlns="http://www.w3.org/2000/svg" width="455" height="460" viewBox="0 0 455 460" version="1.1">
	<path d="M 232.503 17.990 C 231.651 20.676, 233.692 23.187, 236.412 22.798 C 237.999 22.572, 238.500 21.780, 238.500 19.500 C 238.500 16.994, 238.061 16.449, 235.836 16.192 C 233.850 15.962, 233.001 16.420, 232.503 17.990 M 190.500 21.698 C 184.046 22.554, 177 25.075, 177 26.528 C 177 27.497, 178.025 28, 180 28 C 181.650 28, 183.003 28.337, 183.007 28.750 C 183.010 29.163, 183.907 34.675, 185 41 C 187.467 55.278, 187.467 56.065, 185 56.710 C 183.862 57.008, 183 58.074, 183 59.184 C 183 60.647, 183.476 60.984, 184.903 60.531 C 185.950 60.198, 189.438 59.499, 192.653 58.976 C 211.338 55.939, 217.396 50.200, 215.616 37.218 C 214.149 26.512, 208.383 20.902, 199.102 21.150 C 196.021 21.232, 192.150 21.479, 190.500 21.698 M 190.103 25.915 C 188.920 26.664, 189.035 28.858, 190.853 40.262 C 192.034 47.667, 193 54.012, 193 54.363 C 193 55.656, 198.624 54.900, 202.669 53.063 C 207.891 50.692, 209.299 48.097, 209.199 41.028 C 209.108 34.618, 207.769 30.463, 204.759 27.250 C 203.057 25.433, 201.579 25.003, 197.076 25.015 C 194.009 25.024, 190.872 25.429, 190.103 25.915 M 228.667 28.667 C 227.410 29.923, 228.001 30.861, 230.250 31.180 C 232.452 31.493, 232.493 31.738, 232.185 42.680 C 231.888 53.218, 231.992 53.925, 233.994 54.997 C 236.179 56.166, 242 55.469, 242 54.037 C 242 53.595, 241.030 52.980, 239.845 52.670 C 237.746 52.121, 237.706 51.804, 238.343 40.659 C 238.909 30.756, 238.784 29.131, 237.417 28.606 C 235.299 27.794, 229.500 27.834, 228.667 28.667 M 254 30.353 C 254 31.185, 254.938 32.163, 256.085 32.527 C 257.609 33.011, 258.028 33.768, 257.642 35.344 C 257.352 36.530, 256.567 40.650, 255.897 44.500 C 255.052 49.353, 254.042 52.016, 252.604 53.182 C 250.079 55.229, 250.231 55.369, 256.484 56.738 C 262.206 57.991, 263.770 57.508, 261.634 55.148 C 260.321 53.697, 260.309 52.596, 261.541 46.134 C 263.142 37.731, 263.972 36.385, 268.110 35.476 C 274.118 34.156, 275.268 38.350, 272.491 51.459 C 271.655 55.406, 271.394 58.794, 271.888 59.288 C 273.273 60.673, 281 61.431, 281 60.181 C 281 59.586, 280.227 58.667, 279.281 58.138 C 277.723 57.266, 277.677 56.512, 278.781 50.069 C 280.674 39.034, 280.431 36.486, 277.250 33.971 C 274.923 32.131, 273.693 31.891, 269.250 32.407 C 266.203 32.761, 264 32.623, 264 32.076 C 264 31.093, 262.678 30.588, 257.250 29.495 C 254.728 28.988, 254 29.180, 254 30.353 M 304.568 31.206 C 303.789 32.319, 303.377 33.818, 303.653 34.537 C 304.734 37.356, 309.296 37.278, 310.391 34.423 C 311.892 30.511, 306.962 27.788, 304.568 31.206 M 132.251 38.114 C 128.716 40.378, 128.778 42.345, 132.356 41.447 C 134.392 40.936, 135.261 42.300, 142.227 56.943 C 150.361 74.042, 150.749 74.443, 156.105 71.279 C 159.413 69.325, 159.414 67.340, 156.108 67.821 C 154.160 68.105, 153.002 66.258, 146.226 52.071 C 141.236 41.623, 138.017 36.006, 137.025 36.017 C 136.186 36.026, 134.038 36.970, 132.251 38.114 M 296 40.878 C 296 41.361, 296.873 42.373, 297.940 43.128 C 299.832 44.465, 299.784 44.752, 296.051 54.500 C 291.856 65.452, 291.957 66.267, 297.722 67.920 C 301.567 69.023, 302.538 68.252, 300.348 65.832 C 298.796 64.118, 298.923 63.380, 302.346 54.151 C 304.356 48.733, 306 43.827, 306 43.248 C 306 42.087, 300.763 40, 297.851 40 C 296.833 40, 296 40.395, 296 40.878 M 320 49.671 C 320 50.040, 320.720 51.138, 321.600 52.111 C 323.083 53.750, 322.846 54.501, 318.355 62.397 C 314.519 69.142, 312.989 70.976, 311.005 71.211 C 308.654 71.489, 308.766 71.680, 312.826 74.314 C 319.552 78.678, 320.330 78.803, 319.619 75.400 C 319.151 73.163, 319.879 71.015, 322.803 66 C 326.300 60.004, 326.886 59.476, 330.367 59.185 C 338.240 58.529, 338.699 62.608, 332.015 73.858 C 329.807 77.575, 328 81.294, 328 82.123 C 328 83.337, 333.659 87, 335.534 87 C 336.588 87, 335.905 84.132, 334.750 83.707 C 333.840 83.372, 334.143 82.059, 335.866 78.874 C 342.887 65.898, 343.119 65.322, 342.427 62.565 C 341.580 59.190, 336.645 56.009, 332.250 56.004 C 329.779 56.001, 329 55.565, 329 54.185 C 329 53.092, 327.594 51.700, 325.466 50.685 C 321.711 48.894, 320 48.577, 320 49.671 M 110.966 65.525 C 105.226 69.760, 102.761 76.467, 107.183 75.820 C 108.598 75.612, 109.628 74.511, 110.113 72.686 C 111.145 68.806, 112.845 67, 115.467 67 C 117.559 67, 121 69.747, 121 71.416 C 121 71.834, 118.900 74.076, 116.333 76.400 C 112.550 79.826, 111.667 81.258, 111.667 83.971 C 111.667 87.581, 115.601 92.003, 118.806 91.996 C 121.443 91.990, 126.750 88.364, 127.478 86.069 C 127.897 84.748, 128.987 84, 130.491 84 C 133.162 84, 139.301 79.296, 138.442 77.906 C 138.110 77.370, 137.082 77.421, 135.942 78.031 C 134.277 78.922, 133.552 78.409, 130.753 74.356 C 124.224 64.902, 122.103 63, 118.091 63 C 115.702 63, 113.174 63.896, 110.966 65.525 M 208.928 74.465 C 178.388 79.459, 152.241 91.649, 130.580 110.992 C 87.203 149.726, 69.770 206.360, 83.953 262.471 C 94.458 304.030, 122.699 339.565, 161.437 359.967 C 165.735 362.230, 169.460 363.874, 169.715 363.619 C 169.970 363.364, 169.626 360.687, 168.951 357.670 C 167.746 352.287, 167.598 352.117, 160.955 348.475 C 145.594 340.055, 125.364 321.867, 114.822 307 C 104.655 292.661, 96.157 273.420, 91.855 255 C 88.993 242.742, 88.240 214.940, 90.411 201.703 C 97.217 160.219, 122.443 123.963, 160.075 101.578 C 191.664 82.788, 234.366 77.718, 271.030 88.406 C 308.983 99.470, 340.536 126, 357.961 161.500 C 364.503 174.826, 366.943 181.561, 370.187 195.242 C 372.050 203.100, 372.391 207.525, 372.441 224.500 C 372.523 252.370, 369.674 264.978, 357.976 288.500 C 344.363 315.874, 322.095 338.127, 294.500 351.931 C 274.361 362.006, 257.883 365.975, 233.504 366.623 L 216.507 367.075 212.735 370.759 C 209.012 374.395, 208.992 374.454, 211.231 375.326 C 212.479 375.812, 220.925 376.231, 230 376.256 C 249.844 376.313, 261.646 374.543, 278.112 369.041 C 318.684 355.485, 350.310 327.549, 368.661 289.058 C 392.383 239.303, 385.858 178.094, 352.052 133.229 C 344.245 122.868, 326.400 105.785, 316.485 99.180 C 300.006 88.202, 279.806 79.703, 261.036 75.849 C 248.317 73.237, 220.890 72.509, 208.928 74.465 M 119.742 77.538 C 118.234 78.937, 117 81.133, 117 82.418 C 117 87.636, 123.396 88.366, 126.028 83.448 C 127.228 81.206, 127.218 80.481, 125.961 78.252 C 123.960 74.702, 122.929 74.584, 119.742 77.538 M 357.500 78.208 C 354.677 79.827, 353.069 82.146, 353.032 84.651 C 353.011 86.031, 351.744 87.543, 349.500 88.867 C 347.575 90.003, 346 91.398, 346 91.966 C 346 92.535, 345.100 93, 344 93 C 341.053 93, 338 96.561, 338 99.997 C 338 103.802, 343.416 109.982, 348.930 112.468 C 352.295 113.986, 353.397 114.078, 355.879 113.050 C 357.501 112.378, 359.355 110.558, 359.998 109.005 C 361.444 105.513, 360.411 103.209, 354.767 97.343 C 349.684 92.062, 350.586 89.963, 356.193 94.025 C 362.130 98.326, 366.799 98.132, 370.941 93.415 C 373.559 90.433, 374.341 90.038, 375.587 91.072 C 376.699 91.995, 377.375 92.025, 378.213 91.187 C 379.050 90.350, 378.073 88.836, 374.421 85.312 C 365.684 76.883, 362.293 75.459, 357.500 78.208 M 359.174 83.314 C 356.520 86.140, 356.391 89.139, 358.829 91.345 C 361.374 93.648, 364.266 93.410, 366.826 90.686 C 369.480 87.860, 369.609 84.861, 367.171 82.655 C 364.626 80.352, 361.734 80.590, 359.174 83.314 M 85.967 86.371 C 85.160 87.010, 83.668 88.509, 82.652 89.703 C 80.381 92.371, 81.254 94.483, 83.936 92.808 C 85.502 91.830, 86.625 92.379, 91.404 96.462 C 97.635 101.786, 99.055 105.025, 96.870 108.931 C 94.538 113.100, 91.381 112.773, 86.122 107.819 C 83.580 105.425, 80.037 102.152, 78.250 100.546 L 75 97.626 72 100.500 C 70.350 102.081, 69 103.965, 69 104.687 C 69 106.234, 71.174 106.426, 72.595 105.005 C 73.255 104.345, 76.048 106.253, 80.889 110.672 C 90.873 119.784, 95.020 119.698, 99.191 110.292 C 100.375 107.622, 101.545 106.272, 102.393 106.597 C 103.701 107.099, 109 101.747, 109 99.923 C 109 98.722, 106.671 98.733, 105.450 99.939 C 104.855 100.527, 101.315 97.954, 95.967 93.044 C 89.021 86.667, 87.161 85.426, 85.967 86.371 M 343.571 98.571 C 341.283 100.860, 341.573 101.808, 345.882 106.118 C 350.101 110.337, 352.006 110.852, 354.429 108.429 C 356.777 106.080, 356.368 104.435, 352.467 100.533 C 348.629 96.696, 346.022 96.121, 343.571 98.571 M 221.242 100.151 C 164.773 104.125, 117.325 147.322, 107.491 203.710 C 103.503 226.581, 107.231 255.016, 117.073 276.799 C 121.528 286.660, 129.149 298.376, 130.104 296.832 C 130.548 296.113, 130.918 284.850, 130.925 271.805 C 130.934 253.932, 131.277 247.275, 132.316 244.793 C 133.467 242.043, 137.577 237.770, 143.706 232.951 C 144.568 232.274, 144.874 227.500, 144.776 216.251 L 144.640 200.500 152.070 200.500 L 159.500 200.500 159.795 217 L 160.090 233.500 163.795 235.796 C 168.787 238.890, 171.943 244.013, 173.061 250.838 C 173.571 253.952, 173.991 274.883, 173.994 297.351 L 174 338.202 179.661 360.101 C 182.774 372.145, 185.640 382, 186.028 382 C 187.557 382, 219.545 350.939, 220.229 348.790 C 220.630 347.531, 221.985 323.600, 223.240 295.612 L 225.522 244.723 222.005 242.503 C 216.755 239.189, 211.520 232.922, 209.391 227.404 C 207.678 222.961, 207.500 219.492, 207.500 190.500 L 207.500 158.500 210.750 158.187 L 214 157.873 214 184.961 L 214 212.050 216.584 213.032 C 218.005 213.572, 219.580 213.760, 220.084 213.448 C 220.603 213.127, 221 200.956, 221 185.378 L 221 157.873 224.250 158.187 L 227.500 158.500 228 186 L 228.500 213.500 231.234 213.815 L 233.968 214.130 234.234 186.315 L 234.500 158.500 237.750 158.187 L 241 157.873 241 185.378 C 241 200.956, 241.397 213.127, 241.916 213.448 C 242.420 213.760, 243.995 213.572, 245.416 213.032 L 248 212.050 248 185.025 L 248 158 251.551 158 L 255.101 158 254.801 190.750 C 254.509 222.489, 254.429 223.654, 252.199 228.500 C 249.626 234.090, 245.251 239.094, 239.984 242.474 L 236.467 244.730 238.664 291.615 C 239.873 317.402, 240.893 340.863, 240.931 343.750 L 241 349 244.750 348.978 C 253.633 348.927, 274.206 342.900, 286.500 336.747 C 293.573 333.208, 306.185 325.223, 307.235 323.621 C 307.639 323.005, 307.976 317.243, 307.985 310.817 C 307.999 299.565, 307.917 299.110, 305.750 298.451 C 301.879 297.276, 296.847 292.877, 295.394 289.400 C 294.412 287.050, 294 281.623, 294 271.032 L 294 256 310 256 L 326 256 326 271.550 C 326 283.411, 325.644 287.787, 324.501 289.998 C 322.993 292.915, 318 297.176, 314.750 298.321 C 313.237 298.854, 313 300.327, 313 309.187 L 313 319.437 319.082 313.469 C 342.222 290.760, 356.012 258.127, 355.994 226.119 C 355.953 151.769, 295.171 94.950, 221.242 100.151 M 407.513 110.979 C 407.180 111.518, 407.347 112.780, 407.884 113.783 C 408.421 114.787, 408.554 116.064, 408.180 116.622 C 407.298 117.937, 385.523 131, 384.213 131 C 383.663 131, 382.955 130.325, 382.638 129.500 C 381.957 127.724, 379 127.472, 379 129.190 C 379 131.188, 387.266 144.195, 391.090 148.215 C 394.001 151.276, 395.405 152, 398.422 152 C 402.896 152, 408 147.577, 408 143.700 C 408 141.404, 408.275 141.277, 412.250 141.723 C 415.802 142.121, 416.952 141.781, 419.250 139.648 C 424.024 135.217, 423.020 130.344, 414.753 117.812 C 409.616 110.025, 408.660 109.123, 407.513 110.979 M 57.241 120.250 C 51.946 125.901, 50.573 132.573, 54 136 C 56.854 138.854, 59.822 138.491, 66.046 134.526 C 69.046 132.615, 72.279 131.040, 73.231 131.026 C 75.788 130.988, 76.574 135.474, 74.552 138.561 C 72.454 141.763, 70.706 142.448, 68.139 141.074 C 64.953 139.369, 64.348 141.802, 67.239 144.694 L 69.725 147.180 73.252 144.084 C 77.056 140.744, 80 135.495, 80 132.053 C 80 129.404, 75.756 125, 73.202 125 C 72.163 125, 68.554 126.853, 65.182 129.117 C 58.702 133.468, 56 133.655, 56 129.754 C 56 126.053, 58.846 122.745, 61.464 123.402 C 64.755 124.228, 65.317 122.966, 62.835 120.324 C 60.143 117.459, 59.859 117.455, 57.241 120.250 M 406.668 124.996 L 401.944 127.991 403.466 130.935 C 407.622 138.972, 417 138.723, 417 130.576 C 417 127.447, 414.129 122, 412.480 122 C 411.881 122, 409.266 123.348, 406.668 124.996 M 393.213 133.155 C 390.346 134.811, 388 136.698, 388 137.350 C 388 139.713, 393.115 145.991, 395.535 146.598 C 398.652 147.381, 402.754 144.829, 403.563 141.603 C 404.125 139.366, 401.142 131.824, 399.227 130.641 C 398.787 130.368, 396.080 131.500, 393.213 133.155 M 38.616 156.045 C 35.042 160.293, 33.352 166.282, 34.819 169.503 C 36.040 172.181, 36.731 172.457, 38.853 171.112 C 39.892 170.453, 39.950 169.776, 39.103 168.193 C 37.512 165.219, 37.742 162.540, 39.808 159.989 C 41.296 158.151, 42.195 157.884, 44.898 158.478 C 47.693 159.092, 48.079 159.518, 47.491 161.349 C 44.940 169.297, 44.650 172.817, 46.335 175.388 C 49.533 180.270, 56.877 180.072, 59.482 175.035 C 60.317 173.420, 61 170.502, 61 168.550 C 61 166.171, 61.463 165, 62.402 165 C 63.742 165, 66 160.199, 66 157.351 C 66 155.582, 64.019 155.620, 62.610 157.416 C 61.670 158.614, 60.353 158.384, 54.016 155.916 C 44.386 152.164, 41.864 152.185, 38.616 156.045 M 419.380 161.452 C 418.676 163.287, 419.701 165, 421.502 165 C 423.360 165, 426 168.912, 426 171.666 C 426 173.675, 422.736 177, 420.765 177 C 420.330 177, 418.792 174.504, 417.348 171.454 C 414.161 164.723, 410.737 162.498, 406.069 164.126 C 400.484 166.073, 399.208 172.716, 403.450 177.758 C 405.009 179.611, 405.705 181.413, 405.364 182.718 C 404.780 184.951, 407.454 191, 409.026 191 C 409.562 191, 410 189.966, 410 188.703 C 410 186.736, 411.172 185.981, 418.154 183.453 C 428.835 179.585, 430.957 177.033, 429.145 170.238 C 427.231 163.060, 420.936 157.396, 419.380 161.452 M 51.107 162.372 C 48.927 164.997, 48.630 169.934, 50.525 172.027 C 51.507 173.112, 52.883 174, 53.584 174 C 55.910 174, 58 170.902, 58 167.454 C 58 164.711, 57.438 163.761, 55.101 162.552 C 52.711 161.316, 52.009 161.285, 51.107 162.372 M 406.200 170.200 C 404.368 172.032, 404.759 174.608, 407.321 177.587 C 409.355 179.952, 410.005 180.165, 412.571 179.310 C 416.224 178.093, 416.573 176.399, 414.025 172.250 C 411.926 168.832, 408.473 167.927, 406.200 170.200 M 16.795 189.720 C 13.956 196.121, 13.901 205.042, 16.675 208.788 C 19.721 212.900, 24.539 215.763, 30.494 216.999 C 41.213 219.224, 49.549 214.257, 51.952 204.215 C 53.615 197.265, 52.623 190, 50.011 190 C 48.348 190, 48.206 190.596, 48.708 195.464 C 49.794 205.981, 45.551 211, 35.577 211 C 24.788 211, 18.050 206.091, 18.015 198.205 C 17.999 194.663, 21.659 190, 24.455 190 C 25.305 190, 26 189.352, 26 188.559 C 26 186.874, 25.466 186.508, 21.707 185.608 C 19.121 184.990, 18.757 185.294, 16.795 189.720 M 433.666 198.829 C 434.357 201.471, 433.705 201.735, 423.107 203.094 C 416.204 203.979, 413.590 203.990, 412.739 203.139 C 410.551 200.951, 409.882 202.036, 410.513 206.750 C 411.522 214.284, 411.858 214.840, 413.822 212.236 C 415.036 210.627, 417.294 209.672, 421.741 208.889 C 427.266 207.916, 428.326 208.006, 431.231 209.697 C 434.810 211.782, 436.114 215.635, 433.570 216.611 C 430.624 217.742, 431.991 219.121, 435.750 218.810 C 439.236 218.522, 439.485 218.288, 439.294 215.500 C 439.156 213.503, 437.999 211.581, 435.831 209.750 C 432.814 207.201, 432.740 207, 434.819 207 C 436.053 207, 437.301 206.380, 437.592 205.622 C 438.457 203.366, 436.500 197.527, 434.765 197.193 C 433.608 196.970, 433.299 197.429, 433.666 198.829 M 73.514 352.168 C 71.998 353.360, 70.136 355.824, 69.375 357.644 C 67.711 361.628, 68.855 365.698, 73.809 373.418 C 76.205 377.152, 76.699 378.658, 75.860 379.668 C 75.252 380.401, 74.326 381, 73.801 381 C 71.838 381, 67 375.082, 67 372.682 C 67 370.511, 66.483 370.155, 62.750 369.761 C 60.413 369.514, 58.163 369.493, 57.750 369.715 C 56.476 370.400, 56.923 377.950, 58.405 380.800 C 63.120 389.863, 75.419 393.884, 81.857 388.467 C 88.034 383.270, 88.077 377.131, 82.003 368 C 78.511 362.751, 78.146 360, 80.943 360 C 83.085 360, 86 363.511, 86 366.092 C 86 367.582, 90.125 368.948, 94.750 368.989 C 96.561 369.005, 96.321 362.478, 94.357 358.340 C 90.702 350.638, 79.627 347.359, 73.514 352.168 M 372.278 354.479 C 366.462 357.008, 353.865 366.947, 354.718 368.334 C 357.852 373.429, 377.517 400, 378.153 400 C 380.213 400, 396.173 387.456, 398.118 384.309 C 404.531 373.933, 400.484 359.779, 389.632 354.630 C 385.454 352.647, 376.667 352.571, 372.278 354.479 M 372.732 365.536 C 370.679 366.931, 369 368.652, 369 369.360 C 369 370.371, 378.126 383.460, 380.455 385.788 C 381.378 386.711, 388.689 380.978, 389.856 378.417 C 391.961 373.796, 391.260 370.060, 387.600 366.400 C 383.273 362.073, 378.257 361.782, 372.732 365.536 M 107.812 370.250 C 105.356 374.147, 91 402.748, 91 403.745 C 91 405.120, 98.620 408.353, 99.940 407.537 C 100.553 407.159, 102.903 403.171, 105.163 398.676 C 109.962 389.131, 110.394 389.465, 111.472 403.549 C 111.849 408.472, 112.378 413.292, 112.649 414.261 C 113.125 415.961, 117.804 419, 119.945 419 C 120.519 419, 125.046 410.896, 130.004 400.991 L 139.019 382.982 135.760 380.995 C 133.967 379.902, 131.811 379.006, 130.969 379.004 C 130.058 379.002, 127.926 382.057, 125.703 386.549 C 123.649 390.701, 121.579 393.858, 121.103 393.564 C 120.628 393.270, 119.932 389.086, 119.556 384.265 C 118.655 372.703, 118.495 372.293, 113.967 369.983 C 109.190 367.546, 109.525 367.532, 107.812 370.250 M 332.771 377.550 L 322.041 382.997 323.253 385.748 C 323.919 387.262, 326.661 393, 329.347 398.500 C 332.032 404, 335.278 410.863, 336.559 413.750 C 337.853 416.664, 339.548 419, 340.368 419 C 343.031 419, 363 409.104, 362.996 407.786 C 362.994 407.079, 362.096 405.030, 361.001 403.233 L 359.009 399.967 353.033 402.983 C 346.259 406.403, 344.473 406.675, 343.607 404.418 C 342.360 401.169, 343.138 400.134, 348.500 397.912 C 354.334 395.494, 354.981 394.247, 352.839 389.547 C 351.451 386.500, 349.905 386.406, 344.141 389.022 C 341.743 390.110, 339.204 391, 338.498 391 C 337.428 391, 336 388.961, 336 387.433 C 336 387.211, 338.813 385.619, 342.250 383.896 C 345.688 382.173, 348.683 380.596, 348.906 380.392 C 349.672 379.693, 345.698 372, 344.598 372.052 C 343.994 372.080, 338.672 374.554, 332.771 377.550 M 305.037 389.110 C 301.634 390.468, 301.699 390.157, 303.513 396.397 C 304.411 399.484, 305 402.750, 304.822 403.654 C 304.611 404.732, 302.263 405.918, 298 407.101 C 290.325 409.230, 289.992 409.009, 288.096 400.538 C 286.747 394.512, 285.960 394.072, 280.149 396.098 C 278.417 396.702, 277 397.834, 277 398.614 C 277 400.990, 286.267 434.005, 287.489 435.982 C 288.100 436.970, 296.275 434.675, 296.702 433.395 C 296.869 432.892, 296.163 429.438, 295.132 425.720 C 294.101 422.001, 293.537 418.791, 293.879 418.585 C 295.202 417.788, 305.451 415, 307.059 415 C 308.321 415, 309.225 416.816, 310.597 422.106 L 312.440 429.211 316.930 428.596 C 319.399 428.258, 321.714 427.648, 322.074 427.240 C 322.641 426.600, 319.144 412.765, 313.568 393.585 C 311.825 387.592, 310.536 386.915, 305.037 389.110 M 159.269 392.328 C 155.539 396.518, 136 423.770, 136 424.782 C 136 425.905, 141.258 428, 144.077 428 C 145.055 428, 146.781 426.823, 147.912 425.385 L 149.969 422.770 156.376 424.504 C 162.611 426.192, 162.799 426.339, 163.388 430.024 C 163.938 433.464, 164.420 433.955, 168.666 435.402 C 171.236 436.278, 173.576 436.757, 173.866 436.468 C 174.522 435.812, 171.507 394.174, 170.749 393.416 C 170.445 393.112, 168.173 392.254, 165.699 391.510 C 161.458 390.233, 161.092 390.280, 159.269 392.328 M 189.609 402.044 C 188.823 406.961, 189.693 407.961, 194.781 407.985 C 196.759 407.994, 198.291 408.594, 198.636 409.494 C 198.951 410.316, 198.451 417.330, 197.525 425.081 C 196.599 432.833, 195.989 439.303, 196.171 439.459 C 196.674 439.894, 205.990 441.166, 206.071 440.811 C 206.110 440.640, 206.903 433.750, 207.834 425.500 L 209.527 410.500 214.513 410.416 L 219.500 410.333 220.396 406.146 C 220.889 403.843, 221.055 401.721, 220.764 401.430 C 220.473 401.139, 216.244 400.482, 211.367 399.970 C 206.490 399.457, 199.754 398.749, 196.397 398.396 L 190.295 397.754 189.609 402.044 M 239.842 402.021 C 225.569 409.561, 224.752 430.496, 238.418 438.505 C 247.532 443.846, 257.586 442.677, 264.828 435.435 C 267.228 433.036, 269.027 430.581, 268.826 429.979 C 268.626 429.378, 266.602 428.054, 264.329 427.036 L 260.196 425.186 257.458 428.044 C 255.951 429.616, 253.479 431.175, 251.963 431.508 C 248.033 432.371, 242.426 429.725, 240.566 426.128 C 237.988 421.142, 238.549 417.251, 242.400 413.400 C 246.701 409.099, 252.288 408.695, 256.673 412.368 L 259.500 414.735 263.313 412.313 C 268.174 409.226, 267.835 407.407, 261.627 403.250 C 257.339 400.378, 256.001 400.005, 250.137 400.044 C 245.575 400.075, 242.356 400.693, 239.842 402.021 M 158.750 410.470 C 156.350 413.769, 156.554 415, 159.500 415 C 161.690 415, 162 414.567, 162 411.500 C 162 407.408, 161.168 407.144, 158.750 410.470" stroke="none" fill="#000000" fill-rule="evenodd"/>
</svg>