<svg xmlns="http://www.w3.org/2000/svg" width="2417" height="1609" viewBox="0 0 2417 1609" version="1.1">
	<path d="M 909.462 282.316 C 900.025 286.803, 891.881 298.806, 889.722 311.411 C 888.407 319.092, 889.967 330.234, 895.547 353 C 899.688 369.896, 902.898 378.903, 909.113 391.071 C 918.343 409.141, 926.193 415.054, 934.944 410.529 C 942.574 406.583, 953.210 390.242, 956.441 377.500 C 962.674 352.915, 960.015 316.145, 950.737 298.615 C 943.968 285.828, 936.271 280.728, 923 280.236 C 915.699 279.965, 913.789 280.259, 909.462 282.316 M 791.748 320.427 C 779.194 324.907, 774.604 337.385, 780.832 350.102 C 785.527 359.689, 801.616 378.563, 817.309 392.894 C 829.824 404.323, 842.298 414.339, 863.376 429.881 C 878.892 441.321, 881.658 443, 884.995 443 C 892.192 443, 896.565 434.553, 896.384 421 C 895.975 390.277, 848.923 332.307, 815.282 321.076 C 808.090 318.675, 797.476 318.383, 791.748 320.427 M 1241.614 338.146 C 1221.018 339.962, 1203.653 344.631, 1182 354.177 C 1093.372 393.250, 1001.582 478.622, 928.452 590 C 900.834 632.063, 874.720 681.158, 860.499 717.756 C 858.948 721.747, 857.552 724.885, 857.396 724.729 C 857.240 724.573, 857.528 722.598, 858.035 720.339 C 859.797 712.498, 863.936 686.420, 865.707 672 C 868.253 651.271, 868.245 588.388, 865.693 569.500 C 848.904 445.218, 785.378 370.250, 682.500 353.311 C 667.096 350.775, 622.092 350.803, 604 353.360 C 578.601 356.950, 548.565 364.054, 526.693 371.644 C 459.683 394.900, 402.061 438.910, 364.230 495.730 C 354.651 510.116, 352.813 513.286, 345.225 528.500 C 319.015 581.058, 312.025 640.252, 326.856 684.062 C 338.808 719.363, 362.258 742.127, 396.500 751.664 C 413.324 756.350, 440.642 756.021, 464.876 750.841 C 496.710 744.036, 530.682 725.894, 554.275 703.100 C 586.828 671.650, 601.799 635.541, 598.079 597.445 C 596.818 584.528, 595.964 581.644, 592.249 577.750 C 586.819 572.057, 575.671 575.096, 571.614 583.375 C 569.911 586.850, 569.839 588.014, 570.865 595.362 C 573.206 612.116, 571.807 629.886, 567.042 643.925 C 551.876 688.603, 509.623 723.341, 461.573 730.635 C 441.387 733.699, 426.095 729.830, 414.169 718.640 C 403.756 708.870, 397.380 695.480, 393.865 676 C 391.997 665.652, 392.270 634.598, 394.350 620.695 C 402.424 566.732, 424.012 517.103, 458.379 473.497 C 468.894 460.156, 498.991 430.373, 511.790 420.644 C 543.511 396.532, 578.052 379.897, 611 372.862 C 619.450 371.058, 624.819 370.611, 638.500 370.570 C 655.928 370.518, 661.676 371.268, 674 375.204 C 733.601 394.237, 757.391 468.245, 736.455 569.500 C 721.545 641.614, 680.030 740.374, 628.225 826.969 C 573.919 917.745, 508.574 994.281, 455.500 1029.277 C 439.663 1039.719, 417.983 1049.718, 404.040 1053.011 C 396.567 1054.776, 399.109 1055.559, 417.156 1057.054 C 438.693 1058.838, 464.795 1056.840, 484.248 1051.918 C 520.965 1042.630, 554.134 1020.075, 591.677 978.866 C 677.049 885.158, 756.442 739.892, 787.501 620.563 C 796.073 587.629, 799.389 563.079, 799.395 532.500 C 799.403 491.181, 793.018 457.837, 780.021 431.321 L 775.206 421.500 786.068 432.768 C 825.939 474.131, 845.928 539.835, 843.638 622 C 842.043 679.217, 833.520 732.255, 815.081 799.703 C 803.543 841.911, 780.088 906.092, 766.011 933.978 C 764.355 937.259, 763 941.329, 763 943.023 C 763 947.464, 768.073 949.473, 776.990 948.562 C 784.027 947.844, 792.053 946.123, 793.236 945.078 C 793.641 944.721, 798.419 932.294, 803.855 917.464 C 836.153 829.347, 861.482 769.366, 893.153 706 C 919.095 654.097, 940.422 617.271, 965.547 581 C 994.275 539.526, 1014.688 514.509, 1044.978 483.648 C 1061.066 467.257, 1083.200 446.120, 1081.784 448.500 C 1081.457 449.050, 1075.622 457.825, 1068.816 468 C 1033.872 520.247, 1003.341 579.799, 975.508 650 C 931.963 759.831, 912.345 853.030, 916.078 932.328 C 919.576 1006.636, 947.243 1050.950, 996.482 1061.112 C 1006.851 1063.253, 1027.814 1063.647, 1039.308 1061.918 C 1056.789 1059.290, 1081.301 1051.810, 1102.413 1042.662 C 1108.966 1039.823, 1114.801 1036.733, 1115.380 1035.795 C 1116.761 1033.559, 1112.672 1029, 1109.285 1029 C 1107.984 1029, 1102.099 1030.978, 1096.209 1033.395 C 1071.042 1043.723, 1060.390 1044.493, 1045.404 1037.067 C 1030.055 1029.462, 1016.444 1014.227, 1008.980 996.298 C 1001.348 977.964, 997.109 954.078, 996.295 924.809 C 993.676 830.657, 1031.296 690.688, 1093.940 561.518 C 1131.977 483.086, 1174.046 420.407, 1216.118 379.483 C 1235.877 360.263, 1252.739 348.347, 1270.238 341.237 C 1273.943 339.732, 1276.981 338.163, 1276.988 337.750 C 1277.004 336.774, 1254.295 337.029, 1241.614 338.146 M 1054.283 339.452 C 1046.742 341.808, 1031.390 349.812, 1020.324 357.156 C 1005.282 367.139, 986.236 386.321, 975.799 402 C 971.588 408.325, 965.616 418.669, 962.528 424.988 C 957.667 434.931, 956.951 437.135, 957.206 441.386 C 957.609 448.124, 960.546 450.296, 969.969 450.828 C 976.186 451.180, 977.404 450.919, 982.187 448.212 C 985.109 446.558, 994.025 442.651, 1002 439.529 C 1029.233 428.870, 1050.939 416.022, 1064.557 402.500 C 1082.994 384.192, 1089.312 367.098, 1082.854 352.993 C 1076.986 340.176, 1067.045 335.464, 1054.283 339.452 M 1686.554 347.940 C 1685.084 349.565, 1684.711 352.537, 1684.262 366.190 C 1683.440 391.184, 1686.212 410.283, 1694.162 434.414 C 1698.554 447.747, 1705.669 463.567, 1709.578 468.691 C 1712.591 472.642, 1712.764 472.621, 1698.616 470.021 C 1686.798 467.850, 1628.522 459.474, 1617.736 458.397 L 1610.973 457.721 1611.583 451.611 C 1612.786 439.558, 1608.027 426.259, 1594.481 403.825 C 1579.576 379.138, 1569.850 368.137, 1557.648 362.165 C 1550.035 358.439, 1544.956 357.418, 1541.971 359.016 C 1539.802 360.176, 1539.748 360.571, 1540.277 371.357 C 1541.932 405.134, 1560.264 436.689, 1587.500 452.642 L 1593.500 456.157 1573 455.591 C 1561.725 455.281, 1540.438 454.724, 1525.696 454.355 L 1498.893 453.683 1492.710 444.591 C 1485.038 433.309, 1467.417 415.553, 1455.723 407.322 C 1435.923 393.384, 1404.320 380.815, 1392.467 382.163 C 1389.925 382.452, 1389.455 382.973, 1389.183 385.798 C 1388.368 394.275, 1405.042 413.983, 1425.057 428.200 C 1433.001 433.842, 1451.981 445.921, 1461.884 451.634 C 1470.504 456.609, 1471.512 456.075, 1449 458.466 C 1430.503 460.430, 1410.836 463.686, 1390.811 468.098 L 1376.123 471.334 1368.939 463.642 C 1351.022 444.456, 1325.852 430.939, 1299.500 426.349 C 1283.136 423.499, 1246.514 426.004, 1243.884 430.153 C 1241.639 433.696, 1242.961 435.912, 1250.250 440.825 C 1278.878 460.117, 1314.394 473.162, 1347.500 476.545 L 1354.500 477.260 1338.500 482.609 C 1314.706 490.563, 1300.656 496.375, 1279 507.224 C 1268.275 512.596, 1258.600 516.993, 1257.500 516.995 C 1256.400 516.997, 1253.076 516.078, 1250.114 514.952 C 1228.943 506.905, 1203.301 506.081, 1178.067 512.638 C 1166.275 515.702, 1163.581 516.957, 1163.206 519.565 C 1162.795 522.421, 1165.474 524.484, 1172.775 526.933 C 1186.651 531.588, 1192.458 532.330, 1214.250 532.232 C 1225.662 532.182, 1235 532.270, 1235 532.428 C 1235 532.587, 1232.476 534.393, 1229.391 536.441 C 1226.011 538.685, 1222.336 540.270, 1220.141 540.429 C 1212.645 540.973, 1192.887 551.996, 1179.368 563.176 C 1168.925 571.812, 1157 585.965, 1157 589.722 C 1157 595.053, 1163.818 595.104, 1179.500 589.890 C 1199.170 583.350, 1214.141 570.846, 1224.109 552.630 C 1226.399 548.447, 1228.166 546.943, 1236.637 541.967 C 1242.062 538.780, 1246.617 536.288, 1246.759 536.429 C 1246.901 536.570, 1245.183 540.601, 1242.940 545.387 C 1237.667 556.639, 1234.231 570.365, 1232.874 585.601 C 1231.708 598.700, 1232.527 603.093, 1236.273 603.814 C 1239.835 604.500, 1250.391 593.305, 1256.686 582.167 C 1264.696 567.993, 1267.851 549.177, 1264.678 534.500 C 1263.286 528.060, 1263.298 527.393, 1264.832 526.165 C 1267.419 524.095, 1294.201 510.817, 1307 505.259 C 1318.469 500.280, 1348.294 489, 1349.993 489 C 1350.485 489, 1348.031 494.512, 1344.539 501.250 C 1334.278 521.049, 1327.105 542.821, 1323.536 565 C 1319.841 587.970, 1322.778 591.175, 1336.585 579.237 C 1349.775 567.834, 1362.208 549.448, 1367.515 533.500 C 1372.751 517.764, 1373.512 498.368, 1369.425 484.842 C 1369.006 483.457, 1371.032 482.682, 1381.712 480.144 C 1396.909 476.531, 1417.162 472.735, 1432.874 470.554 C 1446.433 468.672, 1474.275 465.942, 1474.779 466.445 C 1474.974 466.641, 1473.057 469.533, 1470.517 472.872 C 1453.183 495.665, 1438.512 528.009, 1433.392 554.715 C 1431.501 564.581, 1432.049 567, 1436.177 567 C 1440.766 567, 1459.577 551.906, 1468.344 541.191 C 1484.267 521.728, 1492.558 500.298, 1493.566 476 L 1494.001 465.500 1510.750 464.625 C 1521.717 464.051, 1534.923 464.141, 1549 464.884 C 1560.825 465.508, 1573.925 466.015, 1578.110 466.009 C 1582.296 466.004, 1587.747 466.278, 1590.224 466.617 L 1594.727 467.234 1585.557 476.367 C 1568.236 493.616, 1555.517 517.267, 1548.595 545.096 C 1543.706 564.755, 1543.726 572, 1548.673 572 C 1553.264 572, 1574.968 550.792, 1583.500 537.969 C 1596.710 518.116, 1607.920 487.961, 1607.983 472.112 L 1608 467.725 1616.750 468.400 C 1633.783 469.714, 1668.766 474.158, 1688.828 477.556 C 1700.009 479.450, 1709.459 481.010, 1709.828 481.023 C 1710.198 481.035, 1707.800 482.506, 1704.500 484.291 C 1682.288 496.307, 1664.666 514.389, 1642.609 547.799 C 1629.621 567.472, 1628.613 569.409, 1630.005 572.009 C 1631.428 574.669, 1634.537 574.534, 1642.715 571.455 C 1678.894 557.837, 1712.333 526.731, 1725.520 494.425 L 1729.224 485.349 1740.362 488.019 C 1757.545 492.138, 1776.536 497.584, 1791.180 502.591 C 1811.324 509.480, 1833.167 518.238, 1832.285 519.073 C 1831.853 519.481, 1828.575 521.026, 1825 522.507 C 1800.599 532.616, 1777.891 553.976, 1765.224 578.734 C 1759.899 589.143, 1760.048 591.270, 1766.137 591.798 C 1769.809 592.116, 1784.045 587.507, 1792.500 583.264 C 1815.542 571.697, 1836.649 550.209, 1844.081 530.750 C 1845.289 527.587, 1846.671 525, 1847.152 525 C 1847.633 525, 1854.433 528.208, 1862.263 532.128 C 1885.453 543.739, 1911.592 559.364, 1911.422 561.514 C 1911.379 562.056, 1907.554 563.278, 1902.922 564.228 C 1883.045 568.308, 1865.182 577.061, 1844.500 592.857 C 1830.427 603.606, 1803 632.723, 1803 636.916 C 1803 640.559, 1805.493 641.327, 1815.278 640.697 C 1838.068 639.231, 1859.794 628.556, 1887 605.456 C 1903.491 591.453, 1913.159 579.759, 1916.606 569.644 L 1918.189 564.998 1921.344 567.200 C 1940.463 580.537, 1960.865 597.753, 1979.390 616.182 C 1992.530 629.253, 1994.948 630.984, 1997.624 629.235 C 1999.602 627.942, 1997.511 624.817, 1986.760 613 C 1970.367 594.981, 1943.764 571.778, 1924.192 558.427 C 1924.022 558.311, 1925.683 552.880, 1927.883 546.358 C 1936.116 521.950, 1938.734 497.873, 1935.945 472.211 C 1933.323 448.089, 1922.652 413.439, 1916.630 409.493 C 1913.026 407.132, 1910.842 408.733, 1907.486 416.200 C 1891.016 452.839, 1887.954 495.642, 1899.114 533.218 C 1900.701 538.563, 1902 543.147, 1902 543.404 C 1902 543.661, 1897.838 541.402, 1892.750 538.383 C 1887.662 535.365, 1876.707 529.462, 1868.405 525.264 L 1853.311 517.633 1856.197 512.989 C 1862.262 503.233, 1862.180 486.467, 1855.948 462.299 C 1851.003 443.121, 1843.444 426.828, 1832.219 411.157 C 1821.262 395.859, 1817.763 393.379, 1814.394 398.521 C 1812.940 400.740, 1812.808 403.695, 1813.285 423.271 C 1813.739 441.892, 1814.242 447.459, 1816.384 457.569 C 1819.411 471.852, 1824.528 487.057, 1830.496 499.500 C 1832.870 504.450, 1834.696 508.621, 1834.554 508.769 C 1834.411 508.917, 1828.041 506.609, 1820.397 503.640 C 1795.460 493.952, 1756.311 481.956, 1735 477.471 C 1730.325 476.487, 1726.356 475.572, 1726.180 475.438 C 1726.005 475.304, 1726.783 473.013, 1727.910 470.347 C 1735.892 451.470, 1735.843 425.582, 1727.780 401.500 C 1721.839 383.755, 1710.835 365.102, 1699.109 352.902 C 1692.087 345.596, 1689.574 344.603, 1686.554 347.940 M 616.665 390.399 C 596.949 398.666, 586.459 416.039, 589.891 434.740 C 592.611 449.557, 602.373 462.612, 615.605 469.127 C 621.940 472.246, 623.178 472.500, 632.027 472.500 C 641.068 472.500, 642.016 472.293, 649.180 468.754 C 658.920 463.942, 667.797 454.813, 670.997 446.317 C 672.833 441.440, 673.127 438.947, 672.814 430.888 C 672.473 422.116, 672.100 420.587, 668.548 413.401 C 663.593 403.374, 656.384 396.024, 647.274 391.709 C 641.460 388.955, 639.224 388.462, 631.500 388.227 C 623.821 387.993, 621.644 388.312, 616.665 390.399 M 532 436.489 C 521.763 439.835, 512.105 450.362, 510.009 460.458 C 507.115 474.398, 515.405 490.470, 529.216 497.697 C 536.391 501.451, 548.049 501.643, 555.216 498.126 C 562.207 494.695, 568.546 488.627, 571.548 482.492 C 573.908 477.669, 574.168 476.122, 573.854 468.778 C 573.431 458.877, 570.452 451.876, 563.795 445.139 C 555.175 436.414, 542.653 433.008, 532 436.489 M 914 442.084 C 904.948 446.188, 900.994 452.313, 901.010 462.210 C 901.039 481.104, 918.011 492.435, 934.021 484.250 C 944.528 478.878, 948.877 468.916, 945.609 457.709 C 941.398 443.270, 927.040 436.172, 914 442.084 M 474.215 500.257 C 469.820 501.665, 462.054 508.626, 460.363 512.673 C 458.296 517.621, 458.637 526.619, 461.084 531.673 C 462.230 534.040, 465.150 537.723, 467.574 539.856 C 476.520 547.730, 487.530 547.687, 496.557 539.741 C 502.261 534.720, 504 530.890, 504 523.348 C 504 507.593, 488.594 495.649, 474.215 500.257 M 904.467 506.998 C 899.319 509.546, 896.999 513.480, 897.004 519.654 C 897.018 538.083, 922.763 540.557, 925.522 522.395 C 926.692 514.690, 918.937 504.999, 911.602 505.001 C 909.896 505.001, 906.685 505.900, 904.467 506.998 M 896.388 552.980 C 889.342 555.827, 887.976 565.909, 893.917 571.218 C 901.009 577.554, 911 573.027, 911 563.477 C 911 559.491, 910.497 558.297, 907.600 555.400 C 904.105 551.905, 900.810 551.194, 896.388 552.980 M 437.791 559.988 C 427.271 563.160, 422.827 574.909, 428.491 584.575 C 433.651 593.379, 443.810 596.038, 451.882 590.697 C 462.987 583.348, 461.453 567.536, 449.025 561.250 C 444.348 558.885, 442.239 558.648, 437.791 559.988 M 419.314 620.950 C 415.361 623.360, 414 625.815, 414 630.534 C 414 635.873, 419.273 641, 424.765 641 C 432.505 641, 437.544 633.632, 434.609 626.608 C 433.049 622.873, 427.907 619.007, 424.500 619.007 C 423.400 619.007, 421.066 619.882, 419.314 620.950 M 1198 642.500 C 1184.818 645.488, 1172.718 651.780, 1158.879 662.842 C 1132.458 683.963, 1107.043 728.433, 1093.003 778.111 C 1083.310 812.409, 1079.991 835.771, 1080.020 869.494 C 1080.058 915.320, 1086.288 939.864, 1104.968 967.792 C 1125.367 998.288, 1162.788 1019.147, 1210.627 1026.686 C 1225.502 1029.030, 1260.751 1028.997, 1282.500 1026.619 C 1311.278 1023.471, 1355.525 1015.229, 1422 1000.634 C 1501.569 983.165, 1534.146 978.134, 1573 977.313 C 1595.346 976.842, 1598.408 976.984, 1607.825 978.932 C 1625.683 982.627, 1637.565 988.602, 1647.913 999.092 C 1657.713 1009.026, 1664.227 1020.193, 1668.680 1034.693 C 1671.169 1042.796, 1671.390 1044.900, 1671.437 1061 C 1671.481 1075.846, 1671.156 1079.807, 1669.295 1087.117 C 1660.411 1122.004, 1637.309 1146.950, 1607.234 1154.131 C 1599.806 1155.904, 1596.406 1156.141, 1584.500 1155.715 C 1568.800 1155.153, 1561.940 1153.660, 1551.500 1148.532 C 1535.674 1140.758, 1522.332 1123.440, 1517.964 1105 C 1516.275 1097.871, 1516.249 1085.958, 1517.907 1079 C 1520.070 1069.927, 1525.576 1059.519, 1531.282 1053.720 C 1536.954 1047.955, 1541.688 1045.291, 1548.267 1044.165 L 1552.500 1043.441 1555.500 1048.437 C 1559.702 1055.434, 1563.860 1058, 1571 1058 C 1589.804 1058, 1590.913 1036.254, 1572.553 1027.568 C 1554.605 1019.078, 1532.857 1023.772, 1517.500 1039.453 C 1509.160 1047.968, 1504.775 1055.061, 1500.901 1066.300 C 1491.195 1094.457, 1497.264 1123.130, 1518.254 1148.287 C 1525.284 1156.712, 1538.334 1165.598, 1550 1169.902 C 1559.116 1173.265, 1567.744 1174.893, 1583.258 1176.178 C 1634.423 1180.414, 1678.652 1161.989, 1705.902 1125.086 C 1725.526 1098.509, 1732.156 1065.359, 1723.918 1035 C 1714.023 998.533, 1680.384 971.422, 1632.847 961.603 C 1613.868 957.683, 1601.333 956.774, 1573.500 957.298 C 1532.030 958.079, 1498.974 963.154, 1412.500 982.014 C 1353.817 994.814, 1311.882 1000.356, 1274 1000.320 C 1221.261 1000.269, 1189.273 990.015, 1166.571 965.882 C 1145.076 943.033, 1138.408 906.061, 1147.075 857.793 C 1150.419 839.171, 1158.272 810.270, 1164.772 792.664 L 1167.295 785.829 1170.033 790.164 C 1176.813 800.899, 1184.818 805.234, 1197.921 805.265 C 1209.005 805.292, 1217.134 803.177, 1229.500 797.049 C 1257.033 783.407, 1280.079 757.698, 1289.436 730.189 C 1296.189 710.333, 1295.128 691.394, 1286.240 673.167 C 1279.268 658.868, 1265.778 648.933, 1246.500 643.899 C 1235.801 641.106, 1207.724 640.296, 1198 642.500 M 1375.537 648.250 C 1355.667 701.706, 1268.593 939.079, 1268.241 940.750 L 1267.767 943 1305.953 943 L 1344.139 943 1348.970 932.750 C 1351.628 927.112, 1359.416 909.675, 1366.278 894 C 1400.145 816.637, 1421.615 773.362, 1443.063 739.238 C 1458.561 714.579, 1478.288 692.802, 1490.307 687.083 C 1503.093 680.998, 1513.169 682.052, 1514.589 689.621 C 1515.889 696.553, 1514.304 709.118, 1510.606 721.200 C 1508.636 727.634, 1498.541 755.759, 1488.174 783.700 C 1469.073 835.176, 1467.524 839.814, 1464.373 855 C 1461.929 866.778, 1461.920 889.095, 1464.355 898 C 1469.265 915.952, 1479.296 928.703, 1494.159 935.886 C 1509.161 943.136, 1521.293 944.634, 1535.532 940.992 C 1552.472 936.659, 1564.522 928.593, 1585.500 907.544 C 1600.078 892.916, 1610.686 880.132, 1624.231 860.865 C 1628.625 854.614, 1631.969 850.400, 1631.662 851.500 C 1628.236 863.770, 1627.879 886.541, 1630.927 898.314 C 1636.454 919.655, 1651.796 935.007, 1673.295 940.710 C 1697.547 947.144, 1724.645 936.105, 1749.778 909.553 C 1760.348 898.387, 1769.442 886.990, 1778.740 873.259 C 1782.926 867.077, 1786.502 862.169, 1786.686 862.352 C 1786.869 862.536, 1786.142 867.819, 1785.070 874.093 C 1778.635 911.740, 1780.280 955.694, 1789.460 991.356 C 1804.513 1049.836, 1841.469 1096.216, 1894.500 1123.182 C 1927.363 1139.893, 1970.182 1148.801, 2004.345 1146.033 C 2027.695 1144.142, 2043.376 1139.904, 2063.500 1130.048 C 2083.779 1120.116, 2098.051 1108.188, 2108.625 1092.336 C 2117.879 1078.461, 2122 1064.956, 2122 1048.500 C 2122 1026.878, 2113.890 1007.236, 2098.167 990.779 C 2072.672 964.094, 2034.308 954.668, 1996.027 965.683 C 1984.625 968.963, 1976.827 973.280, 1969.016 980.636 C 1956.531 992.393, 1950.536 1006.354, 1950.609 1023.500 C 1950.700 1044.781, 1960.306 1062.598, 1975.799 1070.219 C 1982.112 1073.325, 1983.057 1073.500, 1993.484 1073.500 C 2006.032 1073.500, 2009.043 1072.432, 2013.698 1066.329 C 2017.506 1061.337, 2017.639 1054.378, 2014 1050.489 C 2007.207 1043.227, 1998.192 1042.771, 1984.059 1048.974 C 1971.980 1054.276, 1966.348 1052.446, 1963.386 1042.257 C 1961.074 1034.302, 1961.917 1026.088, 1965.846 1018.304 C 1974.106 1001.943, 1991.857 992.646, 2015 992.564 C 2029.875 992.510, 2041.066 996.342, 2053.153 1005.626 C 2063.277 1013.402, 2070.897 1025.324, 2074.593 1039.169 C 2076.904 1047.825, 2076.904 1065.383, 2074.594 1073.920 C 2067.057 1101.774, 2041.495 1122.742, 2008.607 1128.047 C 1999.040 1129.591, 1975.348 1128.745, 1965.150 1126.496 C 1945.920 1122.256, 1921.733 1111.744, 1908.898 1102.049 C 1893.653 1090.534, 1878.363 1071.651, 1868.703 1052.409 C 1844.944 1005.081, 1842.200 934.710, 1861.393 864.918 C 1863.296 857.997, 1882.053 805.572, 1903.075 748.418 C 1924.097 691.263, 1941.509 643.707, 1941.768 642.738 C 1942.213 641.075, 1940.076 640.991, 1903.458 641.238 L 1864.677 641.500 1858.360 659.389 C 1829.658 740.660, 1788.240 820.469, 1750.618 867 C 1732.250 889.717, 1712.077 904.788, 1705.063 901.034 C 1698.095 897.305, 1698.046 878.637, 1704.946 856.500 C 1705.975 853.200, 1716.256 824.850, 1727.794 793.500 C 1775.188 664.723, 1783 643.308, 1783 642.169 C 1783 641.262, 1773.876 641.039, 1744.846 641.238 L 1706.693 641.500 1690.851 684.500 C 1658.280 772.907, 1661.638 764.658, 1652.051 779.809 C 1620.046 830.392, 1598.159 860.428, 1578.051 881.360 C 1563.929 896.060, 1550.430 904.433, 1541.854 903.811 C 1538.256 903.550, 1537.198 902.953, 1535.283 900.102 C 1533.339 897.209, 1533 895.406, 1533 887.959 C 1533 875.592, 1536.604 862.430, 1549.965 826 C 1574.729 758.483, 1577.349 750.930, 1581.013 736.500 C 1596.907 673.908, 1580.378 642.314, 1531.496 641.849 C 1514.362 641.686, 1500.569 646.235, 1482.970 657.854 C 1463.921 670.431, 1442.346 693.922, 1429.958 715.573 C 1428.213 718.623, 1426.632 720.966, 1426.445 720.778 C 1426.258 720.591, 1432.606 702.922, 1440.552 681.514 C 1448.499 660.106, 1455 642.232, 1455 641.795 C 1455 641.358, 1437.727 641, 1416.616 641 L 1378.232 641 1375.537 648.250 M 1241 675.937 C 1229.284 679.523, 1216.734 690.992, 1204.815 709.003 C 1195.407 723.221, 1183.202 744.901, 1178.311 756.083 C 1172.177 770.105, 1173.638 778.711, 1183.051 784 C 1186.972 786.203, 1188.686 786.500, 1197.500 786.500 C 1205.346 786.500, 1208.937 786.003, 1214.173 784.194 C 1227.242 779.678, 1240.171 768.331, 1251.551 751.389 C 1267.721 727.316, 1272.180 700.658, 1262.672 684.891 C 1257.780 676.776, 1249.472 673.344, 1241 675.937 M 2014.981 685.318 C 1993.051 694.341, 1974.543 713.698, 1961.482 741.270 C 1953.972 757.124, 1949.442 773.677, 1942.612 810.229 C 1938.898 830.101, 1927.667 858.118, 1917.773 872.191 C 1916.814 873.556, 1916.944 874.281, 1918.447 875.941 C 1921.050 878.817, 1921.666 878.579, 1924.111 873.750 C 1928.158 865.759, 1936.254 854.991, 1942.879 848.790 C 1948.989 843.071, 1955.084 838.413, 1988.932 813.594 C 2003.687 802.775, 2018.784 788.083, 2025.429 778.078 C 2032.071 768.076, 2040.488 751.786, 2044.034 742.069 C 2049.831 726.186, 2052.372 707.480, 2049.928 698.679 C 2048.572 693.798, 2042.644 687.208, 2037.500 684.866 C 2031.748 682.246, 2021.970 682.443, 2014.981 685.318 M 539.818 767.900 C 530.220 773.987, 527.044 788.423, 533.241 797.788 C 536.621 802.896, 543.677 806.426, 550.500 806.423 C 567.055 806.415, 576.993 784.653, 566.265 771.903 C 560.106 764.583, 547.950 762.743, 539.818 767.900 M 359.568 784.020 C 337.388 788.056, 319.555 796.104, 306.939 807.770 C 298.417 815.651, 295 822.079, 295 830.228 C 295 837.172, 296.942 842.292, 301.301 846.835 C 305.239 850.941, 308.594 852.739, 316.578 855.022 C 337.757 861.079, 373.228 859.933, 396.268 852.449 C 404.968 849.623, 422.965 840.726, 433.533 834.027 C 464.481 814.411, 470.465 810.786, 478.913 806.543 C 488.468 801.745, 499.993 798.322, 510.500 797.162 C 515.564 796.603, 516.547 796.174, 516.798 794.412 C 517.348 790.567, 515.039 789.891, 507.045 791.558 C 492.745 794.539, 458.631 793.423, 441 789.397 C 410.918 782.527, 379.258 780.436, 359.568 784.020 M 2050.500 800.499 C 2042.027 802.392, 2036.794 804.414, 2027.309 809.460 C 2010.494 818.405, 1996.900 830.798, 1977.358 855 C 1962.989 872.796, 1945.589 888.628, 1933.878 894.562 C 1928.921 897.074, 1928.530 897.611, 1929.607 900.418 C 1930.431 902.565, 1931.285 902.425, 1935.706 899.421 C 1942.087 895.083, 1953.197 890.157, 1960.330 888.503 C 1964.055 887.639, 1977.993 885.380, 1991.302 883.482 C 2025.045 878.670, 2035.672 875.584, 2051.430 866.018 C 2074.930 851.753, 2093 831.235, 2093 818.819 C 2093 811.153, 2086.444 802.803, 2078.596 800.473 C 2072.509 798.665, 2058.652 798.678, 2050.500 800.499 M 529.405 812.152 C 528.357 813.335, 524.575 816.209, 521 818.538 C 508.515 826.671, 494.199 833.005, 471.261 840.545 C 458.742 844.659, 443.970 850.238, 438.434 852.941 C 417.831 863.001, 400.561 879.004, 392.255 895.732 C 387.684 904.938, 387.500 905.643, 387.500 913.979 C 387.500 921.945, 387.729 922.949, 390.317 926.345 C 396.070 933.895, 402.261 935.726, 414 933.350 C 432.621 929.580, 457.169 915.353, 470.893 900.376 C 479.051 891.473, 485.467 881.925, 497.199 861.229 C 512.925 833.488, 519.144 825.604, 532.807 816.086 C 535.964 813.887, 536.036 813.697, 534.402 811.891 C 532.232 809.494, 531.735 809.520, 529.405 812.152 M 552.250 822.153 C 550.497 828.854, 542.771 840.688, 532.326 852.667 C 522.891 863.488, 516.740 872.875, 513.278 881.737 C 511.044 887.454, 510.625 890.123, 510.568 899 C 510.491 910.883, 511.968 915.368, 516.920 918.294 C 522.787 921.760, 528.232 919.951, 534.967 912.300 C 540.530 905.980, 545.696 896.575, 548.772 887.167 C 551.159 879.865, 551.272 878.462, 551.141 857.670 C 551.010 836.851, 551.120 835.496, 553.502 828.399 C 556.458 819.593, 556.414 820, 554.406 820 C 553.530 820, 552.559 820.969, 552.250 822.153 M 1891.500 886.176 C 1883.277 889.254, 1879.012 895.698, 1879.005 905.054 C 1878.995 918.034, 1887.371 925.600, 1900.904 924.836 C 1913.360 924.132, 1920 917.143, 1920 904.736 C 1920 892.904, 1912.973 885.912, 1900.500 885.332 C 1897.200 885.178, 1893.150 885.558, 1891.500 886.176 M 1990.091 907.110 C 1986.566 907.643, 1977.116 910.305, 1969.091 913.026 C 1952.383 918.690, 1946.236 920.046, 1936.750 920.160 C 1931.211 920.227, 1930 920.533, 1930.002 921.871 C 1930.003 923.201, 1931.333 923.550, 1937.252 923.773 C 1943.411 924.005, 1946.528 924.881, 1958 929.611 C 1978.073 937.885, 1983.955 939.859, 1991.902 940.986 C 2007.011 943.129, 2027.744 938.441, 2033.228 931.642 C 2035.339 929.025, 2035.504 922.876, 2033.565 919.127 C 2029.004 910.305, 2007.768 904.435, 1990.091 907.110 M 641.219 969.559 C 639.999 970.414, 639 971.683, 639 972.379 C 639 974.733, 647.886 991.921, 653.088 999.631 C 662.364 1013.377, 684.314 1034, 689.669 1034 C 690.898 1034, 693.698 1036.297, 696.759 1039.816 L 701.817 1045.632 688.658 1041.857 C 666.054 1035.373, 650.800 1033.652, 636.574 1035.982 C 630.632 1036.955, 629.044 1038.048, 629.015 1041.183 C 628.982 1044.895, 653.671 1057.395, 670.053 1061.959 C 681.424 1065.126, 698.758 1066.583, 709.535 1065.276 C 720.107 1063.994, 719.787 1063.871, 730 1073.125 C 746.277 1087.874, 766.783 1103.096, 790.694 1118.178 C 797.737 1122.621, 802.360 1125.989, 800.967 1125.663 C 794.831 1124.228, 779.461 1123.016, 767.301 1123.008 C 745.578 1122.995, 723.719 1126.535, 701.667 1133.639 C 687.355 1138.250, 684.996 1139.473, 685.015 1142.276 C 685.039 1145.753, 685.891 1146.431, 695.859 1150.900 C 735.683 1168.757, 783.262 1164.198, 817.529 1139.242 L 821.558 1136.308 836.563 1143.579 C 854.113 1152.083, 877.474 1161.909, 894.723 1168.041 C 901.446 1170.431, 906.846 1172.472, 906.723 1172.576 C 906.600 1172.681, 896.198 1176.214, 883.607 1180.428 C 846.388 1192.885, 829.836 1201.840, 817.250 1216.328 C 813.608 1220.521, 813.188 1223.045, 815.713 1225.571 C 817.240 1227.097, 819.124 1227.218, 832.963 1226.680 C 842.557 1226.308, 852.210 1225.293, 858.199 1224.028 C 885.211 1218.323, 911.978 1204.350, 931.705 1185.656 L 935.911 1181.671 946.705 1184.327 C 952.642 1185.788, 964.025 1188.301, 972 1189.912 C 983.627 1192.261, 1007.068 1197.436, 1025 1201.613 C 1026.988 1202.076, 1026.040 1202.570, 1020.373 1204.021 C 992.939 1211.050, 967.070 1236.994, 956.447 1268.134 C 951.095 1283.822, 953.543 1286.888, 969.114 1284.001 C 981.715 1281.665, 995.171 1272.605, 1014.551 1253.410 C 1032.153 1235.977, 1040.732 1223.311, 1042.907 1211.547 C 1043.504 1208.317, 1044.195 1205.472, 1044.443 1205.224 C 1044.690 1204.976, 1055.829 1205.933, 1069.196 1207.349 C 1089.971 1209.550, 1107.779 1211.185, 1137.653 1213.634 L 1143.805 1214.138 1137.356 1220.683 C 1131.242 1226.888, 1118.023 1245.838, 1111.213 1258.159 C 1102.792 1273.395, 1095.705 1293.537, 1091.989 1312.797 C 1089.591 1325.222, 1089.559 1326.416, 1091.571 1328.429 C 1094.183 1331.040, 1096.881 1330.262, 1105.889 1324.303 C 1123.006 1312.978, 1141.153 1291.651, 1150.394 1272 C 1156.791 1258.396, 1159.211 1248.144, 1159.364 1234 C 1159.439 1227.125, 1159.275 1219.925, 1159 1218 L 1158.500 1214.500 1175 1214.346 C 1209.087 1214.029, 1237.817 1212.110, 1261.500 1208.568 C 1266.450 1207.828, 1270.622 1207.331, 1270.770 1207.464 C 1270.919 1207.598, 1268.247 1211.035, 1264.832 1215.103 C 1247.039 1236.304, 1234.130 1263.033, 1227.580 1292.237 C 1223.947 1308.435, 1224.272 1312, 1229.381 1312 C 1235.176 1312, 1261.312 1286.749, 1271.831 1270.986 C 1278.827 1260.503, 1286.695 1245.006, 1290.103 1235 C 1293.046 1226.355, 1293.879 1211.468, 1291.667 1207.034 C 1290.513 1204.721, 1290.417 1203.804, 1291.301 1203.540 C 1291.961 1203.342, 1299.475 1201.555, 1308 1199.568 C 1316.525 1197.581, 1327.775 1194.667, 1333 1193.092 C 1338.225 1191.518, 1342.645 1190.360, 1342.821 1190.519 C 1342.998 1190.679, 1340.629 1195.015, 1337.558 1200.155 C 1320.116 1229.340, 1312.665 1268.455, 1317.509 1305.407 C 1319.276 1318.891, 1320.143 1321.593, 1322.992 1322.497 C 1326.446 1323.594, 1329.290 1320.816, 1337.846 1307.987 C 1351.680 1287.245, 1361.168 1265.059, 1366.142 1241.822 C 1367.993 1233.175, 1368.364 1228.173, 1368.426 1211 C 1368.467 1199.725, 1368.180 1188.427, 1367.789 1185.893 L 1367.077 1181.286 1374.289 1178.482 C 1394.028 1170.806, 1419.507 1157.327, 1440.857 1143.266 C 1456.469 1132.984, 1458.058 1131.259, 1453.734 1129.289 C 1451.773 1128.395, 1449.571 1129.425, 1437.344 1136.960 C 1429.576 1141.747, 1416.083 1149.298, 1407.360 1153.741 C 1392.483 1161.319, 1366.315 1173, 1364.217 1173 C 1363.698 1173, 1363.038 1170.064, 1362.750 1166.476 C 1361.852 1155.284, 1352.083 1137.826, 1333.889 1114.902 C 1322.541 1100.603, 1307.712 1087.940, 1294.500 1081.266 C 1287.244 1077.601, 1275.638 1073.874, 1273.303 1074.460 C 1268.959 1075.550, 1269.457 1078.948, 1275.815 1091.616 C 1294.523 1128.891, 1323.406 1159.920, 1349.732 1171.027 C 1353.429 1172.587, 1356.593 1174.278, 1356.762 1174.785 C 1357.611 1177.334, 1301.120 1193.808, 1289.786 1194.316 L 1285.679 1194.500 1284.457 1187.500 C 1279.794 1160.806, 1261.897 1135.221, 1235.907 1118.099 C 1224.729 1110.735, 1222.550 1110.006, 1219.836 1112.719 C 1217.860 1114.695, 1217.860 1114.728, 1219.898 1123.308 C 1226.613 1151.582, 1245.239 1179.660, 1267.004 1194.317 L 1272.179 1197.802 1269.339 1198.364 C 1249.940 1202.207, 1204.366 1205.937, 1176.269 1205.981 C 1162.418 1206.003, 1163.733 1206.923, 1162.541 1196.365 C 1159.303 1167.674, 1138.035 1132.399, 1110.500 1110.047 C 1096.179 1098.422, 1091.712 1096.232, 1088.998 1099.502 C 1087.329 1101.514, 1088.040 1104.630, 1094.109 1121.904 C 1107.030 1158.680, 1118.966 1180.108, 1135.800 1196.750 C 1140.390 1201.287, 1143.550 1204.998, 1142.823 1204.996 C 1127.293 1204.948, 1048.370 1196.083, 1045.015 1194.009 C 1044.138 1193.467, 1044.115 1191.831, 1044.923 1187.460 C 1047.650 1172.708, 1044.745 1145.594, 1038.363 1126.233 C 1033.127 1110.345, 1018.843 1085.564, 1012.544 1081.437 C 1008.602 1078.854, 1006.285 1080.869, 1005.442 1087.614 C 1004.166 1097.831, 1005.652 1128.582, 1007.935 1139.199 C 1011.891 1157.600, 1019.472 1175.556, 1028.048 1186.841 L 1032.107 1192.183 1029.304 1191.633 C 1027.762 1191.331, 1019.975 1189.744, 1012 1188.106 C 1004.025 1186.468, 991.425 1183.958, 984 1182.528 C 973.526 1180.511, 934.101 1170.497, 933.353 1169.664 C 933.272 1169.574, 934.099 1166.125, 935.191 1162 C 937.995 1151.403, 938.608 1134.017, 936.606 1121.815 C 933.650 1103.795, 926.537 1087.445, 915.037 1072.237 C 906.868 1061.435, 903.878 1058.771, 900.372 1059.173 C 897.783 1059.469, 897.439 1059.969, 896.714 1064.500 C 895.658 1071.095, 896.696 1093.948, 898.622 1106.500 C 901.301 1123.966, 906.997 1143.891, 913.535 1158.675 C 914.830 1161.604, 915.520 1164, 915.068 1164 C 913.278 1164, 886.663 1154.502, 872.502 1148.809 C 858.416 1143.147, 825.139 1127.627, 820.319 1124.472 L 818.138 1123.044 821.071 1117.174 C 826.138 1107.034, 828.217 1097.102, 828.225 1083 C 828.237 1060.220, 821.622 1040.187, 807.998 1021.750 C 803.787 1016.051, 802.548 1015, 800.040 1015 C 796.087 1015, 795.434 1016.517, 794.110 1028.789 C 791.568 1052.352, 793.407 1079.453, 799.075 1101.938 C 800.660 1108.229, 801.835 1113.498, 801.686 1113.647 C 801.186 1114.147, 772.577 1094.558, 762.281 1086.666 C 751.721 1078.572, 731.813 1061.730, 728.740 1058.290 C 727.050 1056.399, 727.103 1056.050, 730.078 1049.487 C 738.383 1031.171, 737.984 1009.322, 729.001 990.500 C 724.226 980.494, 721.521 977, 718.550 977 C 715.128 977, 714.332 978.557, 712.065 989.681 C 709.385 1002.834, 709.272 1022.773, 711.807 1035.173 C 713.934 1045.575, 713.854 1045.572, 703.347 1034.820 C 697.165 1028.492, 696.048 1026.789, 695.109 1022.253 C 691.039 1002.594, 674.569 982.807, 653.500 972.263 C 645.129 968.074, 643.767 967.774, 641.219 969.559 M 1870.942 1157.917 C 1864.203 1160.044, 1860.044 1165.610, 1860.044 1172.500 C 1860.044 1177.384, 1863.460 1183.667, 1867.171 1185.610 C 1871.504 1187.877, 1878.991 1187.891, 1882.430 1185.638 C 1891.035 1180, 1891.246 1165.071, 1882.798 1159.628 C 1879.817 1157.708, 1874.181 1156.894, 1870.942 1157.917 M 1808.340 1175.435 C 1802.077 1177.394, 1798.450 1180.456, 1795.586 1186.203 C 1789.364 1198.690, 1794.315 1214.823, 1805.867 1219.703 C 1810.531 1221.673, 1821.086 1221.528, 1825.500 1219.433 C 1830.230 1217.188, 1835.765 1210.580, 1837.126 1205.553 C 1838.504 1200.460, 1837.755 1190.360, 1835.704 1186.394 C 1833.128 1181.413, 1827.886 1177.043, 1822.603 1175.475 C 1816.670 1173.713, 1813.871 1173.705, 1808.340 1175.435 M 1495 1190.690 C 1489.087 1191.679, 1479.697 1195.397, 1474.310 1198.882 C 1444.526 1218.148, 1440.221 1266.289, 1465.982 1292.007 C 1476.892 1302.898, 1488.972 1307.495, 1506.500 1307.426 C 1522.825 1307.362, 1535.785 1302.255, 1546.072 1291.833 C 1572.669 1264.885, 1566.332 1214.194, 1534.179 1196.694 C 1524.348 1191.343, 1506.997 1188.684, 1495 1190.690 M 1730.056 1192.595 C 1721.360 1194.933, 1715.611 1199.935, 1711.205 1209 C 1708.907 1213.727, 1708.533 1215.765, 1708.546 1223.500 C 1708.556 1230.460, 1709.030 1233.532, 1710.635 1237.051 C 1713.383 1243.075, 1718.225 1248.460, 1723.887 1251.788 C 1728.113 1254.272, 1729.382 1254.500, 1739 1254.500 C 1750.952 1254.500, 1754.624 1253.149, 1761.201 1246.335 C 1767.303 1240.012, 1769.489 1233.992, 1769.495 1223.500 C 1769.504 1206.794, 1762.006 1196.320, 1747.294 1192.488 C 1740.336 1190.676, 1737.121 1190.696, 1730.056 1192.595 M 1626 1199.017 C 1606.474 1201.767, 1592.982 1215.655, 1589.828 1236.250 C 1586.630 1257.135, 1596.336 1277.054, 1613.725 1285.291 C 1620.231 1288.373, 1620.998 1288.500, 1633.052 1288.500 C 1645.554 1288.500, 1645.634 1288.485, 1653.237 1284.728 C 1662.137 1280.329, 1667.861 1274.499, 1672.119 1265.496 C 1682.181 1244.221, 1676.119 1218.122, 1658.263 1205.837 C 1649.756 1199.984, 1637.512 1197.396, 1626 1199.017" stroke="none" fill="#ffffff" fill-rule="evenodd"/>
</svg>