<?xml version="1.0" encoding="UTF-8"?>
<svg version="1.1" xmlns="http://www.w3.org/2000/svg" width="455" height="460">
<path d="M0 0 C150.15 0 300.3 0 455 0 C455 151.8 455 303.6 455 460 C304.85 460 154.7 460 0 460 C0 308.2 0 156.4 0 0 Z " fill="#470A32" transform="translate(0,0)"/>
<path d="M0 0 C3.15572697 1.30236351 6.4059383 2.30315727 9.65234375 3.3515625 C16.79562319 5.69301481 23.50882012 8.53874683 30.21484375 11.9140625 C30.21484375 12.5740625 30.21484375 13.2340625 30.21484375 13.9140625 C31.53484375 13.9140625 32.85484375 13.9140625 34.21484375 13.9140625 C34.21484375 14.5740625 34.21484375 15.2340625 34.21484375 15.9140625 C34.93542969 16.16285156 35.65601563 16.41164063 36.3984375 16.66796875 C41.70734029 19.0168453 45.85950121 23.13887712 50.21484375 26.9140625 C50.72563477 27.35492188 51.23642578 27.79578125 51.76269531 28.25 C67.84540532 42.24023926 80.04443395 59.39876838 86.21484375 79.9140625 C86.75257442 81.47792143 87.29378043 83.04059361 87.83984375 84.6015625 C97.87988247 115.17804406 95.13120294 148.37703159 80.70214844 177.01831055 C73.62940882 190.73469607 64.84674732 201.82538085 54.21484375 212.9140625 C53.64378906 213.5328125 53.07273437 214.1515625 52.484375 214.7890625 C51.21484375 215.9140625 51.21484375 215.9140625 49.21484375 215.9140625 C49.21484375 209.3140625 49.21484375 202.7140625 49.21484375 195.9140625 C51.42838542 194.80729167 53.64192708 193.70052083 55.85546875 192.59375 C58.94907573 190.39134768 60.35452038 188.22920487 62.21484375 184.9140625 C62.8496298 181.2513649 62.8496298 181.2513649 62.82421875 177.328125 C62.8701416 175.40154053 62.8701416 175.40154053 62.91699219 173.43603516 C62.9327832 171.82003418 62.94857422 170.2040332 62.96484375 168.5390625 C63.04734375 163.3828125 63.12984375 158.2265625 63.21484375 152.9140625 C52.65484375 152.9140625 42.09484375 152.9140625 31.21484375 152.9140625 C31.29734375 157.8846875 31.37984375 162.8553125 31.46484375 167.9765625 C31.48063477 169.53125244 31.49642578 171.08594238 31.51269531 172.68774414 C31.57645269 182.54449423 31.57645269 182.54449423 36.21484375 190.9140625 C37.59859712 191.65706473 38.99553259 192.37585777 40.40234375 193.07421875 C43.22802091 194.68204481 44.0581812 195.38087576 44.98828125 198.54638672 C45.29492205 201.84950898 45.30615054 205.03598468 45.21484375 208.3515625 C45.24578125 209.47111328 45.27671875 210.59066406 45.30859375 211.74414062 C45.23357087 219.64498776 45.23357087 219.64498776 42.65112305 222.86206055 C40.58595163 224.4507125 38.51177436 225.68738897 36.21484375 226.9140625 C34.88726323 227.75531604 33.56042849 228.59774774 32.234375 229.44140625 C16.52703198 238.6177032 -3.26850941 247.11829022 -21.78515625 246.9140625 C-21.84050537 245.88112061 -21.89585449 244.84817871 -21.95288086 243.78393555 C-22.16145125 239.90166203 -22.37270642 236.01953822 -22.5847168 232.13745117 C-22.67560307 230.46659158 -22.76578949 228.79569375 -22.85522461 227.12475586 C-23.41051491 216.22927181 -23.41051491 216.22927181 -24.31640625 205.359375 C-25.46520405 193.56014636 -25.37141907 181.60571854 -25.61206055 169.75946045 C-25.7125835 165.11503804 -25.89699421 160.48617481 -26.1640625 155.84765625 C-26.81909812 142.39773602 -26.81909812 142.39773602 -23.953125 138.28515625 C-21.65059946 136.51721376 -19.3512473 135.25533026 -16.78515625 133.9140625 C-8.46156053 125.50945855 -8.32437267 114.39446754 -8.2734375 103.25390625 C-8.25656091 101.85427812 -8.23840674 100.45466486 -8.21903992 99.05506897 C-8.17185643 95.40065158 -8.14184381 91.74629454 -8.11560059 88.0916748 C-8.08563372 84.35070888 -8.03915953 80.60995033 -7.99414062 76.86914062 C-7.90846854 69.55088488 -7.84096454 62.23261345 -7.78515625 54.9140625 C-10.09515625 54.9140625 -12.40515625 54.9140625 -14.78515625 54.9140625 C-14.7751635 55.92217484 -14.7751635 55.92217484 -14.76496887 56.95065308 C-14.69876199 63.92554963 -14.65341673 70.90035741 -14.62036133 77.87548828 C-14.60524517 80.48099389 -14.58475193 83.08647394 -14.55883789 85.69189453 C-14.52257937 89.43007706 -14.50545827 93.16792415 -14.4921875 96.90625 C-14.47670364 98.07711151 -14.46121979 99.24797302 -14.44526672 100.45431519 C-14.44492683 102.0757695 -14.44492683 102.0757695 -14.44458008 103.72998047 C-14.43458733 105.16227493 -14.43458733 105.16227493 -14.4243927 106.62350464 C-14.54344467 107.37938873 -14.66249664 108.13527283 -14.78515625 108.9140625 C-17.78515625 110.9140625 -17.78515625 110.9140625 -21.78515625 110.9140625 C-21.78515625 92.7640625 -21.78515625 74.6140625 -21.78515625 55.9140625 C-23.76515625 55.9140625 -25.74515625 55.9140625 -27.78515625 55.9140625 C-27.78515625 74.0640625 -27.78515625 92.2140625 -27.78515625 110.9140625 C-30.42515625 110.9140625 -33.06515625 110.9140625 -35.78515625 110.9140625 C-35.78515625 92.4340625 -35.78515625 73.9540625 -35.78515625 54.9140625 C-37.76515625 54.9140625 -39.74515625 54.9140625 -41.78515625 54.9140625 C-41.78515625 73.3940625 -41.78515625 91.8740625 -41.78515625 110.9140625 C-47.78515625 109.9140625 -47.78515625 109.9140625 -48.78515625 108.9140625 C-48.87868788 107.22604265 -48.90260416 105.53411043 -48.89868164 103.84350586 C-48.89856834 102.22193825 -48.89856834 102.22193825 -48.89845276 100.56761169 C-48.89329147 99.3915889 -48.88813019 98.2155661 -48.8828125 97.00390625 C-48.88139755 95.80673477 -48.8799826 94.60956329 -48.87852478 93.37611389 C-48.87290604 89.53457184 -48.86035036 85.69308707 -48.84765625 81.8515625 C-48.84264366 79.25455813 -48.83808034 76.65755285 -48.83398438 74.06054688 C-48.82293052 67.67836571 -48.80617417 61.2962182 -48.78515625 54.9140625 C-51.09515625 54.9140625 -53.40515625 54.9140625 -55.78515625 54.9140625 C-55.70051015 63.12062264 -55.60553441 71.32697245 -55.49762917 79.53325653 C-55.44783514 83.34440013 -55.40150471 87.15551827 -55.36328125 90.96679688 C-55.32621361 94.6498013 -55.27979776 98.33258345 -55.22709274 102.01539612 C-55.2086622 103.41545179 -55.1935131 104.8155549 -55.18181229 106.21568298 C-55.14141303 116.73978093 -55.14141303 116.73978093 -52.78515625 126.9140625 C-52.12515625 127.2440625 -51.46515625 127.5740625 -50.78515625 127.9140625 C-50.39328125 128.6359375 -50.00140625 129.3578125 -49.59765625 130.1015625 C-46.6005662 134.75221948 -42.35309729 137.86876848 -37.78515625 140.9140625 C-37.48876953 143.69311523 -37.48876953 143.69311523 -37.60546875 147.34765625 C-37.62370697 148.02822586 -37.64194519 148.70879547 -37.66073608 149.4099884 C-37.72798673 151.72464142 -37.81866602 154.03774878 -37.91015625 156.3515625 C-37.96486976 157.99900109 -38.01888575 159.64646297 -38.07226562 161.29394531 C-38.80537545 182.66088646 -39.94518957 204.0177059 -41.06640625 225.3671875 C-41.12371918 226.48567581 -41.1810321 227.60416412 -41.24008179 228.75654602 C-41.40378257 231.81047887 -41.58879541 234.86207235 -41.78515625 237.9140625 C-41.83825455 238.86140259 -41.89135284 239.80874268 -41.94606018 240.78479004 C-42.01034714 241.67017456 -42.07463409 242.55555908 -42.14086914 243.46777344 C-42.19207413 244.23990173 -42.24327911 245.01203003 -42.29603577 245.80755615 C-43.2634109 249.97377272 -46.53067431 252.31049272 -49.72265625 254.9140625 C-51.09901999 256.11171582 -52.47401681 257.3109418 -53.84765625 258.51171875 C-54.52183594 259.08809082 -55.19601563 259.66446289 -55.890625 260.25830078 C-58.46653104 262.50956299 -60.83543488 264.90093056 -63.22265625 267.3515625 C-71.61262584 275.82557186 -71.61262584 275.82557186 -75.78515625 278.9140625 C-76.44515625 278.9140625 -77.10515625 278.9140625 -77.78515625 278.9140625 C-77.78515625 277.5940625 -77.78515625 276.2740625 -77.78515625 274.9140625 C-78.44515625 274.9140625 -79.10515625 274.9140625 -79.78515625 274.9140625 C-80.89448669 270.70707362 -81.99662646 266.49823071 -83.09765625 262.2890625 C-83.40638672 261.11859375 -83.71511719 259.948125 -84.03320312 258.7421875 C-84.49243164 256.98261719 -84.49243164 256.98261719 -84.9609375 255.1875 C-85.23848877 254.12966309 -85.51604004 253.07182617 -85.80200195 251.98193359 C-85.94880402 251.37215668 -86.09560608 250.76237976 -86.24685669 250.13412476 C-86.65866591 248.43573565 -87.0993557 246.74432508 -87.55270386 245.05654907 C-89.92819526 235.43371196 -90.21285873 226.24932434 -90.19584656 216.38112259 C-90.19130271 213.51276324 -90.20554729 210.64499968 -90.22424316 207.77670288 C-90.26688642 200.66476314 -90.27827711 193.5528411 -90.29046631 186.4407959 C-90.30202246 180.40038505 -90.32563324 174.36025227 -90.36515808 168.31995773 C-90.37865288 165.50595888 -90.37457412 162.69234448 -90.36975098 159.87832642 C-90.37909442 158.14495359 -90.38926395 156.41158495 -90.40039062 154.67822266 C-90.3942424 153.9061145 -90.38809418 153.13400635 -90.38175964 152.33850098 C-90.44919749 146.32688653 -91.49143262 140.61440078 -95.50390625 135.890625 C-96.385625 135.22160156 -96.385625 135.22160156 -97.28515625 134.5390625 C-97.87296875 134.07757813 -98.46078125 133.61609375 -99.06640625 133.140625 C-100.61742632 132.03376067 -102.19971025 130.9710265 -103.78515625 129.9140625 C-104.05227029 127.36010763 -104.13364654 125.05131876 -104.078125 122.5 C-104.07388016 121.77036041 -104.06963531 121.04072083 -104.06526184 120.28897095 C-104.04844978 117.95529491 -104.01079493 115.6224781 -103.97265625 113.2890625 C-103.95761259 111.70834579 -103.94392363 110.12761557 -103.93164062 108.546875 C-103.90108756 104.66867239 -103.8423766 100.79233067 -103.78515625 96.9140625 C-108.73515625 96.9140625 -113.68515625 96.9140625 -118.78515625 96.9140625 C-118.78515625 108.1340625 -118.78515625 119.3540625 -118.78515625 130.9140625 C-122.25015625 132.8940625 -122.25015625 132.8940625 -125.78515625 134.9140625 C-128.98827218 137.62381641 -130.54207317 140.47898067 -131.24356079 144.62033081 C-131.45961307 147.89352124 -131.50345342 151.12989727 -131.4921875 154.41015625 C-131.50730881 155.59883804 -131.52243011 156.78751984 -131.53800964 158.01222229 C-131.58084401 161.79219599 -131.58972124 165.5713704 -131.59765625 169.3515625 C-131.62080363 171.92124514 -131.64616945 174.49090883 -131.67382812 177.06054688 C-131.73663883 183.34505971 -131.77160657 189.62926073 -131.78515625 195.9140625 C-135.2549262 194.47607537 -135.70386479 194.07965621 -137.47265625 190.4765625 C-138.27446468 188.30022532 -139.05171639 186.11438208 -139.78515625 183.9140625 C-140.44515625 183.9140625 -141.10515625 183.9140625 -141.78515625 183.9140625 C-142.11515625 181.9340625 -142.44515625 179.9540625 -142.78515625 177.9140625 C-143.44515625 177.9140625 -144.10515625 177.9140625 -144.78515625 177.9140625 C-145.01178955 177.21845215 -145.23842285 176.5228418 -145.47192383 175.80615234 C-146.50902507 172.63219428 -147.55327021 169.4606306 -148.59765625 166.2890625 C-148.95408203 165.19464844 -149.31050781 164.10023438 -149.67773438 162.97265625 C-151.76380526 156.64640507 -151.76380526 156.64640507 -154.484375 150.578125 C-157.13674809 145.14593747 -156.97475423 138.93597902 -157.09375 132.98046875 C-157.10896698 132.23365341 -157.12418396 131.48683807 -157.13986206 130.71739197 C-157.43408412 112.97047299 -156.67835678 96.86529099 -150.78515625 79.9140625 C-150.52943848 79.1715625 -150.2737207 78.4290625 -150.01025391 77.6640625 C-148.72882147 74.02272236 -147.34395189 70.44549333 -145.78515625 66.9140625 C-145.12515625 66.9140625 -144.46515625 66.9140625 -143.78515625 66.9140625 C-143.62950195 66.3586377 -143.47384766 65.80321289 -143.31347656 65.23095703 C-141.53639179 59.37054289 -139.11280576 54.73838001 -135.53515625 49.7890625 C-135.01501953 49.06332031 -134.49488281 48.33757812 -133.95898438 47.58984375 C-118.144916 26.16913865 -94.13125255 7.30812166 -67.70703125 1.6875 C-64.64419473 0.95877836 -64.64419473 0.95877836 -61.37109375 -0.59765625 C-45.11650488 -7.34384183 -16.05967886 -6.95802279 0 0 Z " fill="#FCC5C6" transform="translate(262.78515625,103.0859375)"/>
<path d="M0 0 C0.73784729 0.00021149 1.47569458 0.00042297 2.23590088 0.00064087 C19.94689843 0.05100095 37.60543498 1.35957587 53.6875 9.375 C55.38915535 10.07886653 57.09751601 10.7667624 58.8125 11.4375 C60.00359375 11.91123047 60.00359375 11.91123047 61.21875 12.39453125 C62.0334375 12.71808594 62.848125 13.04164062 63.6875 13.375 C65.56267759 14.12455588 67.43768165 14.87454603 69.3125 15.625 C70.15039062 15.96015625 70.98828125 16.2953125 71.8515625 16.640625 C72.76035156 17.00414062 72.76035156 17.00414062 73.6875 17.375 C73.6875 18.035 73.6875 18.695 73.6875 19.375 C74.8940625 19.684375 74.8940625 19.684375 76.125 20 C91.72068859 26.01938858 108.3601727 41.36926363 118.6875 54.375 C119.31785156 55.11878906 119.94820313 55.86257812 120.59765625 56.62890625 C126.01426247 63.13092104 130.41809426 70.07952724 134.6875 77.375 C135.19667969 78.23867187 135.70585937 79.10234375 136.23046875 79.9921875 C138.56236812 84.05420577 140.26291516 87.89773337 141.6875 92.375 C142.40280884 93.52500488 142.40280884 93.52500488 143.13256836 94.69824219 C158.54932685 121.23762672 156.59995941 162.30046522 149.29296875 190.96484375 C148.78606073 192.85356818 148.27186194 194.7403526 147.75 196.625 C147.50942871 197.49487549 147.26885742 198.36475098 147.02099609 199.26098633 C145.48704729 204.48221419 143.49625815 208.7219368 140.6875 213.375 C139.9172065 215.12833472 139.18187557 216.89792451 138.5 218.6875 C136.73385762 223.28228477 136.73385762 223.28228477 135.6875 225.375 C135.0275 225.375 134.3675 225.375 133.6875 225.375 C133.45160156 226.22707031 133.21570313 227.07914063 132.97265625 227.95703125 C131.53562213 231.77893049 129.53233103 234.81061942 127.125 238.0625 C126.68099854 238.6711792 126.23699707 239.2798584 125.77954102 239.90698242 C111.17530842 259.75575722 94.50909454 274.89126132 72.6875 286.375 C72.0275 286.375 71.3675 286.375 70.6875 286.375 C70.6875 287.035 70.6875 287.695 70.6875 288.375 C54.32532886 294.57857164 54.32532886 294.57857164 48.00390625 296.59375 C46.16237966 297.21483823 44.34061156 297.89444276 42.52734375 298.59375 C41.36332031 299.0371875 40.19929687 299.480625 39 299.9375 C37.94425781 300.35128906 36.88851562 300.76507813 35.80078125 301.19140625 C25.00350394 304.66904822 13.54855664 304.67493344 2.32470703 304.58081055 C0.03016318 304.56223826 -2.26398158 304.56030385 -4.55859375 304.56054688 C-16.70650893 304.52007635 -16.70650893 304.52007635 -20.3125 303.375 C-20.3125 300.375 -20.3125 300.375 -19.09751892 298.79782104 C-14.25707703 294.41461512 -10.75441201 293.49667565 -4.31640625 293.5703125 C-3.48286118 293.55660614 -2.6493161 293.54289978 -1.79051208 293.52877808 C0.84854979 293.49165289 3.48571531 293.49518071 6.125 293.5 C7.92385731 293.48186081 9.72268982 293.46105428 11.52148438 293.4375 C15.91047153 293.38581353 20.29822533 293.37055774 24.6875 293.375 C24.6875 292.715 24.6875 292.055 24.6875 291.375 C25.3172876 291.23924561 25.9470752 291.10349121 26.59594727 290.96362305 C29.48225738 290.33715563 32.36608956 289.69991909 35.25 289.0625 C36.24064453 288.84916016 37.23128906 288.63582031 38.25195312 288.41601562 C43.72815523 287.19706034 48.59006939 285.70107655 53.6875 283.375 C55.6875 283.04166667 57.6875 282.70833333 59.6875 282.375 C60.0175 281.715 60.3475 281.055 60.6875 280.375 C62.29731267 279.56691221 63.91221034 278.76757003 65.54956055 278.0168457 C92.27145722 265.72936257 111.26185673 245.12759206 125.70751953 220.02783203 C126.54680178 218.61230117 127.45285737 217.23673069 128.37109375 215.87109375 C144.42202979 191.89891655 146.30350985 154.74026943 141.62890625 126.99609375 C136.17060363 100.18337913 124.42165842 75.42383621 105.6875 55.375 C104.76904297 54.37146484 104.76904297 54.37146484 103.83203125 53.34765625 C94.71924849 43.8019622 83.77487158 36.40585616 72.6875 29.375 C71.89730469 28.8696875 71.10710937 28.364375 70.29296875 27.84375 C58.87684013 21.03336352 45.49196204 17.49973314 32.6875 14.375 C31.66398438 14.07464844 30.64046875 13.77429688 29.5859375 13.46484375 C17.22747033 10.1682303 4.36581389 11.04068341 -8.3125 11.375 C-9.59664795 11.4061792 -9.59664795 11.4061792 -10.90673828 11.43798828 C-24.09692383 11.81855572 -35.69381613 15.0290489 -48.08349609 19.30541992 C-51.80839758 20.58588035 -55.41069166 21.73891991 -59.3125 22.375 C-59.3125 23.035 -59.3125 23.695 -59.3125 24.375 C-60.31152344 24.77847656 -61.31054688 25.18195313 -62.33984375 25.59765625 C-75.17893354 31.11946414 -86.12769409 39.9738828 -96.3125 49.375 C-97.72789062 50.64923828 -97.72789062 50.64923828 -99.171875 51.94921875 C-104.88689914 57.34215338 -109.61853009 63.16835381 -114.25 69.5 C-114.79406494 70.24008301 -115.33812988 70.98016602 -115.89868164 71.74267578 C-118.97395986 76.06772023 -121.34741258 80.33788999 -123.39379883 85.23144531 C-124.25340173 87.23710926 -125.20312118 89.13322921 -126.2421875 91.05078125 C-134.71072103 106.77008049 -139.27177189 122.49535894 -139.3125 140.375 C-139.33838143 142.58854355 -139.36443664 144.80208506 -139.390625 147.015625 C-139.63214507 169.59416842 -139.63214507 169.59416842 -134.5625 191.4375 C-134.22734375 192.43587891 -133.8921875 193.43425781 -133.546875 194.46289062 C-131.49143732 200.46181008 -129.11954303 206.20934422 -126.38500977 211.93066406 C-124.88319821 215.35341327 -124.07076397 218.72154631 -123.3125 222.375 C-122.6525 222.375 -121.9925 222.375 -121.3125 222.375 C-121.23 222.9525 -121.1475 223.53 -121.0625 224.125 C-120.09926986 227.01469043 -118.46363877 228.22773018 -116.3125 230.375 C-115.11819247 232.00088684 -113.9533935 233.64869698 -112.8125 235.3125 C-108.25060012 241.67873341 -103.07437972 247.30755114 -97.66552734 252.95019531 C-96.54344986 254.13179838 -95.44949986 255.34003824 -94.36328125 256.5546875 C-86.06873747 265.53888997 -74.98796186 272.53603357 -64.27319336 278.2902832 C-62.5693641 279.23289476 -60.9326604 280.29489307 -59.3125 281.375 C-59.01953125 283.7578125 -59.01953125 283.7578125 -59.125 286.5 C-59.15207031 287.41007812 -59.17914063 288.32015625 -59.20703125 289.2578125 C-59.24183594 289.95648438 -59.27664062 290.65515625 -59.3125 291.375 C-61.6225 290.715 -63.9325 290.055 -66.3125 289.375 C-66.3125 288.715 -66.3125 288.055 -66.3125 287.375 C-67.33537109 287.24544922 -67.33537109 287.24544922 -68.37890625 287.11328125 C-72.05259652 286.18874402 -75.03889046 284.50571439 -78.25 282.5625 C-78.90387695 282.16724121 -79.55775391 281.77198242 -80.23144531 281.36474609 C-87.57687728 276.78047578 -93.98523707 271.25760283 -100.3125 265.375 C-101.28058594 264.4778125 -102.24867187 263.580625 -103.24609375 262.65625 C-113.64421258 252.62685879 -123.00124745 240.86069204 -130.3125 228.375 C-130.3125 227.715 -130.3125 227.055 -130.3125 226.375 C-130.9725 226.375 -131.6325 226.375 -132.3125 226.375 C-135.29032487 219.88553283 -137.9298839 213.30879804 -140.4375 206.625 C-141.12726207 204.7967459 -141.81735542 202.96861674 -142.5078125 201.140625 C-142.95664795 199.94614746 -142.95664795 199.94614746 -143.41455078 198.72753906 C-144.04457429 197.07693913 -144.70517442 195.43784083 -145.38793945 193.80834961 C-146.64143709 190.50927093 -146.98648944 187.17058159 -147.375 183.6875 C-147.794272 178.88670936 -147.794272 178.88670936 -149.3125 174.375 C-150.53916862 166.49667763 -150.46530039 158.60390533 -150.44287109 150.65185547 C-150.43744686 148.35247401 -150.44287632 146.05328226 -150.44921875 143.75390625 C-150.44855906 142.2942704 -150.44728017 140.83463467 -150.4453125 139.375 C-150.44733673 138.68656006 -150.44936096 137.99812012 -150.45144653 137.28881836 C-150.42749527 132.48999527 -150.42749527 132.48999527 -149.3125 131.375 C-148.98327125 129.10930763 -148.70019286 126.83686715 -148.4375 124.5625 C-146.51105877 109.25829782 -141.85008383 96.26309379 -133.86328125 83.04296875 C-132.19099509 80.30555283 -132.19099509 80.30555283 -130.875 76.875 C-118.10933213 48.27990397 -86.78370073 22.67437503 -58.0234375 11.484375 C-55.79991042 10.72433302 -53.56633431 10.03982633 -51.3125 9.375 C-49.14548266 8.70947408 -46.97884075 8.04272496 -44.8125 7.375 C-43.69875 7.03726563 -42.585 6.69953125 -41.4375 6.3515625 C-38.86432897 5.54744655 -36.34455583 4.67159385 -33.8125 3.75 C-22.89821858 0.13781416 -11.3835138 -0.03025061 0 0 Z " fill="#F2BABD" transform="translate(229.3125,72.625)"/>
<path d="M0 0 C2.80610611 1.00478382 4.52340135 2.21684898 7 4 C8.36125 4.9590625 8.36125 4.9590625 9.75 5.9375 C12.94697215 8.86805781 14.7696448 11.49542772 15.43359375 15.83203125 C15.43552734 17.30736328 15.43552734 17.30736328 15.4375 18.8125 C15.45683594 19.78832031 15.47617187 20.76414062 15.49609375 21.76953125 C14.37412392 29.07558673 11.06422851 33.557193 5.20507812 37.91992188 C4.49802734 38.42072266 3.79097656 38.92152344 3.0625 39.4375 C2.35931641 39.96537109 1.65613281 40.49324219 0.93164062 41.03710938 C-2.62493847 43.6337121 -5.47549514 45.65468554 -10 46 C-14.82961314 39.91765444 -19.45388266 33.69925913 -24.00317383 27.40600586 C-24.44814209 26.79378174 -24.89311035 26.18155762 -25.3515625 25.55078125 C-25.78500977 24.95346191 -26.21845703 24.35614258 -26.66503906 23.74072266 C-27.99687148 22.00407944 -29.42676183 20.41140573 -30.8984375 18.79296875 C-33 16 -33 16 -33.1640625 13.9140625 C-31.3998966 11.0132528 -29.09184946 9.39072702 -26.375 7.375 C-25.35148437 6.59898437 -24.32796875 5.82296875 -23.2734375 5.0234375 C-19.86734041 2.91799801 -16.87054622 1.94655005 -13 1 C-9.04738994 -0.97630503 -4.30728481 -0.43489874 0 0 Z " fill="#F5BDC0" transform="translate(387,353)"/>
<path d="M0 0 C1.2065625 0.0309375 1.2065625 0.0309375 2.4375 0.0625 C2.7675 1.0525 3.0975 2.0425 3.4375 3.0625 C5.45258358 3.79573796 5.45258358 3.79573796 7.4375 4.0625 C7.77673576 6.41594806 8.10900534 8.7700484 8.4375 11.125 C8.58058594 12.11016602 8.58058594 12.11016602 8.7265625 13.11523438 C9.32637674 17.46388763 9.52877093 21.67579071 9.4375 26.0625 C12.57018527 25.40470815 12.57018527 25.40470815 13.53515625 22.953125 C14.01275391 21.64601563 14.01275391 21.64601563 14.5 20.3125 C14.82097656 19.45140625 15.14195313 18.5903125 15.47265625 17.703125 C15.95025391 16.39601563 15.95025391 16.39601563 16.4375 15.0625 C17.09899738 13.39377491 17.76413084 11.72647001 18.4375 10.0625 C22.15638239 10.56962033 25.17204239 11.17858215 28.4375 13.0625 C27.87053134 16.65960114 26.93924926 19.26414593 25.0625 22.375 C22.67535866 26.49887315 20.99200585 30.56261465 19.4375 35.0625 C18.7775 35.0625 18.1175 35.0625 17.4375 35.0625 C17.210625 35.84625 16.98375 36.63 16.75 37.4375 C15.03089067 42.18551625 12.75665279 46.58352552 10.4375 51.0625 C4.07724057 49.48938679 4.07724057 49.48938679 1.4375 48.0625 C-0.02120309 43.13821568 0.08027017 37.87222021 -0.16796875 32.76953125 C-0.33673378 29.65610749 -0.57101943 27.0369417 -1.5625 24.0625 C-4.2025 29.6725 -6.8425 35.2825 -9.5625 41.0625 C-15.5625 40.0625 -15.5625 40.0625 -17.5 38.9375 C-19.28713733 35.78372824 -18.41937672 33.4900069 -17.5625 30.0625 C-16.60492138 28.3069392 -15.64228593 26.55194951 -14.58984375 24.8515625 C-13.25248391 22.52262407 -12.4439166 20.04816649 -11.55078125 17.5234375 C-10.19047974 14.13612545 -8.57155175 10.88609747 -6.9375 7.625 C-6.62385498 6.997146 -6.31020996 6.36929199 -5.98706055 5.72241211 C-3.13036224 0.0763503 -3.13036224 0.0763503 0 0 Z " fill="#F2BABD" transform="translate(110.5625,367.9375)"/>
<path d="M0 0 C4.40647377 3.37615005 6.71588084 7.52949446 7.74609375 12.93359375 C8.56124343 19.10544136 8.74968417 24.31009812 5.18359375 29.62109375 C2.92279307 32.22721959 1.29447113 33.4106746 -2.12890625 33.93359375 C-3.16015625 33.93359375 -4.19140625 33.93359375 -5.25390625 33.93359375 C-5.25390625 34.59359375 -5.25390625 35.25359375 -5.25390625 35.93359375 C-12.23535444 37.62574354 -19.09795279 39.23202968 -26.25390625 39.93359375 C-26.25390625 38.28359375 -26.25390625 36.63359375 -26.25390625 34.93359375 C-24.27390625 34.43859375 -24.27390625 34.43859375 -22.25390625 33.93359375 C-22.34478516 33.29856934 -22.43566406 32.66354492 -22.52929688 32.00927734 C-22.94179293 29.10964158 -23.34790218 26.20914533 -23.75390625 23.30859375 C-23.89699219 22.30957031 -24.04007813 21.31054688 -24.1875 20.28125 C-24.85742807 15.46414818 -25.45368914 10.81162588 -25.25390625 5.93359375 C-27.23390625 5.93359375 -29.21390625 5.93359375 -31.25390625 5.93359375 C-31.25390625 4.61359375 -31.25390625 3.29359375 -31.25390625 1.93359375 C-6.97832752 -3.30170436 -6.97832752 -3.30170436 0 0 Z " fill="#E6AEB3" transform="translate(208.25390625,22.06640625)"/>
<path d="M0 0 C2.83648789 6.22375013 4.46637476 12.00492107 5.4296875 18.765625 C6.28551192 23.6192046 7.7437544 28.26443033 9.1953125 32.96875 C10 36 10 36 10 40 C6.22639456 42.32221873 4.98800589 42 0 42 C-0.99 37.38 -1.98 32.76 -3 28 C-4.36125 28.495 -5.7225 28.99 -7.125 29.5 C-10.87910452 30.86512892 -14.00782514 31.13885826 -18 31 C-17.7834375 31.80824219 -17.566875 32.61648438 -17.34375 33.44921875 C-17.0653125 34.51785156 -16.786875 35.58648437 -16.5 36.6875 C-16.2215625 37.74324219 -15.943125 38.79898438 -15.65625 39.88671875 C-15.0608285 42.71142672 -14.87213508 45.12836708 -15 48 C-18.54351073 49.61989062 -21.12719419 50.10414268 -25 50 C-25.18175781 49.28714844 -25.36351562 48.57429688 -25.55078125 47.83984375 C-26.66629349 43.58945608 -27.74019486 39.57157131 -29.5625 35.5625 C-31.26751532 31.33702726 -31.86267486 27.29563358 -32.5234375 22.8046875 C-32.94671875 19.85058599 -32.94671875 19.85058599 -34.1875 16.5625 C-35.11953671 13.62299959 -34.86042422 11.92544235 -34 9 C-29.545 8.505 -29.545 8.505 -25 8 C-24.32942113 9.7902061 -23.6636531 11.58221489 -23 13.375 C-22.443125 14.87160156 -22.443125 14.87160156 -21.875 16.3984375 C-21 19 -21 19 -21 21 C-20.32453125 20.7834375 -19.6490625 20.566875 -18.953125 20.34375 C-18.06109375 20.0653125 -17.1690625 19.786875 -16.25 19.5 C-15.36828125 19.2215625 -14.4865625 18.943125 -13.578125 18.65625 C-11 18 -11 18 -7 18 C-7.2165625 17.34773438 -7.433125 16.69546875 -7.65625 16.0234375 C-9.18502308 11.22478868 -10.40269324 7.10078102 -10 2 C-3.375 0 -3.375 0 0 0 Z " fill="#EFB7BB" transform="translate(312,387)"/>
<path d="M0 0 C2.41015625 -0.20703125 2.41015625 -0.20703125 5.0625 0.1875 C5.94035156 0.30480469 6.81820312 0.42210937 7.72265625 0.54296875 C10 1 10 1 12 2 C12.39477539 4.30639648 12.39477539 4.30639648 12.59765625 7.37109375 C12.6764502 8.49539795 12.75524414 9.61970215 12.83642578 10.77807617 C12.91103027 11.98568604 12.98563477 13.1932959 13.0625 14.4375 C13.14483887 15.65477783 13.22717773 16.87205566 13.31201172 18.1262207 C13.95278529 27.74607182 14.52168181 37.37069951 15 47 C13.7315625 46.85691406 12.463125 46.71382813 11.15625 46.56640625 C10.44275391 46.48592041 9.72925781 46.40543457 8.99414062 46.32250977 C6.71317668 45.95361244 4.95732993 45.22333121 3 44 C3 41.36 3 38.72 3 36 C1.44033408 35.63355422 -0.12292651 35.28239138 -1.6875 34.9375 C-2.55761719 34.74027344 -3.42773438 34.54304688 -4.32421875 34.33984375 C-7.2299963 33.97078879 -9.21681404 34.09439775 -12 35 C-12.66 35.99 -13.32 36.98 -14 38 C-17.3 37.34 -20.6 36.68 -24 36 C-22.89202805 30.46014023 -21.84758197 29.75373851 -18 26 C-17.74992188 25.30003906 -17.49984375 24.60007812 -17.2421875 23.87890625 C-15.37597146 19.55374518 -12.45955423 16.1260991 -9.5625 12.4375 C-8.39711321 10.93621515 -7.23174793 9.43491362 -6.06640625 7.93359375 C-5.55021729 7.27415771 -5.03402832 6.61472168 -4.50219727 5.93530273 C-3.44735996 4.57634039 -2.43612304 3.18295015 -1.45898438 1.76708984 C-0.97751953 1.1839502 -0.49605469 0.60081055 0 0 Z " fill="#F0B8BB" transform="translate(160,390)"/>
<path d="M0 0 C1.74609375 0.140625 1.74609375 0.140625 4 1 C6.03515625 3.546875 6.03515625 3.546875 8.0625 6.75 C8.73410156 7.79671875 9.40570313 8.8434375 10.09765625 9.921875 C10.72542969 10.93765625 11.35320312 11.9534375 12 13 C12.5671875 13.86109375 13.134375 14.7221875 13.71875 15.609375 C15.75135417 19.40191692 15.65917865 22.81004838 15 27 C13.5 30.0625 13.5 30.0625 11 32 C7.51435871 32.58553263 4.22309078 32.61154539 1 31 C1.12375 32.60875 1.12375 32.60875 1.25 34.25 C1 38 1 38 -0.4375 40.375 C-4.2124211 42.7688524 -7.5442842 43.52109219 -12 43 C-19.21414347 39.77262003 -21.96018115 31.75724439 -25 25 C-25.65959808 23.66315573 -26.3231846 22.3282105 -27 21 C-27.66 21 -28.32 21 -29 21 C-29 20.01 -29 19.02 -29 18 C-27.68 17.67 -26.36 17.34 -25 17 C-24.67 18.32 -24.34 19.64 -24 21 C-20.30699093 19.04618358 -16.65238051 17.02862172 -13 15 C-12.40703125 14.68434082 -11.8140625 14.36868164 -11.203125 14.04345703 C-9.39107162 13.07499581 -7.60163433 12.07255508 -5.8125 11.0625 C-4.70519531 10.45535156 -3.59789062 9.84820312 -2.45703125 9.22265625 C0.41295515 7.12795021 0.41295515 7.12795021 0.36328125 3.24609375 C0.24339844 2.17488281 0.12351562 1.10367188 0 0 Z " fill="#E8B0B5" transform="translate(407,110)"/>
<path d="M0 0 C0.66 0.33 1.32 0.66 2 1 C2 1.66 2 2.32 2 3 C2.78375 3.28875 3.5675 3.5775 4.375 3.875 C7 5 7 5 9 7 C8.9375 9.4375 8.9375 9.4375 8 12 C5.6875 13.875 5.6875 13.875 3 15 C0.61777077 14.72774523 -0.86246601 14.06876699 -3 13 C-3 12.34 -3 11.68 -3 11 C-4.94014063 11.22860572 -6.87717414 11.48369181 -8.8125 11.75 C-10.43091797 11.95882813 -10.43091797 11.95882813 -12.08203125 12.171875 C-15.0584155 12.7639678 -15.0584155 12.7639678 -16.859375 14.83203125 C-18.60620967 18.15221358 -18.66721795 21.38410917 -18 25 C-16.20636089 27.8100346 -14.98119065 29.50940468 -12 31 C-8.94338538 31.41305603 -6.04729197 31.50878409 -3 31 C-0.39089037 28.6816144 -0.39089037 28.6816144 1 26 C5.455 26.99 5.455 26.99 10 28 C10.495 30.97 10.495 30.97 11 34 C9.44210317 35.13136586 7.87846143 36.25482321 6.3125 37.375 C5.44238281 38.00148438 4.57226562 38.62796875 3.67578125 39.2734375 C-1.27516625 42.46806348 -5.09213543 43.58110143 -11 43 C-17.5691531 41.13821104 -23.57816789 38.33713846 -28 33 C-30.52530638 27.40040759 -30.94447525 21.04974685 -30 15 C-27.55377858 9.05651905 -23.21891466 4.3940447 -17.78125 1.0234375 C-12.10878697 -1.06390143 -5.93680541 -0.57973749 0 0 Z " fill="#F1BABD" transform="translate(258,399)"/>
<path d="M0 0 C1.30152105 2.67960215 2.02462244 4.53072524 1.8671875 7.53125 C1 10 1 10 -1.21484375 11.36328125 C-2.11332031 11.67652344 -3.01179688 11.98976563 -3.9375 12.3125 C-4.83339844 12.63863281 -5.72929687 12.96476562 -6.65234375 13.30078125 C-9 14 -9 14 -11 14 C-11 15.65 -11 17.3 -11 19 C-6.40366442 18.56638344 -4.15842303 18.29574577 -1 15 C2.1875 14.3125 2.1875 14.3125 5 14 C6.31626692 17.61973402 7 20.09567131 7 24 C5.3767313 24.6708712 3.75132422 25.33657029 2.125 26 C1.22007812 26.37125 0.31515625 26.7425 -0.6171875 27.125 C-3 28 -3 28 -5 28 C-4.01 29.65 -3.02 31.3 -2 33 C-1.41992188 32.79503906 -0.83984375 32.59007812 -0.2421875 32.37890625 C4.1621984 30.85990187 8.35677777 29.5952849 13 29 C14.49821059 32.37097383 15 34.20442119 15 38 C7.5295971 41.87297527 0.33358805 45.4508993 -8 47 C-8.33773438 46.21753906 -8.67546875 45.43507813 -9.0234375 44.62890625 C-9.46945312 43.61699219 -9.91546875 42.60507812 -10.375 41.5625 C-10.81585938 40.55316406 -11.25671875 39.54382813 -11.7109375 38.50390625 C-12.75076286 35.87856453 -12.75076286 35.87856453 -15 35 C-16.22268486 32.82862954 -17.35042684 30.67542282 -18.4375 28.4375 C-18.74880859 27.80215332 -19.06011719 27.16680664 -19.38085938 26.51220703 C-25.11117277 14.68664975 -25.11117277 14.68664975 -24.86328125 10.92578125 C-24 9 -24 9 -21.85546875 7.76953125 C-20.97503906 7.45371094 -20.09460938 7.13789063 -19.1875 6.8125 C-18.31480469 6.48894531 -17.44210937 6.16539062 -16.54296875 5.83203125 C-14.37221436 5.12178442 -12.22424814 4.51328803 -10 4 C-10 3.34 -10 2.68 -10 2 C-6.49223216 0.39644899 -3.85645121 -0.22036864 0 0 Z " fill="#F0B8BC" transform="translate(347,372)"/>
<path d="M0 0 C5.32728918 3.26231389 8.02424099 5.84258304 9.6484375 11.90625 C9.8359375 15.34375 9.8359375 15.34375 9.6484375 17.90625 C6.3484375 17.90625 3.0484375 17.90625 -0.3515625 17.90625 C-0.7640625 16.771875 -1.1765625 15.6375 -1.6015625 14.46875 C-2.91841648 10.81081616 -2.91841648 10.81081616 -5.5390625 9.96875 C-6.1371875 9.948125 -6.7353125 9.9275 -7.3515625 9.90625 C-5.47453923 14.80187693 -5.47453923 14.80187693 -2.3515625 18.90625 C-0.47345241 22.70214857 -0.08044413 25.81813589 -0.1015625 30.03125 C-0.09640625 31.06507813 -0.09125 32.09890625 -0.0859375 33.1640625 C-0.3515625 35.90625 -0.3515625 35.90625 -2.3515625 38.90625 C-3.0115625 38.90625 -3.6715625 38.90625 -4.3515625 38.90625 C-4.3515625 39.56625 -4.3515625 40.22625 -4.3515625 40.90625 C-16.09687081 41.53359584 -16.09687081 41.53359584 -20.8515625 39.15625 C-21.6765625 38.41375 -22.5015625 37.67125 -23.3515625 36.90625 C-24.2796875 36.225625 -25.2078125 35.545 -26.1640625 34.84375 C-28.3515625 32.90625 -28.3515625 32.90625 -29.3515625 29.90625 C-29.48299721 26.56780835 -29.39497226 23.24880132 -29.3515625 19.90625 C-26.0515625 19.90625 -22.7515625 19.90625 -19.3515625 19.90625 C-18.9184375 21.515 -18.9184375 21.515 -18.4765625 23.15625 C-17.62336141 26.00025364 -16.7879122 28.34133983 -15.3515625 30.90625 C-13.7015625 30.90625 -12.0515625 30.90625 -10.3515625 30.90625 C-10.6609375 29.875 -10.9703125 28.84375 -11.2890625 27.78125 C-12.22659062 24.51652443 -12.85928952 21.27011538 -13.3515625 17.90625 C-13.9909375 17.7825 -14.6303125 17.65875 -15.2890625 17.53125 C-16.31 17.221875 -16.31 17.221875 -17.3515625 16.90625 C-19.10453792 13.40029915 -19.04295648 9.72172049 -18.3515625 5.90625 C-14.18053665 -0.48228326 -7.27273779 -3.38266874 0 0 Z " fill="#F3BCBE" transform="translate(86.3515625,350.09375)"/>
<path d="M0 0 C2.46645582 1.89094946 3.91125363 4.18584131 5.63671875 6.75 C7.11690814 8.76716661 8.76359282 10.10809548 10.875 11.4375 C10.545 12.4275 10.215 13.4175 9.875 14.4375 C7.4 13.4475 7.4 13.4475 4.875 12.4375 C4.648125 13.015 4.42125 13.5925 4.1875 14.1875 C2.44473514 17.17509691 0.84830958 18.65351425 -2.125 20.4375 C-5.763685 20.37476405 -8.10961317 20.19085152 -11.0625 18 C-12.125 16.4375 -12.125 16.4375 -12.125 14.4375 C-13.445 14.4375 -14.765 14.4375 -16.125 14.4375 C-14.73329459 17.65669737 -13.1234307 19.51294963 -10.5 21.8125 C-7.97209777 24.27707274 -7.20249513 25.07820439 -6.4375 28.625 C-7.31044692 32.1961465 -8.02759621 33.42418754 -11.125 35.4375 C-15.82721938 36.04423798 -18.06129932 35.9589219 -22.3125 33.875 C-26.55785993 30.19568806 -29.79526348 26.88697132 -30.5625 21.1875 C-30.125 18.4375 -30.125 18.4375 -28.125 15.4375 C-25 15.25 -25 15.25 -22.125 15.4375 C-21.8775 14.798125 -21.63 14.15875 -21.375 13.5 C-20.125 11.4375 -20.125 11.4375 -18 10.6875 C-17.071875 10.56375 -17.071875 10.56375 -16.125 10.4375 C-16.021875 9.344375 -15.91875 8.25125 -15.8125 7.125 C-14.92739521 2.37761976 -14.92739521 2.37761976 -12.125 0.4375 C-8.03203189 -0.9268227 -4.19998568 -1.11176092 0 0 Z " fill="#E5ACB2" transform="translate(368.125,77.5625)"/>
<path d="M0 0 C10.7441271 0.54292132 21.34172223 1.5401561 32 3 C32 6.3 32 9.6 32 13 C28.04 13 24.08 13 20 13 C19.90912109 14.97419922 19.90912109 14.97419922 19.81640625 16.98828125 C19.3897954 26.01492043 18.92566589 35.0078171 18 44 C14.37 44 10.74 44 7 44 C6.97308315 41.54159395 6.95320198 39.08348118 6.9375 36.625 C6.92912109 35.92632812 6.92074219 35.22765625 6.91210938 34.5078125 C6.88671875 29.2265625 6.88671875 29.2265625 8 27 C8.23172827 24.45384991 8.41894529 21.92603775 8.5625 19.375 C8.60568359 18.66859375 8.64886719 17.9621875 8.69335938 17.234375 C8.79944751 15.48981463 8.90022889 13.74493303 9 12 C6.03 11.67 3.06 11.34 0 11 C0 7.37 0 3.74 0 0 Z " fill="#EAB2B7" transform="translate(189,397)"/>
<path d="M0 0 C4.62205635 0.07336597 7.6451092 1.14009311 11.61328125 3.41796875 C13.80545234 4.60883774 15.91042689 5.06692836 18.375 5.375 C18.705 4.385 19.035 3.395 19.375 2.375 C20.035 2.375 20.695 2.375 21.375 2.375 C21.6045711 5.74204285 21.71443529 7.78870268 20 10.75 C19.46375 11.28625 18.9275 11.8225 18.375 12.375 C17.715 12.375 17.055 12.375 16.375 12.375 C16.436875 13.591875 16.49875 14.80875 16.5625 16.0625 C16.56940601 19.95749203 15.83562325 22.25190125 13.375 25.375 C10.55498673 26.78500664 8.50492745 26.62048451 5.375 26.375 C2.69921875 25.23046875 2.69921875 25.23046875 0.375 23.375 C-0.1484375 20.59765625 -0.1484375 20.59765625 0 17.4375 C0.03351562 16.39722656 0.06703125 15.35695312 0.1015625 14.28515625 C0.32947034 11.85956571 0.69012328 9.70470359 1.375 7.375 C0.055 7.045 -1.265 6.715 -2.625 6.375 C-5.01573445 10.20017513 -5.18466552 13.97165524 -5.625 18.375 C-6.945 18.375 -8.265 18.375 -9.625 18.375 C-11.17530118 16.82469882 -10.86905099 15.33823999 -10.9375 13.1875 C-10.88219132 6.24072989 -7.27710578 0.1126487 0 0 Z " fill="#EDB5B9" transform="translate(44.625,152.625)"/>
<path d="M0 0 C5.51967078 2.0290079 9.04030632 7.63562693 11.76953125 12.60546875 C12.49849609 13.70375 12.49849609 13.70375 13.2421875 14.82421875 C16.36853959 15.24168483 16.36853959 15.24168483 19.2421875 14.82421875 C19.2421875 17.82421875 19.2421875 17.82421875 17.6796875 20.01171875 C14.43270125 22.42614442 12.19103107 22.12797595 8.2421875 21.82421875 C7.9740625 22.58734375 7.7059375 23.35046875 7.4296875 24.13671875 C5.56726823 28.35166762 5.56726823 28.35166762 3.2421875 29.82421875 C0.14873972 30.21703752 -1.80356455 30.4542998 -4.7578125 29.82421875 C-7.68557634 27.33561948 -8.57087788 25.68411801 -9.3828125 21.94921875 C-8.50394065 17.55485948 -6.18430965 14.6770134 -2.7578125 11.82421875 C-0.5546875 11.125 -0.5546875 11.125 1.2421875 10.82421875 C0.1046313 8.23280589 0.1046313 8.23280589 -1.7578125 5.82421875 C-4.30071875 5.2407137 -4.30071875 5.2407137 -6.7578125 5.82421875 C-9.3232719 8.38967815 -9.29827337 10.30108543 -9.7578125 13.82421875 C-11.4078125 13.82421875 -13.0578125 13.82421875 -14.7578125 13.82421875 C-15.2578125 11.26171875 -15.2578125 11.26171875 -14.7578125 7.82421875 C-10.99961631 2.80326864 -6.42399988 -0.5001384 0 0 Z " fill="#EBB3B7" transform="translate(119.7578125,62.17578125)"/>
<path d="M0 0 C1.89510699 -0.08160748 3.79124504 -0.13946459 5.6875 -0.1875 C6.74324219 -0.22230469 7.79898438 -0.25710937 8.88671875 -0.29296875 C12.41419889 0.03897731 14.18654143 0.8849528 17 3 C20.77048426 8.98076814 21.14698735 16.09098173 20 23 C17.11050595 26.63023299 14.48958847 27.90050895 10 29 C8.33358606 29.02902317 6.66632321 29.03383397 5 29 C2.53864982 19.33776952 0.38588826 10.01380022 0 0 Z " fill="#4A0C34" transform="translate(189,25)"/>
<path d="M0 0 C3.76148031 0.11063177 5.74576931 1.34028557 8.3125 3.9375 C11.49844588 7.8486356 11.51778283 11.15637428 11.2109375 16.05859375 C11.14132812 16.69925781 11.07171875 17.33992188 11 18 C4.29503214 22.28372947 -2.23478115 24.38388846 -10 26 C-10.33 27.32 -10.66 28.64 -11 30 C-11.33 29.01 -11.66 28.02 -12 27 C-12.66 27 -13.32 27 -14 27 C-13.9175 25.948125 -13.835 24.89625 -13.75 23.8125 C-13.62368739 19.9707009 -13.62368739 19.9707009 -16 17.625 C-18.53960612 14.29176697 -18.58741343 12.12618239 -18.3828125 8.02734375 C-18 6 -18 6 -16.375 3.9375 C-13.22704902 2.69488777 -11.36638978 2.46137763 -8 3 C-3.71955871 5.63411772 -1.85909074 7.41959093 -0.625 12.3125 C-0.41875 13.529375 -0.2125 14.74625 0 16 C1.98 15.34 3.96 14.68 6 14 C6.33 12.02 6.66 10.04 7 8 C6.401875 7.71125 5.80375 7.4225 5.1875 7.125 C3 6 3 6 0 4 C0 2.68 0 1.36 0 0 Z " fill="#E4ACB2" transform="translate(419,160)"/>
<path d="M0 0 C1.65 0 3.3 0 5 0 C5 0.66 5 1.32 5 2 C6.32 2.66 7.64 3.32 9 4 C9 4.99 9 5.98 9 7 C10.010625 6.896875 11.02125 6.79375 12.0625 6.6875 C16.33191896 7.02634277 18.3657755 7.78261517 21.6875 10.35546875 C23.34678792 12.434517 23.4375 13.67761697 23.4375 16.3125 C23.293125 17.529375 23.14875 18.74625 23 20 C22.01 20.33 21.02 20.66 20 21 C18.89363605 23.39068734 18.89363605 23.39068734 18 26 C17.34 26.99 16.68 27.98 16 29 C15.75892674 31.28648848 15.75892674 31.28648848 15.875 33.6875 C15.90207031 34.89986328 15.90207031 34.89986328 15.9296875 36.13671875 C15.95289063 36.75160156 15.97609375 37.36648437 16 38 C12.62537285 37.45276317 10.91765 36.9451 8 35 C8.90227813 29.83240706 9.91643513 25.82421713 12.625 21.3125 C14.77754934 17.714397 15.54843601 15.27780087 15 11 C10.03739108 10.52958071 10.03739108 10.52958071 5.75 12.6875 C4.88375 13.8321875 4.88375 13.8321875 4 15 C3.443125 15.721875 2.88625 16.44375 2.3125 17.1875 C0.51151752 21.04674817 0.26630078 24.7851014 0 29 C-2.86724686 28.42655063 -3.8614515 28.1385485 -6 26 C-7.64991582 25.29289322 -9.31562256 24.62056011 -11 24 C-11 23.01 -11 22.02 -11 21 C-9.35 21 -7.7 21 -6 21 C-5.773125 20.175 -5.54625 19.35 -5.3125 18.5 C-4.18602647 15.49607058 -3.11636045 13.63300114 -1.3125 11.0625 C0.60405298 8.1540468 1.33200109 6.47504107 0.8125 3 C0.4103125 1.515 0.4103125 1.515 0 0 Z " fill="#E1A9B0" transform="translate(320,49)"/>
<path d="M0 0 C1.578125 1.5390625 1.578125 1.5390625 3.25 3.625 C8.04981785 9.4527812 8.04981785 9.4527812 14 14 C17.34595936 14.04385696 17.34595936 14.04385696 20 13 C19.64005447 15.6635969 19.28838998 17.58183452 17.75 19.8125 C15.41988723 21.39364795 13.75498245 21.22337696 11 21 C11.061875 22.093125 11.12375 23.18625 11.1875 24.3125 C11 28 11 28 9.6875 29.9375 C8 31 8 31 5 31 C5 31.66 5 32.32 5 33 C2.5 33.5 2.5 33.5 -1 33 C-3.94111336 30.59207093 -6.43308819 27.79638625 -9 25 C-12.57323164 21.57936683 -12.57323164 21.57936683 -17.3125 20.75 C-18.6428125 20.87375 -18.6428125 20.87375 -20 21 C-19.45925627 17.21479387 -17.92427254 15.40822445 -15 13 C-12 13 -12 13 -9.8125 15 C-8.86780917 15.99320969 -7.93142957 16.9943434 -7 18 C-5.67766675 19.42693973 -4.3436376 20.84310263 -3 22.25 C-2.0409375 23.27867188 -2.0409375 23.27867188 -1.0625 24.328125 C1.30574262 26.24783682 3.00566464 26.64650208 6 27 C7.33965882 24.32068237 7.98764827 22.18527589 8.1875 19.1875 C6.30414009 14.1321655 2.28143692 11.1472317 -2 8 C-2.99 7.67 -3.98 7.34 -5 7 C-5 7.66 -5 8.32 -5 9 C-5.99 9 -6.98 9 -8 9 C-7.64598897 5.81390075 -7.16972964 4.20933322 -5.125 1.6875 C-3 0 -3 0 0 0 Z " fill="#E3ABB1" transform="translate(89,85)"/>
<path d="M0 0 C7.75 0.875 7.75 0.875 10 2 C10 2.66 10 3.32 10 4 C10.99 3.67 11.98 3.34 13 3 C17.50429853 2.63675012 19.95220076 2.47610038 24 4.5 C26.23648788 7.29560984 26.53053385 8.89209684 26.30859375 12.4296875 C25.64344044 17.96982519 24.86706165 23.48796521 24 29 C24.99 29 25.98 29 27 29 C27 29.99 27 30.98 27 32 C20.375 32.25 20.375 32.25 17 30 C17.90322581 22.51612903 17.90322581 22.51612903 18.5625 19 C19.1046014 15.28273324 19.06474324 11.75510819 19 8 C15.30458414 7.04975021 12.69541586 7.04975021 9 8 C7.44732014 18.59056069 7.44732014 18.59056069 9 29 C0.42857143 28 0.42857143 28 -3 27 C-3 26.01 -3 25.02 -3 24 C-2.01 23.67 -1.02 23.34 0 23 C0.20496094 21.87980469 0.40992188 20.75960937 0.62109375 19.60546875 C0.89311689 18.13279176 1.16525849 16.66013664 1.4375 15.1875 C1.57220703 14.44951172 1.70691406 13.71152344 1.84570312 12.95117188 C2.41419737 9.88684924 3.01309651 6.96071047 4 4 C2.68 3.67 1.36 3.34 0 3 C0 2.01 0 1.02 0 0 Z " fill="#EAB2B7" transform="translate(254,29)"/>
<path d="M0 0 C3.625 0.375 3.625 0.375 7 1 C7 2.32 7 3.64 7 5 C6.030625 5.474375 5.06125 5.94875 4.0625 6.4375 C1.19522563 7.70193947 1.19522563 7.70193947 0 9 C-0.27276494 13.09147404 -0.38680604 15.97610166 1.0625 19.8125 C4.52707475 23.72411665 7.93010016 24.82660525 12.984375 25.25 C19.81533564 25.51552332 19.81533564 25.51552332 26 23 C26.33 22.34 26.66 21.68 27 21 C27.66 21 28.32 21 29 21 C29 15.72 29 10.44 29 5 C30.32 5 31.64 5 33 5 C35.24539178 9.49078356 34.57954607 15.14072907 34 20 C31.84418262 25.35874607 28.25882722 29.89677103 22.97265625 32.40625 C16.88538264 34.23845909 11.51086078 33.55556982 5.75 31 C0.8857141 28.26096204 -2.70267072 25.16223404 -5 20 C-6.23984112 13.4465541 -4.75949586 7.94352954 -2 2 C-1.34 1.34 -0.68 0.68 0 0 Z " fill="#EBB4B8" transform="translate(19,185)"/>
<path d="M0 0 C2.89728868 1.2328888 4.39683427 2.2245012 6.3125 4.6875 C7.55128523 8.85432306 7.58432538 13.0876624 6.3125 17.25 C4.44873653 19.73501797 2.63475082 21.34562158 0 23 C-2.48046875 22.87109375 -2.48046875 22.87109375 -5 22 C-6.625 20.109375 -6.625 20.109375 -8 17.75 C-9.77560034 14.83986023 -11.38103486 12.44653706 -13.9375 10.1875 C-16 8 -16 8 -16.1875 5.9375 C-12.43834455 -0.17954311 -6.54864492 -1.00283677 0 0 Z " fill="#51143A" transform="translate(384,363)"/>
<path d="M0 0 C1.75 1.3125 1.75 1.3125 3 3 C3 3.99 3 4.98 3 6 C2.05125 5.95875 1.1025 5.9175 0.125 5.875 C-3.10244856 5.65026182 -3.10244856 5.65026182 -5 8 C-5.39764263 9.98821313 -5.73775349 11.98944339 -6 14 C-0.94648162 12.81093685 2.03891555 11.50838908 6 8 C8.79870027 6.60064987 10.90498792 6.74734595 14 7 C16.08692914 8.56274741 16.89036589 9.48146031 17.43359375 12.05078125 C17.44310218 17.55616493 16.64402245 20.62717306 13 25 C12.525625 25.639375 12.05125 26.27875 11.5625 26.9375 C10 28 10 28 7.3125 27.6875 C6.1678125 27.3471875 6.1678125 27.3471875 5 27 C4.67 26.01 4.34 25.02 4 24 C5.3921875 23.87625 5.3921875 23.87625 6.8125 23.75 C10.01712194 23.27447437 10.01712194 23.27447437 11.875 21.25 C13.18152386 18.63695229 13.24038873 16.88466476 13 14 C8.762256 13.64251017 6.90050849 14.42955496 3.5625 17 C0.62220425 19.07435175 -0.75063604 19.96305719 -4.375 20.5 C-7 20 -7 20 -10 18 C-11.03579064 13.68019096 -10.76598567 9.54684485 -8.79296875 5.5625 C-4.86941964 0 -4.86941964 0 0 0 Z " fill="#DDA4AC" transform="translate(62,118)"/>
<path d="M0 0 C2.70689492 4.573719 4.96351172 9.07848667 7 14 C9.49080809 19.76325051 12.15152293 25.40477719 15 31 C16.65 31 18.3 31 20 31 C20 34 20 34 18.375 35.6875 C15.41801336 37.32162419 13.32820054 37.22692276 10 37 C8.515 32.05 8.515 32.05 7 27 C6.34 27 5.68 27 5 27 C4.80664062 26.44570313 4.61328125 25.89140625 4.4140625 25.3203125 C4.15367187 24.59585938 3.89328125 23.87140625 3.625 23.125 C3.36976563 22.40570313 3.11453125 21.68640625 2.8515625 20.9453125 C2.06122217 18.81842006 2.06122217 18.81842006 0 17 C-0.76259042 15.14640431 -1.46482767 13.26749402 -2.125 11.375 C-2.47820312 10.37210938 -2.83140625 9.36921875 -3.1953125 8.3359375 C-3.46085938 7.56507812 -3.72640625 6.79421875 -4 6 C-5.98 6 -7.96 6 -10 6 C-10 5.01 -10 4.02 -10 3 C-6.27034861 0.96564469 -4.33094958 0 0 0 Z " fill="#E6AEB3" transform="translate(139,36)"/>
<path d="M0 0 C0.99 0 1.98 0 3 0 C3.33 2.97 3.66 5.94 4 9 C2.02 9.99 2.02 9.99 0 11 C0.804375 11.515625 1.60875 12.03125 2.4375 12.5625 C5.67528435 15.64234365 5.83460061 17.61691616 6 22 C5 23 5 23 3.15234375 23.09765625 C1.1015625 23.06510417 -0.94921875 23.03255208 -3 23 C-2.67 21.68 -2.34 20.36 -2 19 C-1.01 19 -0.02 19 1 19 C0.64393309 16.41851492 0.16671807 15.17954253 -1.625 13.25 C-6.86310573 10.49310225 -13.3443477 12.20622424 -19 13 C-19.33 14.32 -19.66 15.64 -20 17 C-20.99 17 -21.98 17 -23 17 C-23.33 13.04 -23.66 9.08 -24 5 C-23.01 5.33 -22.02 5.66 -21 6 C-17.77159276 6.11957064 -14.79372507 6.16710001 -11.625 5.5 C-7.75783545 4.76339723 -3.92483556 4.92304244 0 5 C0 3.35 0 1.7 0 0 Z " fill="#E8B0B5" transform="translate(434,197)"/>
<path d="M0 0 C12.7055648 -1.03173007 12.7055648 -1.03173007 17.125 2.5 C22.72796499 8.47834974 23.63028616 15.2175547 23.41796875 23.21484375 C22.75933936 27.60365456 21.41418978 29.19277729 18 32 C15.1875 32.875 15.1875 32.875 13 33 C13.32355469 32.49082031 13.64710938 31.98164062 13.98046875 31.45703125 C16.44549947 25.51640165 16.1370393 15.74492514 13.6875 9.75 C11.71540867 6.51370277 11.71540867 6.51370277 9 4 C6.03756274 3.42052719 6.03756274 3.42052719 2.8125 3.3125 C1.72582031 3.24675781 0.63914063 3.18101563 -0.48046875 3.11328125 C-1.31191406 3.07589844 -2.14335937 3.03851562 -3 3 C-2.01 2.67 -1.02 2.34 0 2 C0 1.34 0 0.68 0 0 Z " fill="#EDB5B9" transform="translate(193,21)"/>
<path d="M0 0 C0.66 0 1.32 0 2 0 C2 30.36 2 60.72 2 92 C2.66 92 3.32 92 4 92 C4.20496094 93.07121094 4.40992188 94.14242187 4.62109375 95.24609375 C4.89302709 96.64326851 5.16517352 98.04040181 5.4375 99.4375 C5.57220703 100.14455078 5.70691406 100.85160156 5.84570312 101.58007812 C6.28406898 105.08429264 6.28406898 105.08429264 8 108 C8.07179964 109.51928038 8.08392007 111.04167482 8.0625 112.5625 C8.05347656 113.38878906 8.04445312 114.21507812 8.03515625 115.06640625 C8.02355469 115.70449219 8.01195312 116.34257812 8 117 C5.75030565 113.18355423 4.95165095 109.02499451 4 104.75 C3.66722961 103.28633023 3.33389813 101.82278791 3 100.359375 C2.855625 99.71452148 2.71125 99.06966797 2.5625 98.40527344 C2.09191616 96.39303732 1.54451419 94.39897181 0.97903442 92.41131592 C-0.14417826 87.90210783 -0.26895925 83.64191634 -0.22705078 79.01367188 C-0.22734283 78.15418945 -0.22763489 77.29470703 -0.22793579 76.40917969 C-0.2265532 73.59559694 -0.21104285 70.78228593 -0.1953125 67.96875 C-0.19157856 66.00720362 -0.18873339 64.04565536 -0.18673706 62.08410645 C-0.17913062 56.94176002 -0.15950797 51.79952803 -0.1373291 46.65722656 C-0.11680608 41.40170845 -0.10772157 36.1461717 -0.09765625 30.890625 C-0.07625912 20.59369995 -0.0421595 10.29685952 0 0 Z " fill="#CA919D" transform="translate(173,249)"/>
<path d="M0 0 C1.64574566 -0.02688151 3.29161413 -0.04634123 4.9375 -0.0625 C5.85402344 -0.07410156 6.77054688 -0.08570312 7.71484375 -0.09765625 C10 0 10 0 11 1 C11.08726223 2.78071246 11.10699041 4.5648314 11.09765625 6.34765625 C11.09443359 7.42724609 11.09121094 8.50683594 11.08789062 9.61914062 C11.07951172 10.75544922 11.07113281 11.89175781 11.0625 13.0625 C11.05798828 14.20267578 11.05347656 15.34285156 11.04882812 16.51757812 C11.03699747 19.34510351 11.0205141 22.1725264 11 25 C11.99 25 12.98 25 14 25 C14 25.99 14 26.98 14 28 C12.52093108 28.02689216 11.04172517 28.04634621 9.5625 28.0625 C8.32693359 28.07990234 8.32693359 28.07990234 7.06640625 28.09765625 C5 28 5 28 4 27 C3.91286169 25.29227642 3.89299993 23.58101351 3.90234375 21.87109375 C3.90717773 20.31938477 3.90717773 20.31938477 3.91210938 18.73632812 C3.92048828 17.64771484 3.92886719 16.55910156 3.9375 15.4375 C3.94201172 14.34501953 3.94652344 13.25253906 3.95117188 12.12695312 C3.96300174 9.41791505 3.97948457 6.70898401 4 4 C2.68 3.67 1.36 3.34 0 3 C0 2.01 0 1.02 0 0 Z " fill="#FCC5C5" transform="translate(228,28)"/>
<path d="M0 0 C3.76148031 0.11063177 5.74576931 1.34028557 8.3125 3.9375 C11.49844588 7.8486356 11.51778283 11.15637428 11.2109375 16.05859375 C11.14132812 16.69925781 11.07171875 17.33992188 11 18 C4.29503214 22.28372947 -2.23478115 24.38388846 -10 26 C-10.33 27.32 -10.66 28.64 -11 30 C-11.33 29.01 -11.66 28.02 -12 27 C-12.66 27 -13.32 27 -14 27 C-14 25.35 -14 23.7 -14 22 C-7.32585215 18.66292607 -0.28610241 17.42488272 7 16 C7 13.36 7 10.72 7 8 C6.401875 7.71125 5.80375 7.4225 5.1875 7.125 C3 6 3 6 0 4 C0 2.68 0 1.36 0 0 Z " fill="#F5BDBF" transform="translate(419,160)"/>
<path d="M0 0 C5.32142267 1.93759118 8.81685052 7.0522706 11.3359375 11.9375 C12.00629645 13.54971329 12.62911624 15.18154955 13.2421875 16.81640625 C13.9021875 17.14640625 14.5621875 17.47640625 15.2421875 17.81640625 C14.9121875 18.80640625 14.5821875 19.79640625 14.2421875 20.81640625 C12.2621875 20.48640625 10.2821875 20.15640625 8.2421875 19.81640625 C8.2421875 18.82640625 8.2421875 17.83640625 8.2421875 16.81640625 C7.5821875 16.81640625 6.9221875 16.81640625 6.2421875 16.81640625 C5.99984375 16.27371094 5.7575 15.73101562 5.5078125 15.171875 C2.99213067 9.51959873 2.99213067 9.51959873 -1.7578125 5.81640625 C-4.34243412 5.39923346 -4.34243412 5.39923346 -6.7578125 5.81640625 C-9.3232719 8.38186565 -9.29827337 10.29327293 -9.7578125 13.81640625 C-11.4078125 13.81640625 -13.0578125 13.81640625 -14.7578125 13.81640625 C-15.2578125 11.25390625 -15.2578125 11.25390625 -14.7578125 7.81640625 C-11.00391942 2.80120509 -6.42112165 -0.52213273 0 0 Z " fill="#F1B9BC" transform="translate(119.7578125,62.18359375)"/>
<path d="M0 0 C7.75 0.875 7.75 0.875 10 2 C9.31184495 7.38328888 7.69258365 12.26856173 5.9375 17.375 C5.65583984 18.20644531 5.37417969 19.03789063 5.08398438 19.89453125 C4.39342899 21.93108441 3.69727821 23.96573881 3 26 C3.99 26 4.98 26 6 26 C6 26.99 6 27.98 6 29 C-1.75 28.25 -1.75 28.25 -4 26 C-3.63391235 21.46312801 -2.19127792 17.57369576 -0.5 13.375 C1.54989067 8.28190777 1.54989067 8.28190777 3 3 C2.01 2.67 1.02 2.34 0 2 C0 1.34 0 0.68 0 0 Z " fill="#EBB3B8" transform="translate(296,40)"/>
<path d="M0 0 C2.67477812 3.03623462 3.87163184 5.18165298 4.5 9.1875 C4 12 4 12 2.4375 13.875 C-1.06802643 15.49293527 -3.18372887 15.66952125 -7 15 C-9.26063836 12.97703267 -10.89503854 10.83146374 -12 8 C-11.796875 5.90625 -11.796875 5.90625 -11 4 C-7.51095975 1.14533071 -4.58302176 -1.20605836 0 0 Z " fill="#54173C" transform="translate(400,131)"/>
<path d="M0 0 C2.54014875 3.81022313 2.58606955 6.53470816 2 11 C0.875 13 0.875 13 -1 14 C-3.875 14.625 -3.875 14.625 -7 14 C-9.1647769 11.93669701 -10.75215315 9.71655154 -12 7 C-12 5.68 -12 4.36 -12 3 C-7.9964185 -0.00268613 -4.81424919 -1.60474973 0 0 Z " fill="#56183E" transform="translate(415,123)"/>
<path d="M0 0 C0 0.66 0 1.32 0 2 C0.66 2 1.32 2 2 2 C2.42273372 8.12963887 2.02168763 11.05906948 -2 16 C-2.474375 16.639375 -2.94875 17.27875 -3.4375 17.9375 C-5 19 -5 19 -7.6875 18.6875 C-8.450625 18.460625 -9.21375 18.23375 -10 18 C-10.33 17.01 -10.66 16.02 -11 15 C-9.6078125 14.87625 -9.6078125 14.87625 -8.1875 14.75 C-4.98287806 14.27447437 -4.98287806 14.27447437 -3.125 12.25 C-1.81847614 9.63695229 -1.75961127 7.88466476 -2 5 C-5.10374171 4.74135486 -6.52765486 4.64216278 -9.0625 6.5625 C-11 8 -11 8 -13.25 7.6875 C-13.8275 7.460625 -14.405 7.23375 -15 7 C-10.19875358 0.90111941 -8.04325372 -0.1517595 0 0 Z " fill="#F6BFC1" transform="translate(77,127)"/>
<path d="M0 0 C1.4540625 0.0309375 1.4540625 0.0309375 2.9375 0.0625 C2.79570312 0.64257812 2.65390625 1.22265625 2.5078125 1.8203125 C1.56617036 6.55647653 1.56617036 6.55647653 3.03125 10.99609375 C5.55302787 13.67869929 7.10621267 14.95407122 10.8125 15.4375 C11.864375 15.251875 11.864375 15.251875 12.9375 15.0625 C13.9275 12.7525 14.9175 10.4425 15.9375 8.0625 C16.5975 8.3925 17.2575 8.7225 17.9375 9.0625 C18.29305556 14.39583333 18.29305556 14.39583333 16.9375 16.9375 C13.69319895 18.76241934 10.50548928 18.65942596 6.9375 18.0625 C1.94319758 15.61431254 -1.58166387 12.02417227 -4.0625 7.0625 C-4.4375 3.6875 -4.4375 3.6875 -4.0625 1.0625 C-3.0625 0.0625 -3.0625 0.0625 0 0 Z " fill="#D9A0A8" transform="translate(342.0625,94.9375)"/>
<path d="M0 0 C1.875 1.1875 1.875 1.1875 3 3 C3.1875 5.6875 3.1875 5.6875 3 8 C2.34 8 1.68 8 1 8 C0.34 9.32 -0.32 10.64 -1 12 C-3.74086056 12.22223194 -5.43963721 12.34781139 -7.8125 10.875 C-9.55198782 8.12844028 -9.39769128 6.18153026 -9 3 C-6.79086995 -0.68188342 -4.01844539 -0.50230567 0 0 Z " fill="#5A1D41" transform="translate(366,81)"/>
<path d="M0 0 C4.875 2.75 4.875 2.75 6 5 C6.53551128 9.4684466 6.49681884 12.98566153 4.5 17.0625 C0.87496462 19.87190242 -1.49436425 19.37546965 -6 19 C-6.33 17.68 -6.66 16.36 -7 15 C-6.21625 14.71125 -5.4325 14.4225 -4.625 14.125 C-1.90328368 13.15087746 -1.90328368 13.15087746 0 11 C0.24315656 8.33050591 0.24315656 8.33050591 0.125 5.375 C0.10695313 4.37210937 0.08890625 3.36921875 0.0703125 2.3359375 C0.04710937 1.56507812 0.02390625 0.79421875 0 0 Z " fill="#E9B1B6" transform="translate(416,123)"/>
<path d="M0 0 C0.33 0 0.66 0 1 0 C1.66 3.96 2.32 7.92 3 12 C4.7325 11.566875 6.465 11.13375 8.25 10.6875 C9.22453125 10.44386719 10.1990625 10.20023438 11.203125 9.94921875 C13.98975665 9.00347644 15.77304368 7.89291287 18 6 C17.34 7.65 16.68 9.3 16 11 C17.32 11.33 18.64 11.66 20 12 C17.09399739 13.25664978 15.20395416 14 12 14 C12 14.66 12 15.32 12 16 C5.01855181 17.69214979 -1.84404654 19.29843593 -9 20 C-9 18.35 -9 16.7 -9 15 C-8.67 15.99 -8.34 16.98 -8 18 C-7.34773437 17.855625 -6.69546875 17.71125 -6.0234375 17.5625 C-1.27379823 16.55372706 3.11409188 15.74284694 8 16 C8 15.34 8 14.68 8 14 C6.02 14 4.04 14 2 14 C0.02905192 9.07262981 -0.1799928 5.21979128 0 0 Z " fill="#AB7183" transform="translate(191,42)"/>
<path d="M0 0 C0.33 0.66 0.66 1.32 1 2 C0.67 2.66 0.34 3.32 0 4 C0.66 3.67 1.32 3.34 2 3 C7.53846154 2.76923077 7.53846154 2.76923077 10 4 C9.34 9.61 8.68 15.22 8 21 C7.67 21 7.34 21 7 21 C6.97287847 19.083412 6.95354903 17.1667127 6.9375 15.25 C6.92009766 13.64898437 6.92009766 13.64898437 6.90234375 12.015625 C6.98489913 9.46631499 7.25382442 7.42066409 8 5 C6.68 4.67 5.36 4.34 4 4 C1.60926555 7.82517513 1.44033448 11.59665524 1 16 C-0.32 16 -1.64 16 -3 16 C-4.55030118 14.44969882 -4.24405099 12.96323999 -4.3125 10.8125 C-4.28937423 5.98692178 -3.02252372 3.68370079 0 0 Z " fill="#854964" transform="translate(38,155)"/>
<path d="M0 0 C3.88973871 0.6915091 5.312002 2.58866067 7.71875 5.609375 C8.8125 7.5 8.8125 7.5 8.6875 10.4375 C8.254375 11.4584375 8.254375 11.4584375 7.8125 12.5 C3.79563013 12.96707789 2.24748188 12.82150834 -1.0625 10.375 C-3.51617437 7.05532291 -3.73731758 5.53199561 -3.1875 1.5 C-2.1875 0.5 -2.1875 0.5 0 0 Z " fill="#51133A" transform="translate(346.1875,96.5)"/>
<path d="M0 0 C1 1 1 1 1.3125 3.25 C0.88942577 6.97305322 -0.26044383 8.47672458 -3 11 C-6.25 11.3125 -6.25 11.3125 -9 11 C-8.67 11.99 -8.34 12.98 -8 14 C-8.99 13.67 -9.98 13.34 -11 13 C-10.25 7.25 -10.25 7.25 -8 5 C-8 4.01 -8 3.02 -8 2 C-4.77786243 -0.14809171 -3.72224599 -0.29386153 0 0 Z " fill="#4C1036" transform="translate(75,131)"/>
<path d="M0 0 C2.38564077 0.57584432 4.66682784 1.22227595 7 2 C7.1953125 8.0546875 7.1953125 8.0546875 7 10 C5 12 5 12 1.375 12.125 C0.26125 12.08375 -0.8525 12.0425 -2 12 C-2.05422947 10.5629191 -2.09289723 9.12524538 -2.125 7.6875 C-2.14820313 6.88699219 -2.17140625 6.08648437 -2.1953125 5.26171875 C-2 3 -2 3 0 0 Z " fill="#602446" transform="translate(51,161)"/>
<path d="M0 0 C2.625 0.4375 2.625 0.4375 4.9375 2.625 C6.72880798 5.61051329 7.01388658 7.0347424 6.625 10.4375 C3.375 11.1875 3.375 11.1875 -0.375 11.4375 C-2.8125 9.8125 -2.8125 9.8125 -4.375 7.4375 C-4.75 4.8125 -4.75 4.8125 -4.375 2.4375 C-2.375 0.4375 -2.375 0.4375 0 0 Z " fill="#5D2043" transform="translate(409.375,168.5625)"/>
<path d="M0 0 C2 1.4375 2 1.4375 4 4 C4.40796183 7.03057361 4.37541519 9.96590677 4 13 C3 14 3 14 0.71484375 14.09765625 C-0.65994141 14.08025391 -0.65994141 14.08025391 -2.0625 14.0625 C-2.98160156 14.05347656 -3.90070313 14.04445313 -4.84765625 14.03515625 C-5.55792969 14.02355469 -6.26820312 14.01195312 -7 14 C-7.33 15.32 -7.66 16.64 -8 18 C-8.433125 17.0925 -8.86625 16.185 -9.3125 15.25 C-10.82885236 12.07658157 -10.82885236 12.07658157 -12.6875 9.875 C-14 8 -14 8 -14 4 C-11.625 4.3125 -11.625 4.3125 -9 5 C-7 8 -7 8 -7 12 C-3.7 12 -0.4 12 3 12 C2.5359375 9.8653125 2.5359375 9.8653125 2.0625 7.6875 C1.88847656 6.88699219 1.71445313 6.08648437 1.53515625 5.26171875 C1.00113841 2.854599 1.00113841 2.854599 0 0 Z " fill="#7F4360" transform="translate(93,356)"/>
<path d="M0 0 C1.64574566 -0.02688151 3.29161413 -0.04634123 4.9375 -0.0625 C5.85402344 -0.07410156 6.77054688 -0.08570312 7.71484375 -0.09765625 C10 0 10 0 11 1 C11.08726223 2.78071246 11.10699041 4.5648314 11.09765625 6.34765625 C11.09443359 7.42724609 11.09121094 8.50683594 11.08789062 9.61914062 C11.07951172 10.75544922 11.07113281 11.89175781 11.0625 13.0625 C11.05798828 14.20267578 11.05347656 15.34285156 11.04882812 16.51757812 C11.03699747 19.34510351 11.0205141 22.1725264 11 25 C11.99 25 12.98 25 14 25 C14 25.99 14 26.98 14 28 C12.52093108 28.02689216 11.04172517 28.04634621 9.5625 28.0625 C8.32693359 28.07990234 8.32693359 28.07990234 7.06640625 28.09765625 C5 28 5 28 4 27 C3.91368126 25.65732587 3.89293527 24.31025678 3.90234375 22.96484375 C3.90717773 21.75151367 3.90717773 21.75151367 3.91210938 20.51367188 C3.92048828 19.66353516 3.92886719 18.81339844 3.9375 17.9375 C3.94201172 17.08349609 3.94652344 16.22949219 3.95117188 15.34960938 C3.96299627 13.23304337 3.98093231 11.11651315 4 9 C4.33 9 4.66 9 5 9 C5 14.61 5 20.22 5 26 C6.65 26 8.3 26 10 26 C10 18.08 10 10.16 10 2 C8.35 2 6.7 2 5 2 C4.67 2.66 4.34 3.32 4 4 C2.68 3.67 1.36 3.34 0 3 C0 2.01 0 1.02 0 0 Z " fill="#B27889" transform="translate(228,28)"/>
<path d="M0 0 C1.51754003 2.41021064 2.02316906 3.68335622 1.8125 6.5625 C0.9196551 9.24103469 0.38034644 10.46977729 -2 12 C-6.42105263 11.57894737 -6.42105263 11.57894737 -8 10 C-8.375 7.1875 -8.375 7.1875 -8 4 C-5.23478237 1.16004675 -4.0129782 0 0 0 Z " fill="#581B3F" transform="translate(125,75)"/>
<path d="M0 0 C0.33 0 0.66 0 1 0 C1.05416188 1.60379341 1.09286638 3.20811406 1.125 4.8125 C1.14820313 5.70582031 1.17140625 6.59914062 1.1953125 7.51953125 C1 10 1 10 -1 13 C-3.97406844 13.95882129 -6.88633253 14.21015873 -10 14 C-12.5625 12.0625 -12.5625 12.0625 -14 10 C-13.67 9.01 -13.34 8.02 -13 7 C-12.34 7.33 -11.68 7.66 -11 8 C-8.08461971 8.50042146 -8.08461971 8.50042146 -5 8 C-2.399035 5.399035 -1.1629556 3.48886679 0 0 Z " fill="#E6AEB4" transform="translate(405,139)"/>
<path d="M0 0 C1.8125 0.0625 1.8125 0.0625 4 1 C6.48612064 5.52829116 7.38279888 8.76841536 7 14 C4.75 14.3125 4.75 14.3125 2 14 C-0.99540173 11.24746868 -1.94165078 9.77312715 -2.25 5.6875 C-2.1675 4.800625 -2.085 3.91375 -2 3 C-1.34 3 -0.68 3 0 3 C0 2.01 0 1.02 0 0 Z " fill="#5A1F42" transform="translate(69,367)"/>
<path d="M0 0 C0.66 0 1.32 0 2 0 C3.66666667 3.33333333 5.33333333 6.66666667 7 10 C8.65 10 10.3 10 12 10 C10.68 10.33 9.36 10.66 8 11 C7.67 14.3 7.34 17.6 7 21 C6.34 21 5.68 21 5 21 C4.67 19.02 4.34 17.04 4 15 C3.67 15 3.34 15 3 15 C2.71125 13.906875 2.4225 12.81375 2.125 11.6875 C0.78937362 7.30961353 -0.18111774 5.54592151 -4 3 C-2.68 3 -1.36 3 0 3 C0 2.01 0 1.02 0 0 Z " fill="#DDA4AB" transform="translate(401,127)"/>
<path d="M0 0 C1.32 0 2.64 0 4 0 C5.41514574 2.83029148 5.20780992 5.28379133 5.25 8.4375 C5.28867187 10.16806641 5.28867187 10.16806641 5.328125 11.93359375 C5 15 5 15 3.609375 16.91015625 C1.35146381 18.43917863 -0.24415179 18 -3 18 C-2.67 17.34 -2.34 16.68 -2 16 C-1.34 16 -0.68 16 0 16 C0 10.72 0 5.44 0 0 Z " fill="#EBB3B7" transform="translate(48,190)"/>
<path d="M0 0 C0.33 0 0.66 0 1 0 C1.33 2.31 1.66 4.62 2 7 C5.3 7 8.6 7 12 7 C11.625 9.4375 11.625 9.4375 11 12 C8.19084526 13.40457737 6.11189466 13.24895157 3 13 C0.625 12.0625 0.625 12.0625 -1 10 C-1.38798707 6.96714331 -1.36876368 4.03474371 -1 1 C-0.67 0.67 -0.34 0.34 0 0 Z " fill="#F5BDC0" transform="translate(47,166)"/>
<path d="M0 0 C1.75 1.3125 1.75 1.3125 3 3 C3 3.99 3 4.98 3 6 C2.05125 5.95875 1.1025 5.9175 0.125 5.875 C-3.10244856 5.65026182 -3.10244856 5.65026182 -5 8 C-5.64767793 10.57061311 -5.64767793 10.57061311 -6 13 C-6.66 12.01 -7.32 11.02 -8 10 C-8.26932521 14.65052872 -8.26932521 14.65052872 -7 19 C-7.99 18.67 -8.98 18.34 -10 18 C-10.76934452 11.04740505 -10.04199695 6.94255166 -5.703125 1.3984375 C-4 0 -4 0 0 0 Z " fill="#BC8291" transform="translate(62,118)"/>
<path d="M0 0 C6.64615385 1.47692308 6.64615385 1.47692308 8.4375 4.125 C8.623125 4.74375 8.80875 5.3625 9 6 C5 6 5 6 3 5 C2.566875 5.928125 2.566875 5.928125 2.125 6.875 C1 9 1 9 -1 11 C-3.68839385 11.26991906 -6.29141936 11.08737357 -9 11 C-7 9.66666667 -5 8.33333333 -3 7 C-1.92863949 4.69855891 -0.92010283 2.3659787 0 0 Z " fill="#F8C1C2" transform="translate(370,85)"/>
<path d="M0 0 C3.625 0.375 3.625 0.375 7 1 C7 2.32 7 3.64 7 5 C4.0173094 6.52448631 1.181798 7.93940067 -2 9 C-3.14814997 11.29629994 -3.30769809 13.07698086 -3.5625 15.625 C-3.64628906 16.44226563 -3.73007813 17.25953125 -3.81640625 18.1015625 C-3.87699219 18.72804687 -3.93757812 19.35453125 -4 20 C-4.33 20 -4.66 20 -5 20 C-5.37545751 13.21395316 -4.87683117 8.19625176 -2 2 C-1.34 1.34 -0.68 0.68 0 0 Z " fill="#BE8593" transform="translate(19,185)"/>
<path d="M0 0 C1.65 1.65 3.3 3.3 5 5 C2.31158141 7.25245881 0.35358125 8.88213958 -3 10 C-3 11.65 -3 13.3 -3 15 C-3.66 14.01 -4.32 13.02 -5 12 C-5.66 14.31 -6.32 16.62 -7 19 C-7.66 18.67 -8.32 18.34 -9 18 C-9.45262267 14.90707841 -9.48338914 12.77721392 -7.8046875 10.078125 C-5.08393718 6.76947386 -3.35168065 4.7284335 1 4 C0.67 2.68 0.34 1.36 0 0 Z " fill="#D098A2" transform="translate(120,69)"/>
<path d="M0 0 C5.75 3.625 5.75 3.625 8 7 C8.1875 9.625 8.1875 9.625 8 12 C7 13 7 13 5.15234375 13.09765625 C3.1015625 13.06510417 1.05078125 13.03255208 -1 13 C-0.67 11.68 -0.34 10.36 0 9 C0.99 9 1.98 9 3 9 C2.43628586 5.73045798 1.50037734 4.17424117 -1 2 C-0.67 1.34 -0.34 0.68 0 0 Z " fill="#BA8190" transform="translate(432,207)"/>
<path d="M0 0 C2.87348203 2.2789685 4.13267108 5.19782995 5.8125 8.4375 C4.4925 8.1075 3.1725 7.7775 1.8125 7.4375 C1.4825 8.4275 1.1525 9.4175 0.8125 10.4375 C0.60625 9.65375 0.4 8.87 0.1875 8.0625 C-0.99426612 5.12833714 -0.99426612 5.12833714 -4.3125 4.125 C-5.26125 3.898125 -6.21 3.67125 -7.1875 3.4375 C-7.1875 2.7775 -7.1875 2.1175 -7.1875 1.4375 C-8.13625 1.911875 -9.085 2.38625 -10.0625 2.875 C-11.77083333 3.72916667 -13.47916667 4.58333333 -15.1875 5.4375 C-14.25646676 3.10991689 -13.53367872 1.69392868 -11.5 0.1875 C-7.6209277 -1.0705775 -3.9387864 -1.01283079 0 0 Z " fill="#CE96A0" transform="translate(368.1875,77.5625)"/>
<path d="M0 0 C0 0.33 0 0.66 0 1 C-2.64 1.33 -5.28 1.66 -8 2 C-6.68 2.66 -5.36 3.32 -4 4 C-5.423125 4.2784375 -5.423125 4.2784375 -6.875 4.5625 C-10.38371699 5.73400805 -10.38371699 5.73400805 -11.375 9.625 C-11.58125 10.73875 -11.7875 11.8525 -12 13 C-13.65 13 -15.3 13 -17 13 C-17.5 10.4375 -17.5 10.4375 -17 7 C-12.33812297 0.77173228 -7.58466681 -1.10609724 0 0 Z " fill="#DEA5AC" transform="translate(122,63)"/>
<path d="M0 0 C3.76148031 0.11063177 5.74576931 1.34028557 8.3125 3.9375 C11.49844588 7.8486356 11.51778283 11.15637428 11.2109375 16.05859375 C11.14132812 16.69925781 11.07171875 17.33992188 11 18 C10.67 18 10.34 18 10 18 C9.67 16.02 9.34 14.04 9 12 C8.34 12.66 7.68 13.32 7 14 C7 12.02 7 10.04 7 8 C6.401875 7.71125 5.80375 7.4225 5.1875 7.125 C3 6 3 6 0 4 C0 2.68 0 1.36 0 0 Z " fill="#D097A1" transform="translate(419,160)"/>
<path d="M0 0 C0 0.66 0 1.32 0 2 C-0.55171875 1.84402344 -1.1034375 1.68804687 -1.671875 1.52734375 C-6.82890283 0.35922503 -12.45841986 -0.29468527 -17.28515625 2.1640625 C-19.30373444 3.68091317 -21.15187365 5.28071906 -23 7 C-24.16251322 7.96336748 -25.32880327 8.92220825 -26.5 9.875 C-27.7375 10.926875 -27.7375 10.926875 -29 12 C-29 8.40699966 -27.88127682 7.10507439 -25.51953125 4.49609375 C-19.4299522 -1.49955863 -8.00716622 -4.00358311 0 0 Z " fill="#AF7587" transform="translate(260,400)"/>
<path d="M0 0 C0.66 0.66 1.32 1.32 2 2 C1.41992188 2.00257813 0.83984375 2.00515625 0.2421875 2.0078125 C-4.03348081 2.21947925 -7.21737568 2.60168292 -10.5 5.5 C-13.76578358 9.19881565 -13.97875963 13.2209171 -14 18 C-16.34744917 15.65255083 -16.36868489 14.96722027 -16.5 11.75 C-16.43359076 8.00693377 -15.81156437 6.1826663 -13.1875 3.5 C-9.12253387 -0.11330323 -5.33253229 -0.2908654 0 0 Z " fill="#C18895" transform="translate(84,349)"/>
<path d="M0 0 C2.31 0 4.62 0 7 0 C7 3 7 3 5.4375 5.1875 C2.19051375 7.60192567 -0.05115643 7.3037572 -4 7 C-4.433125 8.2065625 -4.433125 8.2065625 -4.875 9.4375 C-6 12 -6 12 -8 13 C-8 12.34 -8 11.68 -8 11 C-9.65 11 -11.3 11 -13 11 C-12.401875 10.731875 -11.80375 10.46375 -11.1875 10.1875 C-7.45972991 8.16385338 -5.72182574 5.84099588 -4 2 C-4 2.99 -4 3.98 -4 5 C-2.02 5 -0.04 5 2 5 C2.33 4.34 2.66 3.68 3 3 C2.01 2.67 1.02 2.34 0 2 C0 1.34 0 0.68 0 0 Z " fill="#D89FA8" transform="translate(132,77)"/>
<path d="M0 0 C0.33 0 0.66 0 1 0 C1 2.31 1 4.62 1 7 C1.66 7 2.32 7 3 7 C3 10.3 3 13.6 3 17 C3.99 17 4.98 17 6 17 C6.33 15.68 6.66 14.36 7 13 C7.66 13 8.32 13 9 13 C7.94124926 16.40312738 6.99097846 19.01353231 5 22 C4.01 22 3.02 22 2 22 C-0.29612756 7.40318907 -0.29612756 7.40318907 0 0 Z " fill="#955A71" transform="translate(118,372)"/>
<path d="M0 0 C0.33 0.66 0.66 1.32 1 2 C1.66 2 2.32 2 3 2 C3.20496094 3.07121094 3.40992188 4.14242188 3.62109375 5.24609375 C3.89302709 6.64326851 4.16517352 8.04040181 4.4375 9.4375 C4.57220703 10.14455078 4.70691406 10.85160156 4.84570312 11.58007812 C5.28406898 15.08429264 5.28406898 15.08429264 7 18 C7.07179964 19.51928038 7.08392007 21.04167482 7.0625 22.5625 C7.05347656 23.38878906 7.04445312 24.21507812 7.03515625 25.06640625 C7.02355469 25.70449219 7.01195312 26.34257812 7 27 C4.7155185 23.12765019 3.91734577 18.9616558 2.9375 14.625 C2.67743164 13.51125 2.67743164 13.51125 2.41210938 12.375 C1.46495325 8.26702786 0.64190673 4.16908494 0 0 Z " fill="#BF8593" transform="translate(174,339)"/>
<path d="M0 0 C0.66 0.33 1.32 0.66 2 1 C2.35555556 6.33333333 2.35555556 6.33333333 1 8.875 C-2.14896314 10.64629177 -5.47038329 10.54794453 -9 10 C-9.99 9.34 -10.98 8.68 -12 8 C-12 7.34 -12 6.68 -12 6 C-9.03 6.33 -6.06 6.66 -3 7 C-2.01 4.69 -1.02 2.38 0 0 Z " fill="#F5BDBF" transform="translate(358,103)"/>
<path d="M0 0 C4.23830976 2.82553984 3.97715348 5.12180888 5 10 C7.31 9.34 9.62 8.68 12 8 C12 8.66 12 9.32 12 10 C10.70990357 10.50403768 9.41786211 11.00309926 8.125 11.5 C7.40570313 11.7784375 6.68640625 12.056875 5.9453125 12.34375 C4 13 4 13 2 13 C1.566875 11.3603125 1.566875 11.3603125 1.125 9.6875 C0.18106796 5.95986155 0.18106796 5.95986155 -2 3 C-1.34 3 -0.68 3 0 3 C0 2.01 0 1.02 0 0 Z " fill="#DAA2A9" transform="translate(414,166)"/>
<path d="M0 0 C1.125 1.6875 1.125 1.6875 2 4 C1.01439601 7.94241595 -0.73586167 10.57521152 -4 13 C-6.75 12.75 -6.75 12.75 -9 12 C-9.33 11.01 -9.66 10.02 -10 9 C-8.6078125 8.87625 -8.6078125 8.87625 -7.1875 8.75 C-3.97005515 8.28806106 -3.97005515 8.28806106 -2.1875 6.1875 C-1.05218038 4.09612176 -0.41677931 2.33396414 0 0 Z " fill="#E4ACB2" transform="translate(76,133)"/>
<path d="M0 0 C1.67542976 0.28604898 3.34385343 0.61781233 5 1 C5.625 3.375 5.625 3.375 6 6 C5.34 6.66 4.68 7.32 4 8 C1.375 7.625 1.375 7.625 -1 7 C-1.04254356 5.00045254 -1.04080783 2.99958364 -1 1 C-0.67 0.67 -0.34 0.34 0 0 Z " fill="#DBA2AA" transform="translate(305,29)"/>
<path d="M0 0 C0.66 0.33 1.32 0.66 2 1 C0.68 1.33 -0.64 1.66 -2 2 C-1.67 8.27 -1.34 14.54 -1 21 C-1.99 21.33 -2.98 21.66 -4 22 C-4 15.4 -4 8.8 -4 2 C-2.68 1.34 -1.36 0.68 0 0 Z " fill="#C38B97" transform="translate(316,297)"/>
<path d="M0 0 C0 0.66 0 1.32 0 2 C0.66 2.33 1.32 2.66 2 3 C1.01 3 0.02 3 -1 3 C-1 2.34 -1 1.68 -1 1 C-8.47858985 2.93575797 -8.47858985 2.93575797 -14 8 C-14.80315654 11.14481791 -14.80315654 11.14481791 -15 14 C-15.33 14 -15.66 14 -16 14 C-16.48695652 6.8173913 -16.48695652 6.8173913 -14.25 3.0625 C-9.96492191 -0.86548825 -5.56557143 -0.09275952 0 0 Z " fill="#763958" transform="translate(255,410)"/>
<path d="M0 0 C1.66611905 -0.042721 3.33382885 -0.04063832 5 0 C6 1 6 1 6.0625 3.5625 C6.041875 4.366875 6.02125 5.17125 6 6 C3.625 6.625 3.625 6.625 1 7 C0.34 6.34 -0.32 5.68 -1 5 C-0.625 2.375 -0.625 2.375 0 0 Z " fill="#E5AEB3" transform="translate(233,16)"/>
<path d="M0 0 C0.66 0.33 1.32 0.66 2 1 C0.58474822 2.58459815 -0.8322642 4.16762391 -2.25 5.75 C-3.03890625 6.63171875 -3.8278125 7.5134375 -4.640625 8.421875 C-6.70592672 10.67866165 -8.81735064 12.85739926 -11 15 C-11.99 14.67 -12.98 14.34 -14 14 C-9.38 9.38 -4.76 4.76 0 0 Z " fill="#DAA1A9" transform="translate(149,129)"/>
<path d="M0 0 C1.98 0.495 1.98 0.495 4 1 C4 1.66 4 2.32 4 3 C4.99 3.33 5.98 3.66 7 4 C7 4.66 7 5.32 7 6 C7.99 6.33 8.98 6.66 10 7 C9.01 7 8.02 7 7 7 C6.67 7.99 6.34 8.98 6 10 C3.69 7.69 1.38 5.38 -1 3 C-0.67 2.01 -0.34 1.02 0 0 Z " fill="#763A58" transform="translate(352,91)"/>
<path d="M0 0 C0.33 0 0.66 0 1 0 C0.979375 0.78375 0.95875 1.5675 0.9375 2.375 C0.81315937 4.98114961 0.81315937 4.98114961 2 7 C0.68 7.99 -0.64 8.98 -2 10 C-2.33 9.34 -2.66 8.68 -3 8 C-3.99 9.485 -3.99 9.485 -5 11 C-8.625 11.1875 -8.625 11.1875 -12 11 C-12 10.34 -12 9.68 -12 9 C-10.02 9 -8.04 9 -6 9 C-5.7525 8.360625 -5.505 7.72125 -5.25 7.0625 C-4 5 -4 5 -1.875 4.25 C-1.25625 4.1675 -0.6375 4.085 0 4 C0 2.68 0 1.36 0 0 Z " fill="#CE95A0" transform="translate(352,84)"/>
<path d="M0 0 C0 0.33 0 0.66 0 1 C-2.64 1 -5.28 1 -8 1 C-8.66 2.32 -9.32 3.64 -10 5 C-11.32 5 -12.64 5 -14 5 C-13.34 7.31 -12.68 9.62 -12 12 C-14.0625 10.25 -14.0625 10.25 -16 8 C-16.125 6 -16.125 6 -15 4 C-10.16181053 -0.35437052 -6.16879188 -0.49350335 0 0 Z " fill="#8D526B" transform="translate(384,363)"/>
<path d="M0 0 C1.4540625 0.0309375 1.4540625 0.0309375 2.9375 0.0625 C1.60416667 2.72916667 0.27083333 5.39583333 -1.0625 8.0625 C-2.0525 7.7325 -3.0425 7.4025 -4.0625 7.0625 C-4.10504356 5.06295254 -4.10330783 3.06208364 -4.0625 1.0625 C-3.0625 0.0625 -3.0625 0.0625 0 0 Z " fill="#F0B8BB" transform="translate(342.0625,94.9375)"/>
<path d="M0 0 C0.33 0 0.66 0 1 0 C1.33 3.63 1.66 7.26 2 11 C0.68 11 -0.64 11 -2 11 C-2.25 3.375 -2.25 3.375 0 0 Z " fill="#F0B8BC" transform="translate(37,160)"/>
<path d="M0 0 C1 1 1 1 1.09765625 2.84765625 C1.04882812 5.92382812 1.04882812 5.92382812 1 9 C0.67 9 0.34 9 0 9 C-0.33 6.69 -0.66 4.38 -1 2 C-4.60968998 1.65630901 -4.60968998 1.65630901 -7.6875 3.3125 C-8.86213226 4.82274148 -9.93871047 6.4080657 -11 8 C-10.67 5.69 -10.34 3.38 -10 1 C-6.23355012 -0.82941851 -4.03077875 -1.23162684 0 0 Z " fill="#692C4D" transform="translate(273,36)"/>
<path d="M0 0 C2.475 0.495 2.475 0.495 5 1 C5.33 2.65 5.66 4.3 6 6 C4.68 6.33 3.36 6.66 2 7 C0 4 0 4 0 0 Z " fill="#612447" transform="translate(79,360)"/>
<path d="M0 0 C0.53625 0.226875 1.0725 0.45375 1.625 0.6875 C0.655625 1.30625 -0.31375 1.925 -1.3125 2.5625 C-4.40335362 4.34428846 -4.40335362 4.34428846 -5.375 6.6875 C-4.385 7.0175 -3.395 7.3475 -2.375 7.6875 C-3.695 7.6875 -5.015 7.6875 -6.375 7.6875 C-7.035 7.0275 -7.695 6.3675 -8.375 5.6875 C-8.375 4.6975 -8.375 3.7075 -8.375 2.6875 C-2.95961538 -0.38942308 -2.95961538 -0.38942308 0 0 Z " fill="#7D425E" transform="translate(350.375,397.3125)"/>
<path d="M0 0 C0.33 0 0.66 0 1 0 C1.0810206 2.10353495 1.13919907 4.20795952 1.1875 6.3125 C1.22230469 7.48425781 1.25710937 8.65601563 1.29296875 9.86328125 C1 13 1 13 -0.38671875 14.91796875 C-2.64794471 16.43457793 -4.24819513 16 -7 16 C-6.67 15.34 -6.34 14.68 -6 14 C-5.34 14 -4.68 14 -4 14 C-3.67 13.01 -3.34 12.02 -3 11 C-2.34 11 -1.68 11 -1 11 C-0.67 7.37 -0.34 3.74 0 0 Z " fill="#C9909B" transform="translate(52,192)"/>
<path d="M0 0 C1.32 0.33 2.64 0.66 4 1 C4.33 2.98 4.66 4.96 5 7 C4.34 6.67 3.68 6.34 3 6 C3 5.34 3 4.68 3 4 C2.01 4 1.02 4 0 4 C0 5.98 0 7.96 0 10 C-0.66 9.67 -1.32 9.34 -2 9 C-2 7.02 -2 5.04 -2 3 C-1.34 3 -0.68 3 0 3 C0 2.01 0 1.02 0 0 Z " fill="#884D67" transform="translate(69,367)"/>
<path d="M0 0 C1.4540625 0.0309375 1.4540625 0.0309375 2.9375 0.0625 C2.9375 1.0525 2.9375 2.0425 2.9375 3.0625 C-0.15059695 4.82712683 -1.29562136 5.0625 -5.0625 5.0625 C-3.9375 0.08035714 -3.9375 0.08035714 0 0 Z " fill="#F8C1C3" transform="translate(22.0625,186.9375)"/>
<path d="M0 0 C2.50298434 2.93828597 3.46930939 5.17902761 4 9 C3.01 9.495 3.01 9.495 2 10 C-1 8 -1 8 -1.8125 5 C-1.874375 4.01 -1.93625 3.02 -2 2 C-1.34 1.34 -0.68 0.68 0 0 Z " fill="#DBA3AB" transform="translate(387,136)"/>
<path d="M0 0 C1.08667969 0.01804687 2.17335937 0.03609375 3.29296875 0.0546875 C4.54013672 0.08949219 4.54013672 0.08949219 5.8125 0.125 C5.8125 1.775 5.8125 3.425 5.8125 5.125 C4.8225 4.465 3.8325 3.805 2.8125 3.125 C-0.15592658 2.66584493 -0.15592658 2.66584493 -3.375 2.5 C-4.46167969 2.42523437 -5.54835937 2.35046875 -6.66796875 2.2734375 C-7.49941406 2.22445313 -8.33085937 2.17546875 -9.1875 2.125 C-5.66070901 -0.22619399 -4.15870515 -0.08943452 0 0 Z " fill="#F5BEC0" transform="translate(199.1875,21.875)"/>
<path d="M0 0 C0.66 0 1.32 0 2 0 C2 2.31 2 4.62 2 7 C0.02 7 -1.96 7 -4 7 C-2.92598892 4.08482708 -2.22189824 2.22189824 0 0 Z " fill="#763B58" transform="translate(160,408)"/>
<path d="M0 0 C0.99 0 1.98 0 3 0 C3.33 2.31 3.66 4.62 4 7 C1.69 7 -0.62 7 -3 7 C-2.34 6.34 -1.68 5.68 -1 5 C-0.35232207 2.42938689 -0.35232207 2.42938689 0 0 Z " fill="#E7AFB4" transform="translate(436,212)"/>
<path d="M0 0 C2.27521866 2.16687491 4.15794162 4.45620509 6 7 C5.67 7.66 5.34 8.32 5 9 C4.34 8.34 3.68 7.68 3 7 C2.01 7.495 2.01 7.495 1 8 C1 7.34 1 6.68 1 6 C-0.65 6 -2.3 6 -4 6 C-3.34 5.01 -2.68 4.02 -2 3 C-1.34 3 -0.68 3 0 3 C0 2.01 0 1.02 0 0 Z " fill="#CE959F" transform="translate(414,117)"/>
<path d="M0 0 C2.31 0 4.62 0 7 0 C7 3 7 3 5.4375 5.1875 C2.19051375 7.60192567 -0.05115643 7.3037572 -4 7 C-4 6.67 -4 6.34 -4 6 C-3.030625 5.87625 -2.06125 5.7525 -1.0625 5.625 C-0.051875 5.41875 0.95875 5.2125 2 5 C2.33 4.34 2.66 3.68 3 3 C2.01 2.67 1.02 2.34 0 2 C0 1.34 0 0.68 0 0 Z " fill="#C18895" transform="translate(132,77)"/>
<path d="M0 0 C0.33 0.66 0.66 1.32 1 2 C1.99 1.67 2.98 1.34 4 1 C5.39439664 0.93334624 6.79169875 0.91461801 8.1875 0.9375 C10.0746875 0.9684375 10.0746875 0.9684375 12 1 C9.22920113 4.80984844 5.37131855 5.06840752 1 6 C0.67 4.02 0.34 2.04 0 0 Z " fill="#D299A3" transform="translate(263,31)"/>
<path d="M0 0 C4.95839497 4.79844675 4.95839497 4.79844675 5.09765625 8.8203125 C5.08605469 9.91085937 5.07445312 11.00140625 5.0625 12.125 C5.05347656 13.22070312 5.04445313 14.31640625 5.03515625 15.4453125 C5.02355469 16.28835938 5.01195312 17.13140625 5 18 C4.67 18 4.34 18 4 18 C3.67 13.71 3.34 9.42 3 5 C2.01 4.67 1.02 4.34 0 4 C0 2.68 0 1.36 0 0 Z " fill="#A0677B" transform="translate(397,360)"/>
<path d="M0 0 C1.24523437 0.02707031 2.49046875 0.05414063 3.7734375 0.08203125 C4.71445312 0.11683594 5.65546875 0.15164063 6.625 0.1875 C6.625 0.8475 6.625 1.5075 6.625 2.1875 C5.72136719 2.16429687 4.81773437 2.14109375 3.88671875 2.1171875 C2.70722656 2.09914063 1.52773438 2.08109375 0.3125 2.0625 C-0.85925781 2.03929687 -2.03101563 2.01609375 -3.23828125 1.9921875 C-6.53893661 1.93429382 -6.53893661 1.93429382 -9.375 4.1875 C-11.5625 3.8125 -11.5625 3.8125 -13.375 3.1875 C-8.70450485 0.4498713 -5.38700281 -0.15246234 0 0 Z " fill="#8B5069" transform="translate(382.375,351.8125)"/>
<path d="M0 0 C0.1953125 6.0546875 0.1953125 6.0546875 0 8 C-0.66 8.66 -1.32 9.32 -2 10 C-2.33 9.67 -2.66 9.34 -3 9 C-5.33297433 8.95907063 -7.66705225 8.95758277 -10 9 C-10 8.67 -10 8.34 -10 8 C-8.02 7.34 -6.04 6.68 -4 6 C-3.814375 4.7934375 -3.814375 4.7934375 -3.625 3.5625 C-3.41875 2.716875 -3.2125 1.87125 -3 1 C-1 0 -1 0 0 0 Z " fill="#C98F9B" transform="translate(61,165)"/>
<path d="M0 0 C0 0.33 0 0.66 0 1 C-2.64 1.33 -5.28 1.66 -8 2 C-6.68 2.66 -5.36 3.32 -4 4 C-7.3125 5.125 -7.3125 5.125 -11 6 C-11.99 5.34 -12.98 4.68 -14 4 C-9.57391359 -0.5688634 -5.97980322 -0.46900417 0 0 Z " fill="#CA909C" transform="translate(122,63)"/>
<path d="M0 0 C0.66 0 1.32 0 2 0 C1.67 0.99 1.34 1.98 1 3 C0.8535286 4.55266653 0.75305926 6.10995662 0.68359375 7.66796875 C0.64169922 8.56064453 0.59980469 9.45332031 0.55664062 10.37304688 C0.51732422 11.30181641 0.47800781 12.23058594 0.4375 13.1875 C0.39431641 14.12787109 0.35113281 15.06824219 0.30664062 16.03710938 C0.20061335 18.35792854 0.09854971 20.67885325 0 23 C-0.33 23 -0.66 23 -1 23 C-1.02887512 19.35418313 -1.04675585 15.70839537 -1.0625 12.0625 C-1.07087891 11.02158203 -1.07925781 9.98066406 -1.08789062 8.90820312 C-1.09272461 7.42416992 -1.09272461 7.42416992 -1.09765625 5.91015625 C-1.10289307 4.99371338 -1.10812988 4.07727051 -1.11352539 3.13305664 C-1 1 -1 1 0 0 Z " fill="#D9A1A9" transform="translate(238,243)"/>
<path d="M0 0 C2.16874252 0.50603992 3.99967627 0.99983813 6 2 C6 2.99 6 3.98 6 5 C3.36 4.67 0.72 4.34 -2 4 C-1.34 2.68 -0.68 1.36 0 0 Z " fill="#E2A9B0" transform="translate(59,119)"/>
<path d="M0 0 C3.3 0 6.6 0 10 0 C10 0.66 10 1.32 10 2 C8.35 2 6.7 2 5 2 C4.67 2.66 4.34 3.32 4 4 C2.68 3.67 1.36 3.34 0 3 C0 2.01 0 1.02 0 0 Z " fill="#D198A2" transform="translate(228,28)"/>
<path d="M0 0 C1.125 3.75 1.125 3.75 0 6 C-0.66 6.66 -1.32 7.32 -2 8 C-2.40047444 10.32275177 -2.7397104 12.65739357 -3 15 C-3.33 15 -3.66 15 -4 15 C-4.51211281 8.59858988 -4.11888494 5.01989102 0 0 Z " fill="#B47A8B" transform="translate(38,155)"/>
<path d="M0 0 C1.9375 0.3125 1.9375 0.3125 4 1 C4.33 1.99 4.66 2.98 5 4 C4.34 4 3.68 4 3 4 C2.67 5.32 2.34 6.64 2 8 C1.34 7.67 0.68 7.34 0 7 C0 4.69 0 2.38 0 0 Z " fill="#C88F9B" transform="translate(407,110)"/>
<path d="M0 0 C1.65 0.99 3.3 1.98 5 3 C4.67 3.99 4.34 4.98 4 6 C1.525 5.01 1.525 5.01 -1 4 C-1.33 4.66 -1.66 5.32 -2 6 C-2 4.68 -2 3.36 -2 2 C-1.34 2 -0.68 2 0 2 C0 1.34 0 0.68 0 0 Z " fill="#D79FA7" transform="translate(374,86)"/>
<path d="M0 0 C1.69433918 3.0469629 2.49467112 5.82821466 3.125 9.25 C3.29257813 10.14203125 3.46015625 11.0340625 3.6328125 11.953125 C3.75398438 12.62859375 3.87515625 13.3040625 4 14 C3.01 13.67 2.02 13.34 1 13 C-0.10228696 8.59085217 -0.07654536 4.51617599 0 0 Z " fill="#AE7485" transform="translate(111,403)"/>
<path d="M0 0 C0.99 0.33 1.98 0.66 3 1 C3 1.99 3 2.98 3 4 C3.99 4.33 4.98 4.66 6 5 C4.02 5.33 2.04 5.66 0 6 C0 5.34 0 4.68 0 4 C-0.66 4 -1.32 4 -2 4 C-2 3.01 -2 2.02 -2 1 C-1.34 0.67 -0.68 0.34 0 0 Z " fill="#C88F9B" transform="translate(380,127)"/>
<path d="M0 0 C4.67692308 1.47692308 4.67692308 1.47692308 6.3125 4.125 C6.539375 4.74375 6.76625 5.3625 7 6 C5.68 5.67 4.36 5.34 3 5 C2.67 5.99 2.34 6.98 2 8 C0.74335022 5.09399739 0 3.20395416 0 0 Z " fill="#DFA7AE" transform="translate(367,80)"/>
<path d="M0 0 C0.99 0.66 1.98 1.32 3 2 C3.25 5.5625 3.25 5.5625 3 9 C2 10 2 10 -0.5625 10.0625 C-1.366875 10.041875 -2.17125 10.02125 -3 10 C-3.33 9.34 -3.66 8.68 -4 8 C-2.35 7.67 -0.7 7.34 1 7 C0.67 4.69 0.34 2.38 0 0 Z " fill="#B57C8B" transform="translate(353,101)"/>
<path d="M0 0 C2.97 0.495 2.97 0.495 6 1 C6 1.66 6 2.32 6 3 C4.6696875 3.433125 4.6696875 3.433125 3.3125 3.875 C0.49617576 4.83148748 -2.25083156 5.86798946 -5 7 C-3.35 4.69 -1.7 2.38 0 0 Z " fill="#6B2F4F" transform="translate(373,90)"/>
<path d="M0 0 C3.5625 -0.375 3.5625 -0.375 7 0 C7.66 0.66 8.32 1.32 9 2 C5.04 2.66 1.08 3.32 -3 4 C-2.01 2.68 -1.02 1.36 0 0 Z " fill="#D198A2" transform="translate(329,56)"/>
<path d="M0 0 C0.66 0 1.32 0 2 0 C2.125 2.875 2.125 2.875 2 6 C1.34 6.66 0.68 7.32 0 8 C0 6.68 0 5.36 0 4 C-1.98 4 -3.96 4 -6 4 C-6 3.67 -6 3.34 -6 3 C-4.35 3 -2.7 3 -1 3 C-0.67 2.01 -0.34 1.02 0 0 Z " fill="#C38A97" transform="translate(64,155)"/>
<path d="M0 0 C1.66611905 -0.042721 3.33382885 -0.04063832 5 0 C6 1 6 1 6.0625 3.5625 C6.041875 4.366875 6.02125 5.17125 6 6 C5.01 6.495 5.01 6.495 4 7 C4 5.35 4 3.7 4 2 C2.35 2 0.7 2 -1 2 C-0.67 1.34 -0.34 0.68 0 0 Z " fill="#733755" transform="translate(70,131)"/>
<path d="M0 0 C0.33 0.99 0.66 1.98 1 3 C-0.65 4.65 -2.3 6.3 -4 8 C-4.99 7.67 -5.98 7.34 -7 7 C-4.69 4.69 -2.38 2.38 0 0 Z " fill="#672A4B" transform="translate(130,124)"/>
<path d="M0 0 C2.10633718 1.70828921 2.93801608 2.52148416 3.29296875 5.26171875 C3.25816406 6.06222656 3.22335938 6.86273438 3.1875 7.6875 C3.16042969 8.49574219 3.13335937 9.30398438 3.10546875 10.13671875 C3.07066406 10.75160156 3.03585938 11.36648438 3 12 C0.7655402 7.96707255 0.45503257 4.55032566 0 0 Z " fill="#B17788" transform="translate(181,366)"/>
<path d="M0 0 C2.10633718 1.70828921 2.93801608 2.52148416 3.29296875 5.26171875 C3.25816406 6.06222656 3.22335938 6.86273438 3.1875 7.6875 C3.16042969 8.49574219 3.13335937 9.30398438 3.10546875 10.13671875 C3.07066406 10.75160156 3.03585938 11.36648438 3 12 C0.7655402 7.96707255 0.45503257 4.55032566 0 0 Z " fill="#B47A8B" transform="translate(178,354)"/>
<path d="M0 0 C0.66 0 1.32 0 2 0 C2.33 1.65 2.66 3.3 3 5 C2.34 5 1.68 5 1 5 C0.67 5.66 0.34 6.32 0 7 C-0.33 6.34 -0.66 5.68 -1 5 C-1.99 4.34 -2.98 3.68 -4 3 C-2.68 3 -1.36 3 0 3 C0 2.01 0 1.02 0 0 Z " fill="#CD949F" transform="translate(401,127)"/>
<path d="M0 0 C2.97 0.33 5.94 0.66 9 1 C9 1.33 9 1.66 9 2 C5.37 2.66 1.74 3.32 -2 4 C-1.34 2.68 -0.68 1.36 0 0 Z " fill="#814661" transform="translate(149,423)"/>
<path d="M0 0 C-0.66 1.32 -1.32 2.64 -2 4 C-2.66 4 -3.32 4 -4 4 C-4 6.31 -4 8.62 -4 11 C-4.33 11 -4.66 11 -5 11 C-5.36717663 3.5340751 -5.36717663 3.5340751 -3.625 1 C-2 0 -2 0 0 0 Z " fill="#723655" transform="translate(23,191)"/>
<path d="M0 0 C0.33 0.99 0.66 1.98 1 3 C-0.65 3.66 -2.3 4.32 -4 5 C-4.66 4.34 -5.32 3.68 -6 3 C-3.375 0 -3.375 0 0 0 Z " fill="#D299A3" transform="translate(89,85)"/>
<path d="M0 0 C2.97 0 5.94 0 9 0 C9 0.99 9 1.98 9 3 C2.84765625 2.4140625 2.84765625 2.4140625 1 2 C0.67 1.34 0.34 0.68 0 0 Z " fill="#B67C8C" transform="translate(293,66)"/>
<path d="M0 0 C2.64 0.33 5.28 0.66 8 1 C6.68 1.33 5.36 1.66 4 2 C3.67 3.32 3.34 4.64 3 6 C3 5.01 3 4.02 3 3 C2.01 2.67 1.02 2.34 0 2 C0 1.34 0 0.68 0 0 Z " fill="#D39BA4" transform="translate(296,40)"/>
<path d="M0 0 C2.5625 2.1875 2.5625 2.1875 5 5 C4.8125 7.8125 4.8125 7.8125 4 10 C1.81024227 6.71536341 1.00193437 3.79303725 0 0 Z " fill="#733756" transform="translate(401,175)"/>
<path d="M0 0 C0.33 0.99 0.66 1.98 1 3 C0.34 3.66 -0.32 4.32 -1 5 C-1.64767793 7.57061311 -1.64767793 7.57061311 -2 10 C-2.33 10 -2.66 10 -3 10 C-3.29296875 3.9453125 -3.29296875 3.9453125 -3 2 C-2.01 1.34 -1.02 0.68 0 0 Z " fill="#6D3151" transform="translate(64,163)"/>
<path d="M0 0 C2.31 0.33 4.62 0.66 7 1 C7 1.33 7 1.66 7 2 C5.02 2 3.04 2 1 2 C1.33 2.99 1.66 3.98 2 5 C1.01 4.67 0.02 4.34 -1 4 C-0.67 2.68 -0.34 1.36 0 0 Z " fill="#985D73" transform="translate(65,140)"/>
<path d="M0 0 C2.64 0.33 5.28 0.66 8 1 C6.25 2.5625 6.25 2.5625 4 4 C1.75 3.6875 1.75 3.6875 0 3 C0 2.01 0 1.02 0 0 Z " fill="#D198A2" transform="translate(254,29)"/>
</svg>
